<!-- Generated by readme-aura https://github.com/collectioneur/readme-aura -->
<svg width="860" height="168" viewBox="0 0 860 168" xmlns="http://www.w3.org/2000/svg"><defs><clipPath id="satori_bc-id"><path x="0" y="0" width="860" height="168" d="M16,0 h828 a16,16 0 0 1 16,16 v136 a16,16 0 0 1 -16,16 h-828 a16,16 0 0 1 -16,-16 v-136 a16,16 0 0 1 16,-16"/></clipPath></defs><clipPath id="satori_cp-id"><path x="0" y="0" width="860" height="168" d="M16,0 h828 a16,16 0 0 1 16,16 v136 a16,16 0 0 1 -16,16 h-828 a16,16 0 0 1 -16,-16 v-136 a16,16 0 0 1 16,-16"/></clipPath><mask id="satori_om-id"><rect x="1" y="1" width="858" height="166" fill="#fff"/><path width="860" height="168" fill="none" stroke="#000" stroke-width="2" d="M4.686,4.686 A16,16 0 0 1 16,0 h828 a16,16 0 0 1 16,16 v136 a16,16 0 0 1 -16,16 h-828 a16,16 0 0 1 -16,-16 v-136 A16,16 0 0 1 4.686,4.686"/></mask><path x="0" y="0" width="860" height="168" fill="#08080c" d="M16,0 h828 a16,16 0 0 1 16,16 v136 a16,16 0 0 1 -16,16 h-828 a16,16 0 0 1 -16,-16 v-136 a16,16 0 0 1 16,-16"/><path width="860" height="168" clip-path="url(#satori_bc-id)" fill="none" stroke="rgba(110,80,220,0.18)" stroke-width="2" d="M4.686,4.686 A16,16 0 0 1 16,0 h828 a16,16 0 0 1 16,16 v136 a16,16 0 0 1 -16,16 h-828 a16,16 0 0 1 -16,-16 v-136 A16,16 0 0 1 4.686,4.686"/><clipPath id="satori_cp-id-0" clip-path="url(#satori_cp-id)"><rect x="1" y="1" width="860" height="168"/></clipPath><mask id="satori_om-id-0"><rect x="1" y="1" width="860" height="168" fill="#fff" mask="url(#satori_om-id)"/></mask><svg x="1" y="1" width="860" height="168" preserveAspectRatio="none" clip-path="url(#satori_cp-id-0)" mask="url(#satori_om-id-0)"><defs><radialGradient id="g1" cx="50%" cy="50%" r="50%"><stop offset="0%" stop-color="rgba(115,20,215,0.68)"></stop><stop offset="42%" stop-color="rgba(85,15,175,0.30)"></stop><stop offset="70%" stop-color="rgba(85,15,175,0)"></stop></radialGradient><radialGradient id="g2" cx="50%" cy="50%" r="50%"><stop offset="0%" stop-color="rgba(55,55,255,0.55)"></stop><stop offset="45%" stop-color="rgba(35,45,210,0.22)"></stop><stop offset="70%" stop-color="rgba(35,45,210,0)"></stop></radialGradient><radialGradient id="g3" cx="50%" cy="50%" r="50%"><stop offset="0%" stop-color="rgba(0,130,255,0.42)"></stop><stop offset="50%" stop-color="rgba(0,100,220,0.16)"></stop><stop offset="70%" stop-color="rgba(0,100,220,0)"></stop></radialGradient><radialGradient id="g4" cx="50%" cy="50%" r="50%"><stop offset="0%" stop-color="rgba(0,185,240,0.32)"></stop><stop offset="70%" stop-color="rgba(0,185,240,0)"></stop></radialGradient><radialGradient id="g5" cx="50%" cy="50%" r="50%"><stop offset="0%" stop-color="rgba(100,25,205,0.42)"></stop><stop offset="70%" stop-color="rgba(100,25,205,0)"></stop></radialGradient><radialGradient id="g6" cx="50%" cy="50%" r="50%"><stop offset="0%" stop-color="rgba(60,80,255,0.35)"></stop><stop offset="70%" stop-color="rgba(60,80,255,0)"></stop></radialGradient></defs><ellipse id="glow-1" cx="170" cy="168" rx="260" ry="170" fill="url(#g1)"></ellipse><ellipse id="glow-2" cx="320" cy="178" rx="220" ry="140" fill="url(#g2)"></ellipse><ellipse id="glow-3" cx="460" cy="178" rx="190" ry="130" fill="url(#g3)"></ellipse><ellipse id="glow-4" cx="590" cy="188" rx="160" ry="110" fill="url(#g4)"></ellipse><ellipse id="glow-5" cx="750" cy="188" rx="140" ry="100" fill="url(#g5)"></ellipse><ellipse id="glow-6" cx="420" cy="138" rx="100" ry="80" fill="url(#g6)"></ellipse><style>

         @keyframes float-slow {
           0%, 100% { transform: translateX(0px); opacity: 0.8; }
           50% { transform: translateX(350px); opacity: 1.2; }
         }
         @keyframes float-medium {
           0%, 100% { transform: translateX(0px); opacity: 0.7; }
           50% { transform: translateX(-250px); opacity: 1.1; }
         }
         @keyframes float-fast {
           0%, 100% { transform: translateX(0px); opacity: 0.9; }
           50% { transform: translateX(200px); opacity: 0.6; }
         }
         @keyframes float-diagonal {
           0%, 100% { transform: translate(0px, 0px); opacity: 0.75; }
           50% { transform: translate(120px, 30px); opacity: 1.0; }
         }
         @keyframes float-wave {
           0%, 100% { transform: translateX(0px); opacity: 0.65; }
           33% { transform: translateX(-160px); opacity: 0.9; }
           66% { transform: translateX(80px); opacity: 1.0; }
         }
         @keyframes float-pulse {
           0%, 100% { transform: scale(1); opacity: 0.8; }
           50% { transform: scale(1.3); opacity: 0.4; }
         }
         #glow-1 { animation: float-slow 9s ease-in-out infinite; }
         #glow-2 { animation: float-medium 12s ease-in-out infinite; }
         #glow-3 { animation: float-fast 8s ease-in-out infinite; }
         #glow-4 { animation: float-diagonal 11s ease-in-out infinite reverse; }
         #glow-5 { animation: float-wave 14s ease-in-out infinite reverse; }
         #glow-6 { animation: float-pulse 6s ease-in-out infinite; }
       
</style>
</svg><mask id="satori_om-id-0-0"><rect x="1" y="1" width="0" height="168" fill="#fff" mask="url(#satori_om-id)"/></mask><mask id="satori_om-id-0-0-0"><rect x="1" y="1" width="0" height="168" fill="#fff" mask="url(#satori_om-id)"/></mask><mask id="satori_om-id-0-0-0-0"><rect x="1" y="1" width="0" height="168" fill="#fff" mask="url(#satori_om-id)"/></mask><mask id="satori_om-id-0-0-0-1"><rect x="1" y="1" width="0" height="168" fill="#fff" mask="url(#satori_om-id)"/></mask><mask id="satori_om-id-0-0-0-2"><rect x="1" y="1" width="0" height="168" fill="#fff" mask="url(#satori_om-id)"/></mask><mask id="satori_om-id-0-0-1"><rect x="1" y="1" width="0" height="168" fill="#fff" mask="url(#satori_om-id)"/></mask><mask id="satori_om-id-0-0-1-0"><rect x="1" y="1" width="0" height="168" fill="#fff" mask="url(#satori_om-id)"/></mask><mask id="satori_om-id-0-0-1-1"><rect x="1" y="1" width="0" height="168" fill="#fff" mask="url(#satori_om-id)"/></mask><mask id="satori_om-id-0-0-1-2"><rect x="1" y="1" width="0" height="168" fill="#fff" mask="url(#satori_om-id)"/></mask><mask id="satori_om-id-0-0-2"><rect x="1" y="1" width="0" height="168" fill="#fff" mask="url(#satori_om-id)"/></mask><mask id="satori_om-id-0-0-2-0"><rect x="1" y="1" width="0" height="168" fill="#fff" mask="url(#satori_om-id)"/></mask><mask id="satori_om-id-0-0-2-1"><rect x="1" y="1" width="0" height="168" fill="#fff" mask="url(#satori_om-id)"/></mask><mask id="satori_om-id-0-0-2-2"><rect x="1" y="1" width="0" height="168" fill="#fff" mask="url(#satori_om-id)"/></mask><mask id="satori_om-id-0-0-3"><rect x="1" y="1" width="0" height="168" fill="#fff" mask="url(#satori_om-id)"/></mask><mask id="satori_om-id-0-0-3-0"><rect x="1" y="1" width="0" height="168" fill="#fff" mask="url(#satori_om-id)"/></mask><mask id="satori_om-id-0-0-3-1"><rect x="1" y="1" width="0" height="168" fill="#fff" mask="url(#satori_om-id)"/></mask><mask id="satori_om-id-0-0-4"><rect x="1" y="1" width="0" height="168" fill="#fff" mask="url(#satori_om-id)"/></mask><mask id="satori_om-id-0-0-4-0"><rect x="1" y="1" width="0" height="168" fill="#fff" mask="url(#satori_om-id)"/></mask><mask id="satori_om-id-0-0-4-1"><rect x="1" y="1" width="0" height="168" fill="#fff" mask="url(#satori_om-id)"/></mask><mask id="satori_om-id-0-0-5"><rect x="1" y="1" width="0" height="168" fill="#fff" mask="url(#satori_om-id)"/></mask><mask id="satori_om-id-0-0-5-0"><rect x="1" y="1" width="0" height="168" fill="#fff" mask="url(#satori_om-id)"/></mask><mask id="satori_om-id-0-0-5-1"><rect x="1" y="1" width="0" height="168" fill="#fff" mask="url(#satori_om-id)"/></mask><mask id="satori_om-id-0-1"><rect x="1" y="1" width="0" height="168" fill="#fff" mask="url(#satori_om-id)"/></mask><mask id="satori_om-id-0-2"><rect x="1" y="1" width="0" height="168" fill="#fff" mask="url(#satori_om-id)"/></mask><mask id="satori_om-id-0-3"><rect x="1" y="1" width="0" height="168" fill="#fff" mask="url(#satori_om-id)"/></mask><mask id="satori_om-id-0-4"><rect x="1" y="1" width="0" height="168" fill="#fff" mask="url(#satori_om-id)"/></mask><mask id="satori_om-id-0-5"><rect x="1" y="1" width="0" height="168" fill="#fff" mask="url(#satori_om-id)"/></mask><mask id="satori_om-id-0-6"><rect x="1" y="1" width="0" height="168" fill="#fff" mask="url(#satori_om-id)"/></mask><mask id="satori_om-id-1"><rect x="33" y="19" width="794" height="12" fill="#fff" mask="url(#satori_om-id)"/></mask><g mask="url(#satori_om-id)" clip-path="url(#satori_cp-id)"><path fill="rgba(155,140,210,0.5)" d="M35.6 23.0L33.4 23.0L33.4 21.7L39.3 21.7L39.3 23.0L37.1 23.0L37.1 29L35.6 29L35.6 23.0ZM48.2 29L43.3 29L43.3 21.7L48.2 21.7L48.2 23.0L44.8 23.0L44.8 24.7L47.9 24.7L47.9 25.9L44.8 25.9L44.8 27.8L48.2 27.8L48.2 29ZM55.6 29.1L55.6 29.1Q54.6 29.1 53.9 28.7Q53.1 28.2 52.6 27.4Q52.2 26.5 52.2 25.4L52.2 25.4Q52.2 24.2 52.7 23.3Q53.1 22.5 53.9 22.1Q54.6 21.6 55.6 21.6L55.6 21.6Q56.2 21.6 56.7 21.8Q57.3 22.0 57.7 22.3Q58.1 22.6 58.4 23.1Q58.6 23.6 58.7 24.2L58.7 24.2L57.2 24.2Q57.2 23.9 57.0 23.7Q56.9 23.4 56.7 23.3Q56.5 23.1 56.2 23.0Q55.9 23.0 55.6 23.0L55.6 23.0Q55.0 23.0 54.6 23.2Q54.2 23.5 54.0 24.1Q53.7 24.6 53.7 25.4L53.7 25.4Q53.7 26.2 54.0 26.7Q54.2 27.2 54.6 27.5Q55.0 27.8 55.6 27.8L55.6 27.8Q55.9 27.8 56.2 27.7Q56.5 27.6 56.7 27.4Q56.9 27.3 57.0 27.0Q57.2 26.8 57.2 26.5L57.2 26.5L58.7 26.5Q58.7 27.0 58.4 27.5Q58.2 27.9 57.8 28.3Q57.4 28.7 56.8 28.9Q56.3 29.1 55.6 29.1ZM64.3 29L62.8 29L62.8 21.7L64.3 21.7L64.3 24.7L67.5 24.7L67.5 21.7L69.0 21.7L69.0 29L67.5 29L67.5 25.9L64.3 25.9L64.3 29Z M81.3 29.1L81.3 29.1Q80.4 29.1 79.8 28.8Q79.1 28.6 78.8 28.0Q78.4 27.5 78.4 26.7L78.4 26.7L79.9 26.7Q79.9 27.1 80.1 27.4Q80.3 27.6 80.6 27.7Q80.9 27.8 81.3 27.8L81.3 27.8Q81.7 27.8 82.0 27.7Q82.3 27.6 82.5 27.4Q82.6 27.2 82.6 26.9L82.6 26.9Q82.6 26.7 82.5 26.5Q82.3 26.3 82.0 26.2Q81.8 26.1 81.4 26.0L81.4 26.0L80.6 25.8Q79.6 25.6 79.1 25.1Q78.6 24.6 78.6 23.8L78.6 23.8Q78.6 23.2 78.9 22.7Q79.3 22.2 79.9 21.9Q80.5 21.6 81.3 21.6L81.3 21.6Q82.1 21.6 82.7 21.9Q83.3 22.2 83.7 22.7Q84.0 23.2 84.0 23.8L84.0 23.8L82.6 23.8Q82.5 23.4 82.2 23.1Q81.9 22.9 81.3 22.9L81.3 22.9Q80.9 22.9 80.7 23.0Q80.4 23.1 80.3 23.3Q80.1 23.5 80.1 23.7L80.1 23.7Q80.1 24.0 80.3 24.2Q80.4 24.3 80.7 24.5Q81.0 24.6 81.3 24.6L81.3 24.6L81.9 24.8Q82.4 24.9 82.8 25.1Q83.2 25.3 83.5 25.5Q83.8 25.8 84.0 26.1Q84.1 26.5 84.1 26.9L84.1 26.9Q84.1 27.6 83.8 28.1Q83.5 28.6 82.8 28.8Q82.2 29.1 81.3 29.1ZM90.1 23.0L87.9 23.0L87.9 21.7L93.8 21.7L93.8 23.0L91.6 23.0L91.6 29L90.1 29L90.1 23.0ZM99.1 29L97.4 29L99.9 21.7L101.9 21.7L104.4 29L102.8 29L102.2 27.3L99.6 27.3L99.1 29ZM100.0 26.1L101.8 26.1L101.6 25.5Q101.4 24.8 101.2 24L101.2 24Q101.0 23.5 100.9 22.9L100.9 22.9Q100.7 23.5 100.6 24.0L100.6 24.0Q100.4 24.8 100.2 25.5L100.2 25.5L100.0 26.1ZM111.5 29.1L111.5 29.1Q110.5 29.1 109.8 28.7Q109.0 28.2 108.6 27.4Q108.1 26.5 108.1 25.4L108.1 25.4Q108.1 24.2 108.6 23.3Q109.0 22.5 109.8 22.1Q110.6 21.6 111.5 21.6L111.5 21.6Q112.1 21.6 112.7 21.8Q113.2 22.0 113.6 22.3Q114.0 22.6 114.3 23.1Q114.6 23.6 114.6 24.2L114.6 24.2L113.1 24.2Q113.1 23.9 112.9 23.7Q112.8 23.4 112.6 23.3Q112.4 23.1 112.1 23.0Q111.9 23.0 111.5 23.0L111.5 23.0Q111.0 23.0 110.5 23.2Q110.1 23.5 109.9 24.1Q109.6 24.6 109.6 25.4L109.6 25.4Q109.6 26.2 109.9 26.7Q110.1 27.2 110.5 27.5Q111.0 27.8 111.5 27.8L111.5 27.8Q111.8 27.8 112.1 27.7Q112.4 27.6 112.6 27.4Q112.8 27.3 112.9 27.0Q113.1 26.8 113.1 26.5L113.1 26.5L114.6 26.5Q114.6 27.0 114.3 27.5Q114.1 27.9 113.7 28.3Q113.3 28.7 112.8 28.9Q112.2 29.1 111.5 29.1ZM120.2 29L118.7 29L118.7 21.7L120.2 21.7L120.2 23.7L120.2 25.4Q120.2 25.3 120.3 25.3L120.3 25.3Q120.5 24.9 120.7 24.6Q121.0 24.2 121.3 23.8L121.3 23.8L123.1 21.7L124.9 21.7L122.2 24.9L125.0 29L123.3 29L121.2 25.9L120.2 26.9L120.2 29Z "/></g><mask id="satori_om-id-2"><rect x="33" y="45" width="794" height="64" fill="#fff" mask="url(#satori_om-id)"/></mask><mask id="satori_om-id-2-0"><rect x="33" y="45" width="794" height="25" fill="#fff" mask="url(#satori_om-id)"/></mask><mask id="satori_om-id-2-0-0"><rect x="33" y="52" width="80" height="12" fill="#fff" mask="url(#satori_om-id)"/></mask><g mask="url(#satori_om-id)" clip-path="url(#satori_cp-id)"><path fill="#a78bfa" d="M38.3 62L33.7 62L33.7 54.7L35.1 54.7L35.1 60.8L38.3 60.8L38.3 62ZM41.5 62L39.9 62L42.4 54.7L44.3 54.7L46.9 62L45.2 62L44.7 60.3L42.1 60.3L41.5 62ZM42.5 59.1L44.3 59.1L44.1 58.5Q43.8 57.8 43.6 57L43.6 57Q43.5 56.5 43.3 55.9L43.3 55.9Q43.2 56.5 43.1 57.0L43.1 57.0Q42.9 57.8 42.7 58.5L42.7 58.5L42.5 59.1ZM50.3 62L48.8 62L48.8 54.7L50.4 54.7L52.7 58.4Q52.9 58.7 53.1 59.0Q53.3 59.4 53.5 59.8L53.5 59.8Q53.6 60.0 53.6 60.2L53.6 60.2Q53.6 60.0 53.6 59.8L53.6 59.8Q53.6 59.3 53.6 58.9Q53.6 58.5 53.6 58.2L53.6 58.2L53.6 54.7L55.1 54.7L55.1 62L53.4 62L51.3 58.7Q51.1 58.3 50.9 57.9Q50.7 57.6 50.5 57.1L50.5 57.1Q50.4 56.9 50.2 56.6L50.2 56.6Q50.2 56.9 50.2 57.1L50.2 57.1Q50.3 57.6 50.3 58.0Q50.3 58.4 50.3 58.7L50.3 58.7L50.3 62ZM60.6 62.1L60.6 62.1Q59.6 62.1 58.8 61.6Q58.1 61.2 57.6 60.4Q57.2 59.5 57.2 58.4L57.2 58.4Q57.2 57.2 57.7 56.4Q58.1 55.5 58.9 55.1Q59.6 54.6 60.6 54.6L60.6 54.6Q61.2 54.6 61.7 54.8Q62.3 55.0 62.7 55.3Q63.1 55.6 63.4 56.1Q63.6 56.5 63.7 57.1L63.7 57.1L62.2 57.1Q62.1 56.8 62.0 56.6Q61.8 56.4 61.6 56.2Q61.4 56.1 61.2 56.0Q60.9 56.0 60.6 56.0L60.6 56.0Q60.1 56.0 59.6 56.2Q59.2 56.5 59.0 57.0Q58.7 57.6 58.7 58.4Q58.7 59.1 59.0 59.7Q59.2 60.2 59.6 60.5Q60.0 60.8 60.6 60.8L60.6 60.8Q61.2 60.8 61.5 60.6Q61.9 60.4 62.1 60.0L62.1 60.0Q62.3 59.7 62.3 59.3L62.3 59.3L60.7 59.3L60.7 58.1L63.8 58.1L63.8 59.0Q63.8 60.0 63.4 60.7Q63.0 61.4 62.2 61.7Q61.5 62.1 60.6 62.1ZM68.9 62.1L68.9 62.1Q68.0 62.1 67.3 61.8Q66.7 61.4 66.3 60.8Q65.9 60.2 65.9 59.4L65.9 59.4L65.9 54.7L67.4 54.7L67.4 59.3Q67.4 59.7 67.6 60.1Q67.8 60.4 68.1 60.6Q68.5 60.8 68.9 60.8L68.9 60.8Q69.4 60.8 69.7 60.6Q70.0 60.4 70.2 60.1Q70.4 59.7 70.4 59.3L70.4 59.3L70.4 54.7L71.9 54.7L71.9 59.4Q71.9 60.2 71.5 60.8Q71.2 61.4 70.5 61.8Q69.8 62.1 68.9 62.1ZM75.5 62L73.8 62L76.3 54.7L78.2 54.7L80.8 62L79.1 62L78.6 60.3L76.0 60.3L75.5 62ZM76.4 59.1L78.2 59.1L78.0 58.5Q77.8 57.8 77.5 57L77.5 57Q77.4 56.5 77.3 55.9L77.3 55.9Q77.1 56.5 77.0 57.0L77.0 57.0Q76.8 57.8 76.6 58.5L76.6 58.5L76.4 59.1ZM85.9 62.1L85.9 62.1Q84.9 62.1 84.1 61.6Q83.4 61.2 82.9 60.4Q82.5 59.5 82.5 58.4L82.5 58.4Q82.5 57.2 82.9 56.4Q83.4 55.5 84.2 55.1Q84.9 54.6 85.9 54.6L85.9 54.6Q86.5 54.6 87.0 54.8Q87.6 55.0 88.0 55.3Q88.4 55.6 88.6 56.1Q88.9 56.5 89.0 57.1L89.0 57.1L87.5 57.1Q87.4 56.8 87.2 56.6Q87.1 56.4 86.9 56.2Q86.7 56.1 86.5 56.0Q86.2 56.0 85.9 56.0L85.9 56.0Q85.3 56.0 84.9 56.2Q84.5 56.5 84.2 57.0Q84.0 57.6 84.0 58.4Q84.0 59.1 84.2 59.7Q84.5 60.2 84.9 60.5Q85.3 60.8 85.9 60.8L85.9 60.8Q86.5 60.8 86.8 60.6Q87.2 60.4 87.4 60.0L87.4 60.0Q87.6 59.7 87.6 59.3L87.6 59.3L86.0 59.3L86.0 58.1L89.1 58.1L89.1 59.0Q89.1 60.0 88.6 60.7Q88.2 61.4 87.5 61.7Q86.8 62.1 85.9 62.1ZM96.1 62L91.2 62L91.2 54.7L96.1 54.7L96.1 56.0L92.7 56.0L92.7 57.7L95.8 57.7L95.8 58.9L92.7 58.9L92.7 60.8L96.1 60.8L96.1 62ZM100.9 62.1L100.9 62.1Q100.1 62.1 99.4 61.8Q98.8 61.6 98.4 61.0Q98.0 60.5 98.0 59.7L98.0 59.7L99.5 59.7Q99.5 60.1 99.7 60.4Q99.9 60.6 100.2 60.7Q100.5 60.8 100.9 60.8L100.9 60.8Q101.3 60.8 101.6 60.7Q101.9 60.6 102.1 60.4Q102.2 60.2 102.2 59.9L102.2 59.9Q102.2 59.7 102.1 59.5Q101.9 59.3 101.7 59.2Q101.4 59.1 101.0 59.0L101.0 59.0L100.2 58.8Q99.3 58.6 98.7 58.1Q98.2 57.6 98.2 56.8L98.2 56.8Q98.2 56.2 98.6 55.7Q98.9 55.2 99.5 54.9Q100.2 54.6 101.0 54.6L101.0 54.6Q101.8 54.6 102.4 54.9Q103.0 55.2 103.3 55.7Q103.6 56.2 103.6 56.8L103.6 56.8L102.2 56.8Q102.2 56.4 101.8 56.1Q101.5 55.9 100.9 55.9L100.9 55.9Q100.6 55.9 100.3 56.0Q100.0 56.1 99.9 56.3Q99.8 56.5 99.8 56.7L99.8 56.7Q99.8 57.0 99.9 57.2Q100.1 57.3 100.3 57.5Q100.6 57.6 100.9 57.6L100.9 57.6L101.6 57.8Q102.0 57.9 102.4 58.1Q102.8 58.3 103.1 58.5Q103.4 58.8 103.6 59.1Q103.7 59.5 103.7 59.9L103.7 59.9Q103.7 60.6 103.4 61.1Q103.1 61.6 102.5 61.8Q101.8 62.1 100.9 62.1Z "/></g><mask id="satori_om-id-2-0-1"><rect x="129" y="45" width="440" height="25" fill="#fff" mask="url(#satori_om-id)"/></mask><defs><clipPath id="satori_bc-id-2-0-1-0" clip-path="url(#satori_cp-id)"><path x="129" y="45" width="70" height="25" d="M135,45 h58 a6,6 0 0 1 6,6 v13 a6,6 0 0 1 -6,6 h-58 a6,6 0 0 1 -6,-6 v-13 a6,6 0 0 1 6,-6"/></clipPath></defs><mask id="satori_om-id-2-0-1-0"><rect x="130" y="46" width="68" height="23" fill="#fff" mask="url(#satori_om-id)"/><path width="70" height="25" fill="none" stroke="#000" stroke-width="2" d="M130.757,46.757 A6,6 0 0 1 135,45 h58 a6,6 0 0 1 6,6 v13 a6,6 0 0 1 -6,6 h-58 a6,6 0 0 1 -6,-6 v-13 A6,6 0 0 1 130.757,46.757"/></mask><path x="129" y="45" width="70" height="25" fill="#a78bfa15" d="M135,45 h58 a6,6 0 0 1 6,6 v13 a6,6 0 0 1 -6,6 h-58 a6,6 0 0 1 -6,-6 v-13 a6,6 0 0 1 6,-6" clip-path="url(#satori_cp-id)" mask="url(#satori_om-id)"/><path width="70" height="25" clip-path="url(#satori_bc-id-2-0-1-0)" fill="none" stroke="#a78bfa35" stroke-width="2" d="M130.757,46.757 A6,6 0 0 1 135,45 h58 a6,6 0 0 1 6,6 v13 a6,6 0 0 1 -6,6 h-58 a6,6 0 0 1 -6,-6 v-13 A6,6 0 0 1 130.757,46.757"/><g mask="url(#satori_om-id)" clip-path="url(#satori_cp-id)"><path fill="rgba(225,220,255,0.85)" d="M145.6 62L143.8 62L143.8 53.3L147.2 53.3Q148.2 53.3 148.9 53.6Q149.6 54.0 150.0 54.7Q150.3 55.4 150.3 56.2L150.3 56.2Q150.3 57.1 149.9 57.7Q149.6 58.4 148.9 58.8Q148.2 59.1 147.2 59.1L147.2 59.1L145.6 59.1L145.6 62ZM145.6 54.7L145.6 57.7L146.9 57.7Q147.4 57.7 147.8 57.5Q148.1 57.3 148.3 57.0Q148.5 56.7 148.5 56.2Q148.5 55.8 148.3 55.4Q148.1 55.1 147.8 54.9Q147.4 54.7 146.9 54.7L146.9 54.7L145.6 54.7ZM151.5 64.3L151.5 64.3L151.9 63.0L152.1 63.0Q152.5 63.1 152.7 63.1Q153.0 63.1 153.2 62.9Q153.3 62.7 153.4 62.4L153.4 62.4L153.4 62.0L151.0 55.4L152.8 55.4L153.9 58.8Q154.1 59.5 154.3 60.1L154.3 60.1Q154.3 60.4 154.3 60.6L154.3 60.6Q154.4 60.4 154.4 60.1L154.4 60.1Q154.6 59.5 154.8 58.8L154.8 58.8L156.0 55.4L157.8 55.4L155.0 62.8Q154.8 63.3 154.5 63.7Q154.2 64.1 153.7 64.3Q153.3 64.5 152.6 64.5L152.6 64.5Q152.3 64.5 152.0 64.4Q151.7 64.4 151.5 64.3ZM160.8 55.4L162.0 55.4L162.0 56.8L160.8 56.8L160.8 60.1Q160.8 60.4 160.9 60.5Q161.1 60.7 161.4 60.7L161.4 60.7Q161.5 60.7 161.7 60.7Q161.8 60.6 161.9 60.6L161.9 60.6L162.2 61.9Q161.9 62.0 161.6 62.1Q161.3 62.1 161.0 62.1L161.0 62.1Q160.1 62.1 159.5 61.6Q159.0 61.1 159.0 60.2L159.0 60.2L159.0 56.8L158.1 56.8L158.1 55.4L159.0 55.4L159.0 53.9L160.8 53.9L160.8 55.4ZM164.9 58.2L164.9 58.2L164.9 62L163.1 62L163.1 53.3L164.9 53.3L164.9 56.7Q165.1 56.2 165.5 55.8L165.5 55.8Q166.0 55.4 166.9 55.4L166.9 55.4Q167.5 55.4 168.1 55.7Q168.6 56.0 168.8 56.5Q169.1 57.1 169.1 57.8L169.1 57.8L169.1 62L167.4 62L167.4 58.1Q167.4 57.5 167.0 57.2Q166.7 56.8 166.2 56.8L166.2 56.8Q165.8 56.8 165.5 57.0Q165.2 57.2 165.1 57.5Q164.9 57.8 164.9 58.2ZM173.5 62.1L173.5 62.1Q172.6 62.1 171.8 61.7Q171.1 61.3 170.7 60.5Q170.3 59.8 170.3 58.8L170.3 58.8Q170.3 57.7 170.7 57.0Q171.1 56.2 171.8 55.8Q172.6 55.4 173.5 55.4L173.5 55.4Q174.5 55.4 175.3 55.8Q176.0 56.2 176.4 57.0Q176.8 57.7 176.8 58.8L176.8 58.8Q176.8 59.8 176.4 60.5Q176.0 61.3 175.3 61.7Q174.5 62.1 173.5 62.1ZM173.5 60.7L173.5 60.7Q174.0 60.7 174.3 60.5Q174.6 60.2 174.8 59.8Q175.0 59.3 175.0 58.7L175.0 58.7Q175.0 58.2 174.8 57.7Q174.6 57.3 174.3 57.0Q174.0 56.8 173.5 56.8L173.5 56.8Q173.1 56.8 172.8 57.0Q172.4 57.3 172.3 57.7Q172.1 58.2 172.1 58.7L172.1 58.7Q172.1 59.3 172.3 59.8Q172.4 60.2 172.8 60.5Q173.1 60.7 173.5 60.7ZM179.7 58.2L179.7 58.2L179.7 62L178.0 62L178.0 55.4L179.6 55.4L179.7 56.8Q179.9 56.2 180.3 55.8L180.3 55.8Q180.9 55.4 181.7 55.4L181.7 55.4Q182.4 55.4 182.9 55.7Q183.4 56.0 183.7 56.5Q183.9 57.1 183.9 57.8L183.9 57.8L183.9 62L182.2 62L182.2 58.1Q182.2 57.5 181.9 57.2Q181.6 56.8 181.0 56.8L181.0 56.8Q180.6 56.8 180.3 57.0Q180.1 57.2 179.9 57.5Q179.7 57.8 179.7 58.2Z "/></g><defs><clipPath id="satori_bc-id-2-0-1-1" clip-path="url(#satori_cp-id)"><path x="206" y="45" width="134" height="25" d="M212,45 h122 a6,6 0 0 1 6,6 v13 a6,6 0 0 1 -6,6 h-122 a6,6 0 0 1 -6,-6 v-13 a6,6 0 0 1 6,-6"/></clipPath></defs><mask id="satori_om-id-2-0-1-1"><rect x="207" y="46" width="132" height="23" fill="#fff" mask="url(#satori_om-id)"/><path width="134" height="25" fill="none" stroke="#000" stroke-width="2" d="M207.757,46.757 A6,6 0 0 1 212,45 h122 a6,6 0 0 1 6,6 v13 a6,6 0 0 1 -6,6 h-122 a6,6 0 0 1 -6,-6 v-13 A6,6 0 0 1 207.757,46.757"/></mask><path x="206" y="45" width="134" height="25" fill="#a78bfa15" d="M212,45 h122 a6,6 0 0 1 6,6 v13 a6,6 0 0 1 -6,6 h-122 a6,6 0 0 1 -6,-6 v-13 a6,6 0 0 1 6,-6" clip-path="url(#satori_cp-id)" mask="url(#satori_om-id)"/><path width="134" height="25" clip-path="url(#satori_bc-id-2-0-1-1)" fill="none" stroke="#a78bfa35" stroke-width="2" d="M207.757,46.757 A6,6 0 0 1 212,45 h122 a6,6 0 0 1 6,6 v13 a6,6 0 0 1 -6,6 h-122 a6,6 0 0 1 -6,-6 v-13 A6,6 0 0 1 207.757,46.757"/><g mask="url(#satori_om-id)" clip-path="url(#satori_cp-id)"><path fill="rgba(225,220,255,0.85)" d="M223.3 62.1L223.3 62.1Q222.0 62.1 221.2 61.4Q220.4 60.7 220.4 59.4L220.4 59.4L220.4 58.9L222.2 58.9L222.2 59.4Q222.2 60.0 222.5 60.4Q222.8 60.7 223.3 60.7L223.3 60.7Q223.8 60.7 224.1 60.4Q224.5 60.0 224.5 59.4L224.5 59.4L224.5 53.3L226.2 53.3L226.2 59.4Q226.2 60.7 225.4 61.4Q224.7 62.1 223.3 62.1ZM230.0 62.1L230.0 62.1Q229.3 62.1 228.8 61.8Q228.3 61.5 228.0 60.9Q227.8 60.4 227.8 59.6L227.8 59.6L227.8 55.4L229.5 55.4L229.5 59.3Q229.5 59.9 229.8 60.3Q230.2 60.6 230.7 60.6L230.7 60.6Q231.1 60.6 231.4 60.5Q231.7 60.3 231.8 60.0Q232.0 59.7 232.0 59.2L232.0 59.2L232.0 55.4L233.7 55.4L233.7 62L232.1 62L232.1 60.6Q231.8 61.3 231.4 61.6L231.4 61.6Q230.8 62.1 230.0 62.1ZM237.0 64.4L235.2 64.4L235.2 55.4L237.0 55.4L237.0 56.6L237.0 56.6Q237.2 56.3 237.4 56.0Q237.6 55.7 238.0 55.6Q238.4 55.4 238.9 55.4L238.9 55.4Q239.6 55.4 240.2 55.7Q240.8 56.1 241.2 56.9Q241.6 57.6 241.6 58.7L241.6 58.7Q241.6 59.8 241.2 60.6Q240.9 61.3 240.3 61.7Q239.7 62.1 238.9 62.1L238.9 62.1Q238.4 62.1 238 61.9Q237.6 61.7 237.4 61.5Q237.2 61.2 237.0 61.0L237.0 61.0L237.0 61.0L237.0 64.4ZM238.4 60.7L238.4 60.7Q238.8 60.7 239.1 60.4Q239.4 60.2 239.6 59.8Q239.8 59.3 239.8 58.7L239.8 58.7Q239.8 58.2 239.6 57.7Q239.4 57.3 239.1 57.0Q238.8 56.8 238.4 56.8L238.4 56.8Q237.9 56.8 237.6 57.0Q237.3 57.3 237.1 57.7Q237.0 58.1 237.0 58.7L237.0 58.7Q237.0 59.3 237.1 59.8Q237.3 60.2 237.6 60.5Q237.9 60.7 238.4 60.7ZM242.8 64.3L242.8 64.3L243.2 63.0L243.4 63.0Q243.7 63.1 244 63.1Q244.3 63.1 244.4 62.9Q244.6 62.7 244.6 62.4L244.6 62.4L244.7 62.0L242.2 55.4L244.1 55.4L245.2 58.8Q245.4 59.5 245.5 60.1L245.5 60.1Q245.6 60.4 245.6 60.6L245.6 60.6Q245.7 60.4 245.7 60.1L245.7 60.1Q245.9 59.5 246.1 58.8L246.1 58.8L247.2 55.4L249.1 55.4L246.3 62.8Q246.1 63.3 245.8 63.7Q245.5 64.1 245.0 64.3Q244.6 64.5 243.9 64.5L243.9 64.5Q243.5 64.5 243.2 64.4Q242.9 64.4 242.8 64.3ZM252.1 55.4L253.3 55.4L253.3 56.8L252.1 56.8L252.1 60.1Q252.1 60.4 252.2 60.5Q252.3 60.7 252.6 60.7L252.6 60.7Q252.7 60.7 252.9 60.7Q253.1 60.6 253.2 60.6L253.2 60.6L253.5 61.9Q253.2 62.0 252.9 62.1Q252.6 62.1 252.3 62.1L252.3 62.1Q251.3 62.1 250.8 61.6Q250.3 61.1 250.3 60.2L250.3 60.2L250.3 56.8L249.4 56.8L249.4 55.4L250.3 55.4L250.3 53.9L252.1 53.9L252.1 55.4ZM257.4 62.1L257.4 62.1Q256.4 62.1 255.6 61.7Q254.9 61.3 254.5 60.6Q254.1 59.8 254.1 58.8L254.1 58.8Q254.1 57.7 254.5 57.0Q254.9 56.2 255.6 55.8Q256.3 55.4 257.3 55.4L257.3 55.4Q257.9 55.4 258.5 55.6Q259.0 55.8 259.5 56.2Q259.9 56.6 260.1 57.2Q260.4 57.8 260.4 58.7L260.4 58.7L260.4 59.2L255.9 59.2Q255.9 59.7 256.1 60.0L256.1 60.0Q256.3 60.4 256.6 60.6Q256.9 60.8 257.4 60.8L257.4 60.8Q257.7 60.8 258.0 60.7Q258.2 60.6 258.4 60.5Q258.6 60.3 258.7 60.0L258.7 60.0L260.3 60.3Q260.1 60.9 259.7 61.3Q259.3 61.7 258.7 61.9Q258.1 62.1 257.4 62.1ZM255.9 58.1L255.9 58.1L258.7 58.1Q258.6 57.8 258.5 57.5L258.5 57.5Q258.4 57.1 258.1 56.9Q257.8 56.7 257.3 56.7L257.3 56.7Q256.8 56.7 256.5 56.9Q256.2 57.1 256.0 57.5L256.0 57.5Q255.9 57.7 255.9 58.1ZM263.3 62L261.6 62L261.6 55.4L263.3 55.4L263.3 56.6L263.3 56.6Q263.5 56.0 263.9 55.7Q264.4 55.4 264.9 55.4L264.9 55.4Q265.1 55.4 265.2 55.4Q265.4 55.4 265.5 55.4L265.5 55.4L265.5 57.0Q265.4 56.9 265.1 56.9Q264.9 56.9 264.7 56.9L264.7 56.9Q264.3 56.9 264.0 57.1Q263.7 57.2 263.5 57.6Q263.3 57.9 263.3 58.3L263.3 58.3L263.3 62Z M271.2 62L269.3 62L269.3 53.3L271.3 53.3L274.1 57.7Q274.3 58.0 274.5 58.4Q274.7 58.8 275.0 59.3L275.0 59.3Q275.1 59.6 275.2 59.8L275.2 59.8Q275.2 59.6 275.2 59.4L275.2 59.4Q275.1 58.8 275.1 58.3Q275.1 57.8 275.1 57.5L275.1 57.5L275.1 53.3L276.9 53.3L276.9 62L274.9 62L272.4 58.0Q272.1 57.5 271.9 57.1Q271.7 56.7 271.4 56.2L271.4 56.2Q271.2 55.9 271.0 55.5L271.0 55.5Q271.1 55.8 271.1 56.2L271.1 56.2Q271.1 56.7 271.1 57.2Q271.2 57.7 271.2 58.0L271.2 58.0L271.2 62ZM281.4 62.1L281.4 62.1Q280.4 62.1 279.7 61.7Q278.9 61.3 278.6 60.5Q278.2 59.8 278.2 58.8L278.2 58.8Q278.2 57.7 278.6 57.0Q278.9 56.2 279.7 55.8Q280.4 55.4 281.4 55.4L281.4 55.4Q282.4 55.4 283.1 55.8Q283.8 56.2 284.2 57.0Q284.6 57.7 284.6 58.8L284.6 58.8Q284.6 59.8 284.2 60.5Q283.8 61.3 283.1 61.7Q282.4 62.1 281.4 62.1ZM281.4 60.7L281.4 60.7Q281.8 60.7 282.2 60.5Q282.5 60.2 282.6 59.8Q282.8 59.3 282.8 58.7L282.8 58.7Q282.8 58.2 282.6 57.7Q282.5 57.3 282.2 57.0Q281.8 56.8 281.4 56.8L281.4 56.8Q280.9 56.8 280.6 57.0Q280.3 57.3 280.1 57.7Q280.0 58.2 280.0 58.7L280.0 58.7Q280.0 59.3 280.1 59.8Q280.3 60.2 280.6 60.5Q280.9 60.7 281.4 60.7ZM287.8 55.4L289.1 55.4L289.1 56.8L287.8 56.8L287.8 60.1Q287.8 60.4 288.0 60.5Q288.1 60.7 288.4 60.7L288.4 60.7Q288.5 60.7 288.7 60.7Q288.9 60.6 289.0 60.6L289.0 60.6L289.2 61.9Q288.9 62.0 288.7 62.1Q288.4 62.1 288.1 62.1L288.1 62.1Q287.1 62.1 286.6 61.6Q286.1 61.1 286.1 60.2L286.1 60.2L286.1 56.8L285.2 56.8L285.2 55.4L286.1 55.4L286.1 53.9L287.8 53.9L287.8 55.4ZM293.2 62.1L293.2 62.1Q292.2 62.1 291.4 61.7Q290.7 61.3 290.3 60.6Q289.9 59.8 289.9 58.8L289.9 58.8Q289.9 57.7 290.3 57.0Q290.7 56.2 291.4 55.8Q292.1 55.4 293.1 55.4L293.1 55.4Q293.7 55.4 294.3 55.6Q294.8 55.8 295.2 56.2Q295.7 56.6 295.9 57.2Q296.1 57.8 296.1 58.7L296.1 58.7L296.1 59.2L291.7 59.2Q291.7 59.7 291.9 60.0L291.9 60.0Q292.0 60.4 292.4 60.6Q292.7 60.8 293.2 60.8L293.2 60.8Q293.5 60.8 293.7 60.7Q294.0 60.6 294.2 60.5Q294.4 60.3 294.4 60.0L294.4 60.0L296.0 60.3Q295.9 60.9 295.5 61.3Q295.1 61.7 294.5 61.9Q293.9 62.1 293.2 62.1ZM291.7 58.1L291.7 58.1L294.4 58.1Q294.4 57.8 294.3 57.5L294.3 57.5Q294.2 57.1 293.8 56.9Q293.5 56.7 293.1 56.7L293.1 56.7Q292.6 56.7 292.3 56.9Q292.0 57.1 291.8 57.5L291.8 57.5Q291.7 57.7 291.7 58.1ZM301.0 62.1L301.0 62.1Q300.5 62.1 300.1 61.9Q299.7 61.7 299.5 61.5Q299.3 61.2 299.2 61.0L299.2 61.0L299.1 61.0L299.1 62L297.3 62L297.3 53.3L299.1 53.3L299.1 56.6L299.2 56.6Q299.3 56.3 299.5 56.0Q299.7 55.7 300.1 55.6Q300.5 55.4 301.0 55.4L301.0 55.4Q301.8 55.4 302.4 55.7Q303.0 56.1 303.3 56.9Q303.7 57.6 303.7 58.7L303.7 58.7Q303.7 59.8 303.3 60.6Q303.0 61.3 302.4 61.7Q301.8 62.1 301.0 62.1ZM300.5 60.7L300.5 60.7Q300.9 60.7 301.2 60.4Q301.6 60.2 301.7 59.8Q301.9 59.3 301.9 58.7L301.9 58.7Q301.9 58.2 301.7 57.7Q301.6 57.3 301.2 57.0Q300.9 56.8 300.5 56.8L300.5 56.8Q300.0 56.8 299.7 57.0Q299.4 57.3 299.2 57.7Q299.1 58.1 299.1 58.7L299.1 58.7Q299.1 59.3 299.2 59.8Q299.4 60.2 299.7 60.5Q300.0 60.7 300.5 60.7ZM307.8 62.1L307.8 62.1Q306.9 62.1 306.1 61.7Q305.4 61.3 305.0 60.5Q304.6 59.8 304.6 58.8L304.6 58.8Q304.6 57.7 305.0 57.0Q305.4 56.2 306.1 55.8Q306.9 55.4 307.8 55.4L307.8 55.4Q308.8 55.4 309.5 55.8Q310.3 56.2 310.7 57.0Q311.0 57.7 311.0 58.8L311.0 58.8Q311.0 59.8 310.7 60.5Q310.3 61.3 309.5 61.7Q308.8 62.1 307.8 62.1ZM307.8 60.7L307.8 60.7Q308.3 60.7 308.6 60.5Q308.9 60.2 309.1 59.8Q309.3 59.3 309.3 58.7L309.3 58.7Q309.3 58.2 309.1 57.7Q308.9 57.3 308.6 57.0Q308.3 56.8 307.8 56.8L307.8 56.8Q307.4 56.8 307.1 57.0Q306.7 57.3 306.6 57.7Q306.4 58.2 306.4 58.7L306.4 58.7Q306.4 59.3 306.6 59.8Q306.7 60.2 307.1 60.5Q307.4 60.7 307.8 60.7ZM315.2 62.1L315.2 62.1Q314.2 62.1 313.5 61.7Q312.8 61.3 312.4 60.5Q312.0 59.8 312.0 58.8L312.0 58.8Q312.0 57.7 312.4 57.0Q312.8 56.2 313.5 55.8Q314.2 55.4 315.2 55.4L315.2 55.4Q316.2 55.4 316.9 55.8Q317.6 56.2 318.0 57.0Q318.4 57.7 318.4 58.8L318.4 58.8Q318.4 59.8 318.0 60.5Q317.6 61.3 316.9 61.7Q316.2 62.1 315.2 62.1ZM315.2 60.7L315.2 60.7Q315.7 60.7 316.0 60.5Q316.3 60.2 316.5 59.8Q316.6 59.3 316.6 58.7L316.6 58.7Q316.6 58.2 316.5 57.7Q316.3 57.3 316.0 57.0Q315.7 56.8 315.2 56.8L315.2 56.8Q314.7 56.8 314.4 57.0Q314.1 57.3 313.9 57.7Q313.8 58.2 313.8 58.7L313.8 58.7Q313.8 59.3 313.9 59.8Q314.1 60.2 314.4 60.5Q314.7 60.7 315.2 60.7ZM321.4 62L319.6 62L319.6 53.3L321.4 53.3L321.4 58.0L321.5 58.0L323.6 55.4L325.7 55.4L323.2 58.3L325.8 62L323.7 62L321.9 59.3L321.4 59.9L321.4 62Z "/></g><defs><clipPath id="satori_bc-id-2-0-1-2" clip-path="url(#satori_cp-id)"><path x="347" y="45" width="92" height="25" d="M353,45 h80 a6,6 0 0 1 6,6 v13 a6,6 0 0 1 -6,6 h-80 a6,6 0 0 1 -6,-6 v-13 a6,6 0 0 1 6,-6"/></clipPath></defs><mask id="satori_om-id-2-0-1-2"><rect x="348" y="46" width="90" height="23" fill="#fff" mask="url(#satori_om-id)"/><path width="92" height="25" fill="none" stroke="#000" stroke-width="2" d="M348.757,46.757 A6,6 0 0 1 353,45 h80 a6,6 0 0 1 6,6 v13 a6,6 0 0 1 -6,6 h-80 a6,6 0 0 1 -6,-6 v-13 A6,6 0 0 1 348.757,46.757"/></mask><path x="347" y="45" width="92" height="25" fill="#a78bfa15" d="M353,45 h80 a6,6 0 0 1 6,6 v13 a6,6 0 0 1 -6,6 h-80 a6,6 0 0 1 -6,-6 v-13 a6,6 0 0 1 6,-6" clip-path="url(#satori_cp-id)" mask="url(#satori_om-id)"/><path width="92" height="25" clip-path="url(#satori_bc-id-2-0-1-2)" fill="none" stroke="#a78bfa35" stroke-width="2" d="M348.757,46.757 A6,6 0 0 1 353,45 h80 a6,6 0 0 1 6,6 v13 a6,6 0 0 1 -6,6 h-80 a6,6 0 0 1 -6,-6 v-13 A6,6 0 0 1 348.757,46.757"/><g mask="url(#satori_om-id)" clip-path="url(#satori_cp-id)"><path fill="rgba(225,220,255,0.85)" d="M364.3 62.1L364.3 62.1Q363.0 62.1 362.2 61.4Q361.4 60.7 361.4 59.4L361.4 59.4L361.4 58.9L363.2 58.9L363.2 59.4Q363.2 60.0 363.5 60.4Q363.8 60.7 364.3 60.7L364.3 60.7Q364.8 60.7 365.1 60.4Q365.5 60.0 365.5 59.4L365.5 59.4L365.5 53.3L367.2 53.3L367.2 59.4Q367.2 60.7 366.4 61.4Q365.7 62.1 364.3 62.1ZM370.6 62.1L370.6 62.1Q370.0 62.1 369.5 61.9Q369.0 61.7 368.7 61.3Q368.4 60.8 368.4 60.2L368.4 60.2Q368.4 59.6 368.6 59.3Q368.8 58.9 369.2 58.7Q369.5 58.4 370.0 58.3Q370.4 58.2 370.9 58.2L370.9 58.2Q371.5 58.1 371.8 58.0Q372.2 58.0 372.3 57.9Q372.5 57.8 372.5 57.6L372.5 57.6L372.5 57.5Q372.5 57.3 372.4 57.1Q372.2 56.9 372.0 56.8Q371.8 56.7 371.4 56.7L371.4 56.7Q371.1 56.7 370.9 56.8Q370.6 56.9 370.4 57.0Q370.3 57.2 370.2 57.4L370.2 57.4L368.6 57.2Q368.8 56.6 369.2 56.2Q369.6 55.8 370.1 55.6Q370.7 55.4 371.5 55.4L371.5 55.4Q372.0 55.4 372.5 55.5Q373.0 55.6 373.4 55.9Q373.8 56.1 374.0 56.6Q374.2 57.0 374.2 57.6L374.2 57.6L374.2 62L372.6 62L372.6 61.1L372.5 61.1Q372.3 61.4 372.1 61.6Q371.8 61.9 371.5 62.0Q371.1 62.1 370.6 62.1ZM371.1 60.9L371.1 60.9Q371.5 60.9 371.8 60.7Q372.1 60.6 372.3 60.3Q372.5 60.0 372.5 59.7L372.5 59.7L372.5 58.9Q372.4 59.0 372.3 59.1Q372.1 59.1 371.9 59.1Q371.7 59.2 371.5 59.2Q371.3 59.2 371.2 59.2L371.2 59.2Q370.9 59.3 370.6 59.4Q370.4 59.5 370.2 59.7Q370.1 59.8 370.1 60.1L370.1 60.1Q370.1 60.4 370.2 60.5Q370.4 60.7 370.6 60.8Q370.8 60.9 371.1 60.9ZM379.6 62L377.6 62L375.2 55.4L377.0 55.4L378.1 58.8Q378.3 59.5 378.5 60.1L378.5 60.1Q378.5 60.4 378.6 60.6L378.6 60.6Q378.7 60.4 378.7 60.1L378.7 60.1Q378.9 59.5 379.1 58.8L379.1 58.8L380.1 55.4L382.0 55.4L379.6 62ZM384.8 62.1L384.8 62.1Q384.1 62.1 383.6 61.9Q383.1 61.7 382.9 61.3Q382.6 60.8 382.6 60.2L382.6 60.2Q382.6 59.6 382.8 59.3Q383.0 58.9 383.3 58.7Q383.7 58.4 384.1 58.3Q384.6 58.2 385.0 58.2L385.0 58.2Q385.6 58.1 386.0 58.0Q386.3 58.0 386.5 57.9Q386.6 57.8 386.6 57.6L386.6 57.6L386.6 57.5Q386.6 57.3 386.5 57.1Q386.4 56.9 386.2 56.8Q385.9 56.7 385.6 56.7L385.6 56.7Q385.3 56.7 385.0 56.8Q384.8 56.9 384.6 57.0Q384.4 57.2 384.4 57.4L384.4 57.4L382.8 57.2Q382.9 56.6 383.3 56.2Q383.7 55.8 384.3 55.6Q384.9 55.4 385.6 55.4L385.6 55.4Q386.1 55.4 386.6 55.5Q387.1 55.6 387.5 55.9Q387.9 56.1 388.2 56.6Q388.4 57.0 388.4 57.6L388.4 57.6L388.4 62L386.7 62L386.7 61.1L386.7 61.1Q386.5 61.4 386.2 61.6Q386.0 61.9 385.6 62.0Q385.2 62.1 384.8 62.1ZM385.3 60.9L385.3 60.9Q385.7 60.9 386.0 60.7Q386.3 60.6 386.5 60.3Q386.6 60.0 386.6 59.7L386.6 59.7L386.6 58.9Q386.6 59.0 386.4 59.1Q386.3 59.1 386.1 59.1Q385.9 59.2 385.7 59.2Q385.5 59.2 385.3 59.2L385.3 59.2Q385.0 59.3 384.8 59.4Q384.5 59.5 384.4 59.7Q384.3 59.8 384.3 60.1L384.3 60.1Q384.3 60.4 384.4 60.5Q384.5 60.7 384.7 60.8Q385.0 60.9 385.3 60.9ZM393.1 62.1L393.1 62.1Q392.1 62.1 391.3 61.8Q390.5 61.5 390.1 60.9Q389.7 60.2 389.6 59.3L389.6 59.3L391.4 59.3Q391.4 59.7 391.6 60.0Q391.9 60.3 392.3 60.5Q392.6 60.6 393.1 60.6L393.1 60.6Q393.6 60.6 394.0 60.5Q394.3 60.3 394.5 60.1Q394.7 59.8 394.7 59.5L394.7 59.5Q394.7 59.2 394.5 59.0Q394.3 58.8 394.0 58.7Q393.7 58.5 393.2 58.4L393.2 58.4L392.2 58.2Q391.1 57.9 390.5 57.3Q389.9 56.7 389.9 55.8L389.9 55.8Q389.9 55.0 390.3 54.4Q390.7 53.8 391.5 53.5Q392.2 53.2 393.2 53.2L393.2 53.2Q394.1 53.2 394.8 53.5Q395.6 53.8 396.0 54.4Q396.4 55.0 396.4 55.8L396.4 55.8L394.7 55.8Q394.6 55.2 394.2 54.9Q393.8 54.7 393.1 54.7L393.1 54.7Q392.7 54.7 392.4 54.8Q392.0 54.9 391.9 55.1Q391.7 55.4 391.7 55.7L391.7 55.7Q391.7 56.0 391.9 56.2Q392.1 56.4 392.4 56.5Q392.7 56.7 393.1 56.8L393.1 56.8L393.9 57.0Q394.4 57.1 394.9 57.3Q395.4 57.5 395.8 57.8Q396.1 58.1 396.3 58.5Q396.5 59.0 396.5 59.5L396.5 59.5Q396.5 60.3 396.1 60.9Q395.7 61.5 394.9 61.8Q394.2 62.1 393.1 62.1ZM400.7 62.1L400.7 62.1Q399.7 62.1 399.0 61.7Q398.3 61.3 397.9 60.5Q397.5 59.8 397.5 58.8L397.5 58.8Q397.5 57.7 397.9 57.0Q398.3 56.2 399.0 55.8Q399.7 55.4 400.7 55.4L400.7 55.4Q401.3 55.4 401.8 55.5Q402.2 55.7 402.6 56.0Q403.0 56.2 403.3 56.6Q403.5 57.0 403.6 57.5L403.6 57.5L402.0 57.9Q401.9 57.6 401.8 57.4Q401.7 57.2 401.5 57.0Q401.4 56.9 401.2 56.8Q400.9 56.8 400.7 56.8L400.7 56.8Q400.2 56.8 399.9 57.0Q399.6 57.3 399.4 57.7Q399.3 58.2 399.3 58.7L399.3 58.7Q399.3 59.3 399.4 59.8Q399.6 60.2 399.9 60.5Q400.2 60.7 400.7 60.7L400.7 60.7Q400.9 60.7 401.2 60.7Q401.4 60.6 401.5 60.4Q401.7 60.3 401.8 60.1Q401.9 59.9 402.0 59.6L402.0 59.6L403.6 59.9Q403.5 60.4 403.3 60.8Q403.0 61.2 402.6 61.5Q402.3 61.8 401.8 62.0Q401.3 62.1 400.7 62.1ZM406.6 62L404.8 62L404.8 55.4L406.5 55.4L406.5 56.6L406.6 56.6Q406.8 56.0 407.2 55.7Q407.6 55.4 408.2 55.4L408.2 55.4Q408.3 55.4 408.5 55.4Q408.6 55.4 408.7 55.4L408.7 55.4L408.7 57.0Q408.6 56.9 408.4 56.9Q408.2 56.9 408.0 56.9L408.0 56.9Q407.6 56.9 407.2 57.1Q406.9 57.2 406.7 57.6Q406.6 57.9 406.6 58.3L406.6 58.3L406.6 62ZM411.5 62L409.7 62L409.7 55.4L411.5 55.4L411.5 62ZM410.6 54.6L410.6 54.6Q410.2 54.6 409.9 54.3Q409.6 54.1 409.6 53.7L409.6 53.7Q409.6 53.3 409.9 53.1Q410.2 52.8 410.6 52.8L410.6 52.8Q411.0 52.8 411.3 53.0Q411.5 53.3 411.5 53.7L411.5 53.7Q411.5 54.1 411.3 54.3Q411.0 54.6 410.6 54.6ZM414.7 64.4L412.9 64.4L412.9 55.4L414.7 55.4L414.7 56.6L414.8 56.6Q414.9 56.3 415.1 56.0Q415.3 55.7 415.7 55.6Q416.1 55.4 416.6 55.4L416.6 55.4Q417.4 55.4 418.0 55.7Q418.6 56.1 418.9 56.9Q419.3 57.6 419.3 58.7L419.3 58.7Q419.3 59.8 418.9 60.6Q418.6 61.3 418.0 61.7Q417.4 62.1 416.6 62.1L416.6 62.1Q416.1 62.1 415.7 61.9Q415.3 61.7 415.1 61.5Q414.9 61.2 414.8 61.0L414.8 61.0L414.7 61.0L414.7 64.4ZM416.1 60.7L416.1 60.7Q416.5 60.7 416.8 60.4Q417.2 60.2 417.3 59.8Q417.5 59.3 417.5 58.7L417.5 58.7Q417.5 58.2 417.3 57.7Q417.2 57.3 416.9 57.0Q416.5 56.8 416.1 56.8L416.1 56.8Q415.6 56.8 415.3 57.0Q415.0 57.3 414.8 57.7Q414.7 58.1 414.7 58.7L414.7 58.7Q414.7 59.3 414.8 59.8Q415 60.2 415.3 60.5Q415.6 60.7 416.1 60.7ZM422.5 55.4L423.8 55.4L423.8 56.8L422.5 56.8L422.5 60.1Q422.5 60.4 422.7 60.5Q422.8 60.7 423.1 60.7L423.1 60.7Q423.2 60.7 423.4 60.7Q423.6 60.6 423.7 60.6L423.7 60.6L423.9 61.9Q423.7 62.0 423.4 62.1Q423.1 62.1 422.8 62.1L422.8 62.1Q421.8 62.1 421.3 61.6Q420.8 61.1 420.8 60.2L420.8 60.2L420.8 56.8L419.9 56.8L419.9 55.4L420.8 55.4L420.8 53.9L422.5 53.9L422.5 55.4Z "/></g><defs><clipPath id="satori_bc-id-2-0-1-3" clip-path="url(#satori_cp-id)"><path x="446" y="45" width="63" height="25" d="M452,45 h51 a6,6 0 0 1 6,6 v13 a6,6 0 0 1 -6,6 h-51 a6,6 0 0 1 -6,-6 v-13 a6,6 0 0 1 6,-6"/></clipPath></defs><mask id="satori_om-id-2-0-1-3"><rect x="447" y="46" width="61" height="23" fill="#fff" mask="url(#satori_om-id)"/><path width="63" height="25" fill="none" stroke="#000" stroke-width="2" d="M447.757,46.757 A6,6 0 0 1 452,45 h51 a6,6 0 0 1 6,6 v13 a6,6 0 0 1 -6,6 h-51 a6,6 0 0 1 -6,-6 v-13 A6,6 0 0 1 447.757,46.757"/></mask><path x="446" y="45" width="63" height="25" fill="#a78bfa15" d="M452,45 h51 a6,6 0 0 1 6,6 v13 a6,6 0 0 1 -6,6 h-51 a6,6 0 0 1 -6,-6 v-13 a6,6 0 0 1 6,-6" clip-path="url(#satori_cp-id)" mask="url(#satori_om-id)"/><path width="63" height="25" clip-path="url(#satori_bc-id-2-0-1-3)" fill="none" stroke="#a78bfa35" stroke-width="2" d="M447.757,46.757 A6,6 0 0 1 452,45 h51 a6,6 0 0 1 6,6 v13 a6,6 0 0 1 -6,6 h-51 a6,6 0 0 1 -6,-6 v-13 A6,6 0 0 1 447.757,46.757"/><g mask="url(#satori_om-id)" clip-path="url(#satori_cp-id)"><path fill="rgba(225,220,255,0.85)" d="M462.6 62L460.8 62L460.8 53.3L462.6 53.3L462.6 56.8L466.4 56.8L466.4 53.3L468.2 53.3L468.2 62L466.4 62L466.4 58.3L462.6 58.3L462.6 62ZM472.1 54.8L469.4 54.8L469.4 53.3L476.5 53.3L476.5 54.8L473.9 54.8L473.9 62L472.1 62L472.1 54.8ZM479.5 62L477.8 62L477.8 53.3L480.5 53.3L481.9 57.3Q482.0 57.6 482.1 58.0Q482.2 58.4 482.4 59.0L482.4 59.0Q482.5 59.5 482.6 59.9L482.6 59.9Q482.7 59.5 482.8 59.0L482.8 59.0Q482.9 58.5 483.0 58.0Q483.1 57.6 483.2 57.3L483.2 57.3L484.6 53.3L487.4 53.3L487.4 62L485.6 62L485.6 57.9Q485.6 57.6 485.6 57.2Q485.6 56.7 485.6 56.2Q485.6 55.8 485.6 55.3L485.6 55.3Q485.6 55.0 485.6 54.8L485.6 54.8Q485.6 55.1 485.5 55.3L485.5 55.3Q485.4 55.8 485.2 56.3Q485.1 56.8 485.0 57.2Q484.9 57.6 484.8 57.9L484.8 57.9L483.3 62L481.8 62L480.3 57.9Q480.3 57.6 480.1 57.2Q480.0 56.8 479.9 56.3Q479.7 55.8 479.6 55.3L479.6 55.3Q479.5 55.1 479.5 54.9L479.5 54.9Q479.5 55.0 479.5 55.2L479.5 55.2Q479.5 55.7 479.5 56.2Q479.5 56.7 479.5 57.2Q479.5 57.6 479.5 57.9L479.5 57.9L479.5 62ZM494.5 62L488.9 62L488.9 53.3L490.7 53.3L490.7 60.5L494.5 60.5L494.5 62Z "/></g><defs><clipPath id="satori_bc-id-2-0-1-4" clip-path="url(#satori_cp-id)"><path x="516" y="45" width="53" height="25" d="M522,45 h41 a6,6 0 0 1 6,6 v13 a6,6 0 0 1 -6,6 h-41 a6,6 0 0 1 -6,-6 v-13 a6,6 0 0 1 6,-6"/></clipPath></defs><mask id="satori_om-id-2-0-1-4"><rect x="517" y="46" width="51" height="23" fill="#fff" mask="url(#satori_om-id)"/><path width="53" height="25" fill="none" stroke="#000" stroke-width="2" d="M517.757,46.757 A6,6 0 0 1 522,45 h41 a6,6 0 0 1 6,6 v13 a6,6 0 0 1 -6,6 h-41 a6,6 0 0 1 -6,-6 v-13 A6,6 0 0 1 517.757,46.757"/></mask><path x="516" y="45" width="53" height="25" fill="#a78bfa15" d="M522,45 h41 a6,6 0 0 1 6,6 v13 a6,6 0 0 1 -6,6 h-41 a6,6 0 0 1 -6,-6 v-13 a6,6 0 0 1 6,-6" clip-path="url(#satori_cp-id)" mask="url(#satori_om-id)"/><path width="53" height="25" clip-path="url(#satori_bc-id-2-0-1-4)" fill="none" stroke="#a78bfa35" stroke-width="2" d="M517.757,46.757 A6,6 0 0 1 522,45 h41 a6,6 0 0 1 6,6 v13 a6,6 0 0 1 -6,6 h-41 a6,6 0 0 1 -6,-6 v-13 A6,6 0 0 1 517.757,46.757"/><g mask="url(#satori_om-id)" clip-path="url(#satori_cp-id)"><path fill="rgba(225,220,255,0.85)" d="M533.9 62L533.9 62L530.8 62L530.8 53.3L533.9 53.3Q535.2 53.3 536.1 53.8Q537.1 54.3 537.6 55.3Q538.1 56.3 538.1 57.6L538.1 57.6Q538.1 59.0 537.6 60.0Q537.1 61.0 536.1 61.5Q535.2 62 533.9 62ZM532.6 54.8L532.6 60.5L533.8 60.5Q534.6 60.5 535.2 60.2Q535.8 59.9 536.0 59.2Q536.3 58.6 536.3 57.6L536.3 57.6Q536.3 56.7 536.0 56.0Q535.8 55.4 535.2 55.1Q534.6 54.8 533.8 54.8L533.8 54.8L532.6 54.8ZM541.2 62.1L541.2 62.1Q540.6 62.1 540.1 61.9Q539.6 61.7 539.3 61.3Q539.1 60.8 539.1 60.2L539.1 60.2Q539.1 59.6 539.3 59.3Q539.5 58.9 539.8 58.7Q540.2 58.4 540.6 58.3Q541.1 58.2 541.5 58.2L541.5 58.2Q542.1 58.1 542.5 58.0Q542.8 58.0 543.0 57.9Q543.1 57.8 543.1 57.6L543.1 57.6L543.1 57.5Q543.1 57.3 543.0 57.1Q542.9 56.9 542.7 56.8Q542.4 56.7 542.1 56.7L542.1 56.7Q541.8 56.7 541.5 56.8Q541.3 56.9 541.1 57.0Q540.9 57.2 540.9 57.4L540.9 57.4L539.3 57.2Q539.4 56.6 539.8 56.2Q540.2 55.8 540.8 55.6Q541.4 55.4 542.1 55.4L542.1 55.4Q542.6 55.4 543.1 55.5Q543.6 55.6 544.0 55.9Q544.4 56.1 544.7 56.6Q544.9 57.0 544.9 57.6L544.9 57.6L544.9 62L543.2 62L543.2 61.1L543.2 61.1Q543.0 61.4 542.7 61.6Q542.5 61.9 542.1 62.0Q541.7 62.1 541.2 62.1ZM541.7 60.9L541.7 60.9Q542.2 60.9 542.5 60.7Q542.8 60.6 543.0 60.3Q543.1 60.0 543.1 59.7L543.1 59.7L543.1 58.9Q543.1 59.0 542.9 59.1Q542.7 59.1 542.6 59.1Q542.4 59.2 542.2 59.2Q542.0 59.2 541.8 59.2L541.8 59.2Q541.5 59.3 541.3 59.4Q541.0 59.5 540.9 59.7Q540.8 59.8 540.8 60.1L540.8 60.1Q540.8 60.4 540.9 60.5Q541.0 60.7 541.2 60.8Q541.5 60.9 541.7 60.9ZM548.1 62L546.4 62L546.4 55.4L548.1 55.4L548.1 56.6L548.2 56.6Q548.3 56.0 548.8 55.7Q549.2 55.4 549.7 55.4L549.7 55.4Q549.9 55.4 550.0 55.4Q550.2 55.4 550.3 55.4L550.3 55.4L550.3 57.0Q550.2 56.9 550.0 56.9Q549.7 56.9 549.5 56.9L549.5 56.9Q549.1 56.9 548.8 57.1Q548.5 57.2 548.3 57.6Q548.1 57.9 548.1 58.3L548.1 58.3L548.1 62ZM553.3 55.4L554.5 55.4L554.5 56.8L553.3 56.8L553.3 60.1Q553.3 60.4 553.4 60.5Q553.6 60.7 553.9 60.7L553.9 60.7Q554.0 60.7 554.2 60.7Q554.4 60.6 554.5 60.6L554.5 60.6L554.7 61.9Q554.4 62.0 554.1 62.1Q553.8 62.1 553.6 62.1L553.6 62.1Q552.6 62.1 552.1 61.6Q551.5 61.1 551.5 60.2L551.5 60.2L551.5 56.8L550.6 56.8L550.6 55.4L551.5 55.4L551.5 53.9L553.3 53.9L553.3 55.4Z "/></g><mask id="satori_om-id-2-1"><rect x="33" y="84" width="794" height="25" fill="#fff" mask="url(#satori_om-id)"/></mask><mask id="satori_om-id-2-1-0"><rect x="33" y="91" width="80" height="12" fill="#fff" mask="url(#satori_om-id)"/></mask><g mask="url(#satori_om-id)" clip-path="url(#satori_cp-id)"><path fill="#60a5fa" d="M35.1 101L33.7 101L33.7 93.7L38.4 93.7L38.4 95.0L35.1 95.0L35.1 97.0L38.1 97.0L38.1 98.2L35.1 98.2L35.1 101ZM42.0 101L40.5 101L40.5 93.7L43.4 93.7Q44.2 93.7 44.8 94.0Q45.4 94.3 45.7 94.8Q46.0 95.4 46.0 96.1Q46.0 96.8 45.7 97.3Q45.3 97.9 44.8 98.1L44.8 98.1Q44.7 98.1 44.7 98.2L44.7 98.2L46.2 101L44.6 101L43.2 98.4L42.0 98.4L42.0 101ZM42.0 95.0L42.0 97.2L43.1 97.2Q43.6 97.2 43.8 97.1Q44.1 96.9 44.3 96.7Q44.4 96.5 44.4 96.1L44.4 96.1Q44.4 95.7 44.3 95.5Q44.1 95.2 43.8 95.1Q43.5 95.0 43.1 95.0L43.1 95.0L42.0 95.0ZM49.3 101L47.7 101L50.2 93.7L52.1 93.7L54.7 101L53.0 101L52.4 99.3L49.9 99.3L49.3 101ZM50.2 98.1L52.1 98.1L51.8 97.5Q51.6 96.8 51.4 96L51.4 96Q51.3 95.5 51.1 94.9L51.1 94.9Q51.0 95.5 50.8 96.0L50.8 96.0Q50.6 96.8 50.4 97.5L50.4 97.5L50.2 98.1ZM58.0 101L56.6 101L56.6 93.7L58.8 93.7L60.0 97.1Q60.1 97.3 60.2 97.7Q60.3 98.0 60.4 98.5L60.4 98.5Q60.5 98.9 60.6 99.3L60.6 99.3Q60.7 98.9 60.7 98.5L60.7 98.5Q60.8 98.1 60.9 97.7Q61.0 97.3 61.1 97.1L61.1 97.1L62.3 93.7L64.6 93.7L64.6 101L63.1 101L63.1 97.6Q63.1 97.3 63.1 97.0Q63.1 96.6 63.1 96.2Q63.1 95.8 63.1 95.4L63.1 95.4Q63.1 95.2 63.1 95.0L63.1 95.0Q63.1 95.2 63.0 95.4L63.0 95.4Q62.9 95.9 62.8 96.3Q62.7 96.7 62.6 97.0Q62.5 97.3 62.4 97.6L62.4 97.6L61.2 101L59.9 101L58.7 97.6Q58.6 97.3 58.5 97.0Q58.4 96.7 58.3 96.3Q58.2 95.9 58.1 95.4L58.1 95.4Q58.0 95.2 58.0 95.1L58.0 95.1Q58.0 95.2 58.0 95.4L58.0 95.4Q58.0 95.8 58.0 96.2Q58.0 96.6 58.0 97.0Q58.0 97.3 58.0 97.6L58.0 97.6L58.0 101ZM71.8 101L66.9 101L66.9 93.7L71.7 93.7L71.7 95.0L68.4 95.0L68.4 96.7L71.5 96.7L71.5 97.9L68.4 97.9L68.4 99.8L71.8 99.8L71.8 101ZM77.2 101L75.5 101L73.5 93.7L75.2 93.7L76.0 97.3Q76.1 97.8 76.2 98.3Q76.3 98.8 76.4 99.3L76.4 99.3Q76.4 99.4 76.4 99.5L76.4 99.5Q76.4 99.4 76.4 99.3L76.4 99.3Q76.5 98.8 76.6 98.3Q76.7 97.8 76.8 97.3L76.8 97.3L77.7 93.7L79.3 93.7L80.1 97.3Q80.3 97.8 80.3 98.3Q80.4 98.8 80.5 99.3L80.5 99.3Q80.5 99.4 80.6 99.5L80.6 99.5Q80.6 99.4 80.6 99.3L80.6 99.3Q80.7 98.8 80.8 98.3Q80.9 97.8 81.0 97.3L81.0 97.3L81.8 93.7L83.4 93.7L81.5 101L79.8 101L78.8 97.3Q78.6 96.7 78.5 95.9L78.5 95.9Q78.5 95.7 78.5 95.5L78.5 95.5Q78.4 95.7 78.4 95.9L78.4 95.9Q78.3 96.6 78.2 97.3L78.2 97.3L77.2 101ZM88.5 101.1L88.5 101.1Q87.6 101.1 86.8 100.7Q86.0 100.2 85.6 99.4Q85.1 98.5 85.1 97.4L85.1 97.4Q85.1 96.2 85.6 95.3Q86.0 94.5 86.8 94.1Q87.6 93.6 88.5 93.6L88.5 93.6Q89.5 93.6 90.3 94.1Q91.0 94.5 91.5 95.3Q91.9 96.2 91.9 97.4L91.9 97.4Q91.9 98.5 91.5 99.4Q91.0 100.2 90.3 100.7Q89.5 101.1 88.5 101.1ZM88.5 99.8L88.5 99.8Q89.1 99.8 89.5 99.5Q89.9 99.2 90.2 98.7Q90.4 98.1 90.4 97.4L90.4 97.4Q90.4 96.6 90.2 96.0Q89.9 95.5 89.5 95.2Q89.1 95.0 88.5 95.0L88.5 95.0Q88.0 95.0 87.5 95.2Q87.1 95.5 86.9 96.0Q86.6 96.6 86.6 97.4L86.6 97.4Q86.6 98.1 86.9 98.7Q87.1 99.2 87.5 99.5Q88.0 99.8 88.5 99.8ZM95.5 101L94.0 101L94.0 93.7L96.9 93.7Q97.7 93.7 98.3 94.0Q98.9 94.3 99.2 94.8Q99.5 95.4 99.5 96.1Q99.5 96.8 99.2 97.3Q98.9 97.9 98.3 98.1L98.3 98.1Q98.2 98.1 98.2 98.2L98.2 98.2L99.7 101L98.1 101L96.7 98.4L95.5 98.4L95.5 101ZM95.5 95.0L95.5 97.2L96.6 97.2Q97.1 97.2 97.3 97.1Q97.6 96.9 97.8 96.7Q97.9 96.5 97.9 96.1L97.9 96.1Q97.9 95.7 97.8 95.5Q97.6 95.2 97.3 95.1Q97.1 95.0 96.6 95.0L96.6 95.0L95.5 95.0ZM103.1 101L101.6 101L101.6 93.7L103.1 93.7L103.1 95.7L103.1 97.4Q103.1 97.3 103.1 97.3L103.1 97.3Q103.4 96.9 103.6 96.6Q103.9 96.2 104.2 95.8L104.2 95.8L106.0 93.7L107.8 93.7L105.1 96.9L107.9 101L106.1 101L104.1 97.9L103.1 98.9L103.1 101ZM112.5 101.1L112.5 101.1Q111.6 101.1 110.9 100.8Q110.3 100.6 109.9 100.0Q109.6 99.5 109.5 98.7L109.5 98.7L111.0 98.7Q111.0 99.1 111.2 99.4Q111.4 99.6 111.7 99.7Q112.0 99.8 112.4 99.8L112.4 99.8Q112.8 99.8 113.1 99.7Q113.4 99.6 113.6 99.4Q113.8 99.2 113.8 98.9L113.8 98.9Q113.8 98.7 113.6 98.5Q113.5 98.3 113.2 98.2Q112.9 98.1 112.5 98.0L112.5 98.0L111.7 97.8Q110.8 97.6 110.3 97.1Q109.7 96.6 109.7 95.8L109.7 95.8Q109.7 95.2 110.1 94.7Q110.5 94.2 111.1 93.9Q111.7 93.6 112.5 93.6L112.5 93.6Q113.3 93.6 113.9 93.9Q114.5 94.2 114.8 94.7Q115.2 95.2 115.2 95.8L115.2 95.8L113.7 95.8Q113.7 95.4 113.4 95.1Q113.0 94.9 112.5 94.9L112.5 94.9Q112.1 94.9 111.8 95.0Q111.6 95.1 111.4 95.3Q111.3 95.5 111.3 95.7L111.3 95.7Q111.3 96.0 111.4 96.2Q111.6 96.3 111.9 96.5Q112.1 96.6 112.4 96.6L112.4 96.6L113.1 96.8Q113.6 96.9 113.9 97.1Q114.3 97.3 114.6 97.5Q114.9 97.8 115.1 98.1Q115.3 98.5 115.3 98.9L115.3 98.9Q115.3 99.6 114.9 100.1Q114.6 100.6 114.0 100.8Q113.3 101.1 112.5 101.1Z "/></g><mask id="satori_om-id-2-1-1"><rect x="129" y="84" width="249" height="25" fill="#fff" mask="url(#satori_om-id)"/></mask><defs><clipPath id="satori_bc-id-2-1-1-0" clip-path="url(#satori_cp-id)"><path x="129" y="84" width="103" height="25" d="M135,84 h91 a6,6 0 0 1 6,6 v13 a6,6 0 0 1 -6,6 h-91 a6,6 0 0 1 -6,-6 v-13 a6,6 0 0 1 6,-6"/></clipPath></defs><mask id="satori_om-id-2-1-1-0"><rect x="130" y="85" width="101" height="23" fill="#fff" mask="url(#satori_om-id)"/><path width="103" height="25" fill="none" stroke="#000" stroke-width="2" d="M130.757,85.757 A6,6 0 0 1 135,84 h91 a6,6 0 0 1 6,6 v13 a6,6 0 0 1 -6,6 h-91 a6,6 0 0 1 -6,-6 v-13 A6,6 0 0 1 130.757,85.757"/></mask><path x="129" y="84" width="103" height="25" fill="#60a5fa15" d="M135,84 h91 a6,6 0 0 1 6,6 v13 a6,6 0 0 1 -6,6 h-91 a6,6 0 0 1 -6,-6 v-13 a6,6 0 0 1 6,-6" clip-path="url(#satori_cp-id)" mask="url(#satori_om-id)"/><path width="103" height="25" clip-path="url(#satori_bc-id-2-1-1-0)" fill="none" stroke="#60a5fa35" stroke-width="2" d="M130.757,85.757 A6,6 0 0 1 135,84 h91 a6,6 0 0 1 6,6 v13 a6,6 0 0 1 -6,6 h-91 a6,6 0 0 1 -6,-6 v-13 A6,6 0 0 1 130.757,85.757"/><g mask="url(#satori_om-id)" clip-path="url(#satori_cp-id)"><path fill="rgba(225,220,255,0.85)" d="M145.6 101L143.8 101L143.8 92.3L147.2 92.3Q148.2 92.3 148.9 92.6Q149.6 93.0 150.0 93.6Q150.3 94.3 150.3 95.1Q150.3 96.0 149.9 96.6Q149.6 97.2 148.9 97.5L148.9 97.5Q148.8 97.6 148.8 97.6L148.8 97.6L150.6 101L148.6 101L147.0 97.9L145.6 97.9L145.6 101ZM145.6 93.7L145.6 96.4L146.9 96.4Q147.4 96.4 147.8 96.3Q148.1 96.1 148.3 95.8Q148.5 95.5 148.5 95.1L148.5 95.1Q148.5 94.7 148.3 94.4Q148.1 94.1 147.8 93.9Q147.4 93.7 146.9 93.7L146.9 93.7L145.6 93.7ZM154.6 101.1L154.6 101.1Q153.6 101.1 152.9 100.7Q152.1 100.3 151.7 99.6Q151.4 98.8 151.4 97.8L151.4 97.8Q151.4 96.7 151.7 96.0Q152.1 95.2 152.8 94.8Q153.5 94.4 154.5 94.4L154.5 94.4Q155.1 94.4 155.7 94.6Q156.3 94.8 156.7 95.2Q157.1 95.6 157.3 96.2Q157.6 96.8 157.6 97.7L157.6 97.7L157.6 98.2L153.1 98.2Q153.1 98.7 153.3 99.0L153.3 99.0Q153.5 99.4 153.8 99.6Q154.2 99.8 154.6 99.8L154.6 99.8Q154.9 99.8 155.2 99.7Q155.4 99.6 155.6 99.5Q155.8 99.3 155.9 99.0L155.9 99.0L157.5 99.3Q157.3 99.9 156.9 100.3Q156.5 100.7 155.9 100.9Q155.4 101.1 154.6 101.1ZM153.1 97.1L153.1 97.1L155.9 97.1Q155.8 96.8 155.7 96.5L155.7 96.5Q155.6 96.1 155.3 95.9Q155.0 95.7 154.5 95.7L154.5 95.7Q154.1 95.7 153.7 95.9Q153.4 96.1 153.3 96.5L153.3 96.5Q153.1 96.7 153.1 97.1ZM160.6 101.1L160.6 101.1Q160.0 101.1 159.5 100.9Q159.0 100.7 158.7 100.3Q158.4 99.8 158.4 99.2L158.4 99.2Q158.4 98.6 158.6 98.3Q158.8 97.9 159.2 97.7Q159.5 97.4 160.0 97.3Q160.4 97.2 160.9 97.2L160.9 97.2Q161.5 97.1 161.8 97.0Q162.2 97.0 162.3 96.9Q162.5 96.8 162.5 96.6L162.5 96.6L162.5 96.5Q162.5 96.3 162.4 96.1Q162.3 95.9 162.0 95.8Q161.8 95.7 161.5 95.7L161.5 95.7Q161.1 95.7 160.9 95.8Q160.6 95.9 160.5 96.0Q160.3 96.2 160.2 96.4L160.2 96.4L158.6 96.2Q158.8 95.6 159.2 95.2Q159.6 94.8 160.2 94.6Q160.7 94.4 161.5 94.4L161.5 94.4Q162.0 94.4 162.5 94.5Q163.0 94.6 163.4 94.9Q163.8 95.1 164.0 95.6Q164.2 96.0 164.2 96.6L164.2 96.6L164.2 101L162.6 101L162.6 100.1L162.5 100.1Q162.4 100.4 162.1 100.6Q161.8 100.9 161.5 101.0Q161.1 101.1 160.6 101.1ZM161.1 99.9L161.1 99.9Q161.5 99.9 161.8 99.7Q162.1 99.6 162.3 99.3Q162.5 99.0 162.5 98.7L162.5 98.7L162.5 97.9Q162.4 98.0 162.3 98.1Q162.1 98.1 161.9 98.1Q161.7 98.2 161.5 98.2Q161.3 98.2 161.2 98.2L161.2 98.2Q160.9 98.3 160.6 98.4Q160.4 98.5 160.3 98.7Q160.1 98.8 160.1 99.1L160.1 99.1Q160.1 99.4 160.2 99.5Q160.4 99.7 160.6 99.8Q160.8 99.9 161.1 99.9ZM168.7 101.1L168.7 101.1Q167.7 101.1 167.0 100.7Q166.3 100.3 165.9 99.5Q165.5 98.8 165.5 97.8L165.5 97.8Q165.5 96.7 165.9 96.0Q166.3 95.2 167.0 94.8Q167.7 94.4 168.7 94.4L168.7 94.4Q169.3 94.4 169.7 94.5Q170.2 94.7 170.6 95.0Q171.0 95.2 171.2 95.6Q171.5 96.0 171.6 96.5L171.6 96.5L170.0 96.9Q169.9 96.6 169.8 96.4Q169.7 96.2 169.5 96.0Q169.4 95.9 169.2 95.8Q168.9 95.8 168.7 95.8L168.7 95.8Q168.2 95.8 167.9 96.0Q167.6 96.3 167.4 96.7Q167.3 97.2 167.3 97.7L167.3 97.7Q167.3 98.3 167.4 98.8Q167.6 99.2 167.9 99.5Q168.2 99.7 168.7 99.7L168.7 99.7Q168.9 99.7 169.2 99.7Q169.4 99.6 169.5 99.4Q169.7 99.3 169.8 99.1Q169.9 98.9 170.0 98.6L170.0 98.6L171.6 98.9Q171.5 99.4 171.3 99.8Q171.0 100.2 170.6 100.5Q170.3 100.8 169.8 101.0Q169.3 101.1 168.7 101.1ZM174.8 94.4L176.1 94.4L176.1 95.8L174.8 95.8L174.8 99.1Q174.8 99.4 175.0 99.5Q175.1 99.7 175.4 99.7L175.4 99.7Q175.5 99.7 175.7 99.7Q175.9 99.6 176.0 99.6L176.0 99.6L176.2 100.9Q175.9 101.0 175.7 101.1Q175.4 101.1 175.1 101.1L175.1 101.1Q174.1 101.1 173.6 100.6Q173.1 100.1 173.1 99.2L173.1 99.2L173.1 95.8L172.2 95.8L172.2 94.4L173.1 94.4L173.1 92.9L174.8 92.9L174.8 94.4Z M181.9 101L180.1 101L180.1 92.3L182.1 92.3L184.8 96.7Q185.0 97.0 185.3 97.4Q185.5 97.8 185.7 98.3L185.7 98.3Q185.8 98.6 185.9 98.8L185.9 98.8Q185.9 98.6 185.9 98.4L185.9 98.4Q185.9 97.8 185.8 97.3Q185.8 96.8 185.8 96.5L185.8 96.5L185.8 92.3L187.6 92.3L187.6 101L185.7 101L183.1 97.0Q182.9 96.5 182.6 96.1Q182.4 95.7 182.1 95.2L182.1 95.2Q182.0 94.9 181.8 94.5L181.8 94.5Q181.8 94.8 181.8 95.2L181.8 95.2Q181.9 95.7 181.9 96.2Q181.9 96.7 181.9 97.0L181.9 97.0L181.9 101ZM191.0 101.1L191.0 101.1Q190.4 101.1 189.9 100.9Q189.4 100.7 189.1 100.3Q188.8 99.8 188.8 99.2L188.8 99.2Q188.8 98.6 189.0 98.3Q189.2 97.9 189.6 97.7Q189.9 97.4 190.4 97.3Q190.8 97.2 191.3 97.2L191.3 97.2Q191.9 97.1 192.2 97.0Q192.6 97.0 192.7 96.9Q192.9 96.8 192.9 96.6L192.9 96.6L192.9 96.5Q192.9 96.3 192.8 96.1Q192.7 95.9 192.4 95.8Q192.2 95.7 191.9 95.7L191.9 95.7Q191.5 95.7 191.3 95.8Q191.0 95.9 190.9 96.0Q190.7 96.2 190.6 96.4L190.6 96.4L189.0 96.2Q189.2 95.6 189.6 95.2Q190.0 94.8 190.6 94.6Q191.1 94.4 191.9 94.4L191.9 94.4Q192.4 94.4 192.9 94.5Q193.4 94.6 193.8 94.9Q194.2 95.1 194.4 95.6Q194.7 96.0 194.7 96.6L194.7 96.6L194.7 101L193.0 101L193.0 100.1L192.9 100.1Q192.8 100.4 192.5 100.6Q192.2 100.9 191.9 101.0Q191.5 101.1 191.0 101.1ZM191.5 99.9L191.5 99.9Q191.9 99.9 192.2 99.7Q192.6 99.6 192.7 99.3Q192.9 99.0 192.9 98.7L192.9 98.7L192.9 97.9Q192.8 98.0 192.7 98.1Q192.5 98.1 192.3 98.1Q192.1 98.2 191.9 98.2Q191.8 98.2 191.6 98.2L191.6 98.2Q191.3 98.3 191.0 98.4Q190.8 98.5 190.7 98.7Q190.5 98.8 190.5 99.1L190.5 99.1Q190.5 99.4 190.7 99.5Q190.8 99.7 191.0 99.8Q191.2 99.9 191.5 99.9ZM198.2 94.4L199.4 94.4L199.4 95.8L198.2 95.8L198.2 99.1Q198.2 99.4 198.3 99.5Q198.5 99.7 198.8 99.7L198.8 99.7Q198.9 99.7 199.1 99.7Q199.2 99.6 199.3 99.6L199.3 99.6L199.6 100.9Q199.3 101.0 199.0 101.1Q198.7 101.1 198.5 101.1L198.5 101.1Q197.5 101.1 196.9 100.6Q196.4 100.1 196.4 99.2L196.4 99.2L196.4 95.8L195.5 95.8L195.5 94.4L196.4 94.4L196.4 92.9L198.2 92.9L198.2 94.4ZM202.3 101L200.6 101L200.6 94.4L202.3 94.4L202.3 101ZM201.4 93.6L201.4 93.6Q201.0 93.6 200.8 93.3Q200.5 93.1 200.5 92.7L200.5 92.7Q200.5 92.3 200.8 92.1Q201.0 91.8 201.4 91.8L201.4 91.8Q201.8 91.8 202.1 92.0Q202.4 92.3 202.4 92.7L202.4 92.7Q202.4 93.1 202.1 93.3Q201.8 93.6 201.4 93.6ZM207.6 101L205.6 101L203.2 94.4L205.1 94.4L206.2 97.8Q206.4 98.5 206.6 99.1L206.6 99.1Q206.6 99.4 206.7 99.6L206.7 99.6Q206.7 99.4 206.8 99.1L206.8 99.1Q206.9 98.5 207.1 97.8L207.1 97.8L208.2 94.4L210.1 94.4L207.6 101ZM214.0 101.1L214.0 101.1Q213.0 101.1 212.2 100.7Q211.5 100.3 211.1 99.6Q210.7 98.8 210.7 97.8L210.7 97.8Q210.7 96.7 211.1 96.0Q211.5 95.2 212.2 94.8Q212.9 94.4 213.9 94.4L213.9 94.4Q214.5 94.4 215.1 94.6Q215.6 94.8 216.0 95.2Q216.5 95.6 216.7 96.2Q216.9 96.8 216.9 97.7L216.9 97.7L216.9 98.2L212.5 98.2Q212.5 98.7 212.7 99.0L212.7 99.0Q212.8 99.4 213.2 99.6Q213.5 99.8 214.0 99.8L214.0 99.8Q214.3 99.8 214.5 99.7Q214.8 99.6 215.0 99.5Q215.2 99.3 215.3 99.0L215.3 99.0L216.8 99.3Q216.7 99.9 216.3 100.3Q215.9 100.7 215.3 100.9Q214.7 101.1 214.0 101.1ZM212.5 97.1L212.5 97.1L215.3 97.1Q215.2 96.8 215.1 96.5L215.1 96.5Q215.0 96.1 214.6 95.9Q214.3 95.7 213.9 95.7L213.9 95.7Q213.4 95.7 213.1 95.9Q212.8 96.1 212.6 96.5L212.6 96.5Q212.5 96.7 212.5 97.1Z "/></g><defs><clipPath id="satori_bc-id-2-1-1-1" clip-path="url(#satori_cp-id)"><path x="239" y="84" width="62" height="25" d="M245,84 h50 a6,6 0 0 1 6,6 v13 a6,6 0 0 1 -6,6 h-50 a6,6 0 0 1 -6,-6 v-13 a6,6 0 0 1 6,-6"/></clipPath></defs><mask id="satori_om-id-2-1-1-1"><rect x="240" y="85" width="60" height="23" fill="#fff" mask="url(#satori_om-id)"/><path width="62" height="25" fill="none" stroke="#000" stroke-width="2" d="M240.757,85.757 A6,6 0 0 1 245,84 h50 a6,6 0 0 1 6,6 v13 a6,6 0 0 1 -6,6 h-50 a6,6 0 0 1 -6,-6 v-13 A6,6 0 0 1 240.757,85.757"/></mask><path x="239" y="84" width="62" height="25" fill="#60a5fa15" d="M245,84 h50 a6,6 0 0 1 6,6 v13 a6,6 0 0 1 -6,6 h-50 a6,6 0 0 1 -6,-6 v-13 a6,6 0 0 1 6,-6" clip-path="url(#satori_cp-id)" mask="url(#satori_om-id)"/><path width="62" height="25" clip-path="url(#satori_bc-id-2-1-1-1)" fill="none" stroke="#60a5fa35" stroke-width="2" d="M240.757,85.757 A6,6 0 0 1 245,84 h50 a6,6 0 0 1 6,6 v13 a6,6 0 0 1 -6,6 h-50 a6,6 0 0 1 -6,-6 v-13 A6,6 0 0 1 240.757,85.757"/><g mask="url(#satori_om-id)" clip-path="url(#satori_cp-id)"><path fill="rgba(225,220,255,0.85)" d="M255.6 101L253.8 101L253.8 92.3L257.2 92.3Q258.2 92.3 258.9 92.6Q259.6 93.0 260.0 93.6Q260.3 94.3 260.3 95.1Q260.3 96.0 259.9 96.6Q259.6 97.2 258.9 97.5L258.9 97.5Q258.8 97.6 258.8 97.6L258.8 97.6L260.6 101L258.6 101L257.0 97.9L255.6 97.9L255.6 101ZM255.6 93.7L255.6 96.4L256.9 96.4Q257.4 96.4 257.8 96.3Q258.1 96.1 258.3 95.8Q258.5 95.5 258.5 95.1L258.5 95.1Q258.5 94.7 258.3 94.4Q258.1 94.1 257.8 93.9Q257.4 93.7 256.9 93.7L256.9 93.7L255.6 93.7ZM264.6 101.1L264.6 101.1Q263.6 101.1 262.9 100.7Q262.1 100.3 261.7 99.6Q261.4 98.8 261.4 97.8L261.4 97.8Q261.4 96.7 261.7 96.0Q262.1 95.2 262.8 94.8Q263.5 94.4 264.5 94.4L264.5 94.4Q265.1 94.4 265.7 94.6Q266.3 94.8 266.7 95.2Q267.1 95.6 267.3 96.2Q267.6 96.8 267.6 97.7L267.6 97.7L267.6 98.2L263.1 98.2Q263.1 98.7 263.3 99.0L263.3 99.0Q263.5 99.4 263.8 99.6Q264.2 99.8 264.6 99.8L264.6 99.8Q264.9 99.8 265.2 99.7Q265.4 99.6 265.6 99.5Q265.8 99.3 265.9 99.0L265.9 99.0L267.5 99.3Q267.3 99.9 266.9 100.3Q266.5 100.7 265.9 100.9Q265.4 101.1 264.6 101.1ZM263.1 97.1L263.1 97.1L265.9 97.1Q265.8 96.8 265.7 96.5L265.7 96.5Q265.6 96.1 265.3 95.9Q265.0 95.7 264.5 95.7L264.5 95.7Q264.1 95.7 263.7 95.9Q263.4 96.1 263.3 96.5L263.3 96.5Q263.1 96.7 263.1 97.1ZM270.6 101.1L270.6 101.1Q270.0 101.1 269.5 100.9Q269.0 100.7 268.7 100.3Q268.4 99.8 268.4 99.2L268.4 99.2Q268.4 98.6 268.6 98.3Q268.8 97.9 269.2 97.7Q269.5 97.4 270.0 97.3Q270.4 97.2 270.9 97.2L270.9 97.2Q271.5 97.1 271.8 97.0Q272.2 97.0 272.3 96.9Q272.5 96.8 272.5 96.6L272.5 96.6L272.5 96.5Q272.5 96.3 272.4 96.1Q272.3 95.9 272.0 95.8Q271.8 95.7 271.5 95.7L271.5 95.7Q271.1 95.7 270.9 95.8Q270.6 95.9 270.5 96.0Q270.3 96.2 270.2 96.4L270.2 96.4L268.6 96.2Q268.8 95.6 269.2 95.2Q269.6 94.8 270.2 94.6Q270.7 94.4 271.5 94.4L271.5 94.4Q272.0 94.4 272.5 94.5Q273.0 94.6 273.4 94.9Q273.8 95.1 274.0 95.6Q274.2 96.0 274.2 96.6L274.2 96.6L274.2 101L272.6 101L272.6 100.1L272.5 100.1Q272.4 100.4 272.1 100.6Q271.8 100.9 271.5 101.0Q271.1 101.1 270.6 101.1ZM271.1 99.9L271.1 99.9Q271.5 99.9 271.8 99.7Q272.1 99.6 272.3 99.3Q272.5 99.0 272.5 98.7L272.5 98.7L272.5 97.9Q272.4 98.0 272.3 98.1Q272.1 98.1 271.9 98.1Q271.7 98.2 271.5 98.2Q271.3 98.2 271.2 98.2L271.2 98.2Q270.9 98.3 270.6 98.4Q270.4 98.5 270.3 98.7Q270.1 98.8 270.1 99.1L270.1 99.1Q270.1 99.4 270.2 99.5Q270.4 99.7 270.6 99.8Q270.8 99.9 271.1 99.9ZM278.7 101.1L278.7 101.1Q277.7 101.1 277.0 100.7Q276.3 100.3 275.9 99.5Q275.5 98.8 275.5 97.8L275.5 97.8Q275.5 96.7 275.9 96.0Q276.3 95.2 277.0 94.8Q277.7 94.4 278.7 94.4L278.7 94.4Q279.3 94.4 279.7 94.5Q280.2 94.7 280.6 95.0Q281.0 95.2 281.2 95.6Q281.5 96.0 281.6 96.5L281.6 96.5L280.0 96.9Q279.9 96.6 279.8 96.4Q279.7 96.2 279.5 96.0Q279.4 95.9 279.2 95.8Q278.9 95.8 278.7 95.8L278.7 95.8Q278.2 95.8 277.9 96.0Q277.6 96.3 277.4 96.7Q277.3 97.2 277.3 97.7L277.3 97.7Q277.3 98.3 277.4 98.8Q277.6 99.2 277.9 99.5Q278.2 99.7 278.7 99.7L278.7 99.7Q278.9 99.7 279.2 99.7Q279.4 99.6 279.5 99.4Q279.7 99.3 279.8 99.1Q279.9 98.9 280.0 98.6L280.0 98.6L281.6 98.9Q281.5 99.4 281.3 99.8Q281.0 100.2 280.6 100.5Q280.3 100.8 279.8 101.0Q279.3 101.1 278.7 101.1ZM284.8 94.4L286.1 94.4L286.1 95.8L284.8 95.8L284.8 99.1Q284.8 99.4 285.0 99.5Q285.1 99.7 285.4 99.7L285.4 99.7Q285.5 99.7 285.7 99.7Q285.9 99.6 286.0 99.6L286.0 99.6L286.2 100.9Q285.9 101.0 285.7 101.1Q285.4 101.1 285.1 101.1L285.1 101.1Q284.1 101.1 283.6 100.6Q283.1 100.1 283.1 99.2L283.1 99.2L283.1 95.8L282.2 95.8L282.2 94.4L283.1 94.4L283.1 92.9L284.8 92.9L284.8 94.4Z "/></g><defs><clipPath id="satori_bc-id-2-1-1-2" clip-path="url(#satori_cp-id)"><path x="308" y="84" width="70" height="25" d="M314,84 h58 a6,6 0 0 1 6,6 v13 a6,6 0 0 1 -6,6 h-58 a6,6 0 0 1 -6,-6 v-13 a6,6 0 0 1 6,-6"/></clipPath></defs><mask id="satori_om-id-2-1-1-2"><rect x="309" y="85" width="68" height="23" fill="#fff" mask="url(#satori_om-id)"/><path width="70" height="25" fill="none" stroke="#000" stroke-width="2" d="M309.757,85.757 A6,6 0 0 1 314,84 h58 a6,6 0 0 1 6,6 v13 a6,6 0 0 1 -6,6 h-58 a6,6 0 0 1 -6,-6 v-13 A6,6 0 0 1 309.757,85.757"/></mask><path x="308" y="84" width="70" height="25" fill="#60a5fa15" d="M314,84 h58 a6,6 0 0 1 6,6 v13 a6,6 0 0 1 -6,6 h-58 a6,6 0 0 1 -6,-6 v-13 a6,6 0 0 1 6,-6" clip-path="url(#satori_cp-id)" mask="url(#satori_om-id)"/><path width="70" height="25" clip-path="url(#satori_bc-id-2-1-1-2)" fill="none" stroke="#60a5fa35" stroke-width="2" d="M309.757,85.757 A6,6 0 0 1 314,84 h58 a6,6 0 0 1 6,6 v13 a6,6 0 0 1 -6,6 h-58 a6,6 0 0 1 -6,-6 v-13 A6,6 0 0 1 309.757,85.757"/><g mask="url(#satori_om-id)" clip-path="url(#satori_cp-id)"><path fill="rgba(225,220,255,0.85)" d="M324.6 101L322.8 101L322.8 92.3L324.8 92.3L327.5 96.7Q327.8 97.0 328.0 97.4Q328.2 97.8 328.4 98.3L328.4 98.3Q328.5 98.6 328.6 98.8L328.6 98.8Q328.6 98.6 328.6 98.4L328.6 98.4Q328.6 97.8 328.6 97.3Q328.5 96.8 328.5 96.5L328.5 96.5L328.5 92.3L330.4 92.3L330.4 101L328.4 101L325.8 97.0Q325.6 96.5 325.3 96.1Q325.1 95.7 324.9 95.2L324.9 95.2Q324.7 94.9 324.5 94.5L324.5 94.5Q324.5 94.8 324.5 95.2L324.5 95.2Q324.6 95.7 324.6 96.2Q324.6 96.7 324.6 97.0L324.6 97.0L324.6 101ZM334.9 101.1L334.9 101.1Q333.9 101.1 333.1 100.7Q332.4 100.3 332.0 99.6Q331.6 98.8 331.6 97.8L331.6 97.8Q331.6 96.7 332.0 96.0Q332.4 95.2 333.1 94.8Q333.8 94.4 334.8 94.4L334.8 94.4Q335.4 94.4 336.0 94.6Q336.5 94.8 336.9 95.2Q337.4 95.6 337.6 96.2Q337.8 96.8 337.8 97.7L337.8 97.7L337.8 98.2L333.4 98.2Q333.4 98.7 333.6 99.0L333.6 99.0Q333.7 99.4 334.1 99.6Q334.4 99.8 334.9 99.8L334.9 99.8Q335.2 99.8 335.4 99.7Q335.7 99.6 335.9 99.5Q336.1 99.3 336.2 99.0L336.2 99.0L337.7 99.3Q337.6 99.9 337.2 100.3Q336.8 100.7 336.2 100.9Q335.6 101.1 334.9 101.1ZM333.4 97.1L333.4 97.1L336.2 97.1Q336.1 96.8 336.0 96.5L336.0 96.5Q335.9 96.1 335.5 95.9Q335.2 95.7 334.8 95.7L334.8 95.7Q334.3 95.7 334.0 95.9Q333.7 96.1 333.5 96.5L333.5 96.5Q333.4 96.7 333.4 97.1ZM340.4 101L338.5 101L340.7 97.6L338.7 94.4L340.6 94.4L341.2 95.5Q341.4 96.0 341.7 96.5L341.7 96.5Q341.7 96.6 341.8 96.8L341.8 96.8Q341.9 96.6 341.9 96.5L341.9 96.5Q342.1 96.0 342.4 95.5L342.4 95.5L343.1 94.4L344.9 94.4L342.9 97.7L345.0 101L343.1 101L342.4 99.8Q342.1 99.3 341.9 98.8L341.9 98.8Q341.8 98.6 341.8 98.5L341.8 98.5Q341.7 98.6 341.6 98.8L341.6 98.8Q341.4 99.3 341.1 99.8L341.1 99.8L340.4 101ZM348.0 94.4L349.3 94.4L349.3 95.8L348.0 95.8L348.0 99.1Q348.0 99.4 348.2 99.5Q348.3 99.7 348.6 99.7L348.6 99.7Q348.7 99.7 348.9 99.7Q349.1 99.6 349.2 99.6L349.2 99.6L349.4 100.9Q349.1 101.0 348.9 101.1Q348.6 101.1 348.3 101.1L348.3 101.1Q347.3 101.1 346.8 100.6Q346.3 100.1 346.3 99.2L346.3 99.2L346.3 95.8L345.4 95.8L345.4 94.4L346.3 94.4L346.3 92.9L348.0 92.9L348.0 94.4ZM351.7 101.1L351.7 101.1Q351.2 101.1 350.9 100.8Q350.6 100.5 350.6 100.1L350.6 100.1Q350.6 99.7 350.9 99.4Q351.2 99.1 351.7 99.1L351.7 99.1Q352.1 99.1 352.4 99.4Q352.7 99.7 352.7 100.1L352.7 100.1Q352.7 100.5 352.4 100.8Q352.1 101.1 351.7 101.1ZM354.4 101.3L354.4 94.4L356.2 94.4L356.2 101.3Q356.2 102.1 355.9 102.5Q355.6 103.0 355.0 103.2Q354.5 103.4 353.7 103.4L353.7 103.4L353.4 103.4L353.4 102.1L353.6 102.1Q354.0 102.1 354.2 101.9Q354.4 101.7 354.4 101.3L354.4 101.3ZM355.3 93.6L355.3 93.6Q354.9 93.6 354.6 93.3Q354.3 93.1 354.3 92.7L354.3 92.7Q354.3 92.3 354.6 92.1Q354.9 91.8 355.3 91.8L355.3 91.8Q355.7 91.8 356.0 92.0Q356.3 92.3 356.3 92.7L356.3 92.7Q356.3 93.1 356.0 93.3Q355.7 93.6 355.3 93.6ZM360.3 101.1L360.3 101.1Q359.5 101.1 358.9 100.9Q358.3 100.7 357.9 100.2Q357.5 99.8 357.4 99.2L357.4 99.2L359.0 98.9Q359.1 99.4 359.5 99.6Q359.8 99.8 360.3 99.8L360.3 99.8Q360.8 99.8 361.1 99.6Q361.4 99.5 361.4 99.2L361.4 99.2Q361.4 98.9 361.2 98.7Q361.0 98.6 360.6 98.5L360.6 98.5L359.4 98.3Q358.5 98.1 358.0 97.6Q357.5 97.1 357.5 96.4L357.5 96.4Q357.5 95.8 357.9 95.3Q358.2 94.9 358.8 94.6Q359.5 94.4 360.3 94.4L360.3 94.4Q361.1 94.4 361.6 94.6Q362.2 94.8 362.6 95.2Q362.9 95.6 363.0 96.1L363.0 96.1L361.5 96.4Q361.4 96.1 361.1 95.8Q360.8 95.6 360.3 95.6L360.3 95.6Q359.9 95.6 359.6 95.8Q359.3 96.0 359.3 96.3L359.3 96.3Q359.3 96.5 359.5 96.7Q359.7 96.9 360.1 97.0L360.1 97.0L361.3 97.2Q362.3 97.4 362.7 97.8Q363.2 98.3 363.2 99.0L363.2 99.0Q363.2 99.6 362.8 100.1Q362.4 100.6 361.8 100.9Q361.1 101.1 360.3 101.1Z "/></g></svg>