<!-- Generated by readme-aura https://github.com/collectioneur/readme-aura -->
<svg width="860" height="168" viewBox="0 0 860 168" xmlns="http://www.w3.org/2000/svg"><defs><clipPath id="satori_bc-id"><path x="0" y="0" width="860" height="168" d="M16,0 h828 a16,16 0 0 1 16,16 v136 a16,16 0 0 1 -16,16 h-828 a16,16 0 0 1 -16,-16 v-136 a16,16 0 0 1 16,-16"/></clipPath></defs><clipPath id="satori_cp-id"><path x="0" y="0" width="860" height="168" d="M16,0 h828 a16,16 0 0 1 16,16 v136 a16,16 0 0 1 -16,16 h-828 a16,16 0 0 1 -16,-16 v-136 a16,16 0 0 1 16,-16"/></clipPath><mask id="satori_om-id"><rect x="1" y="1" width="858" height="166" fill="#fff"/><path width="860" height="168" fill="none" stroke="#000" stroke-width="2" d="M4.686,4.686 A16,16 0 0 1 16,0 h828 a16,16 0 0 1 16,16 v136 a16,16 0 0 1 -16,16 h-828 a16,16 0 0 1 -16,-16 v-136 A16,16 0 0 1 4.686,4.686"/></mask><path x="0" y="0" width="860" height="168" fill="#08080c" d="M16,0 h828 a16,16 0 0 1 16,16 v136 a16,16 0 0 1 -16,16 h-828 a16,16 0 0 1 -16,-16 v-136 a16,16 0 0 1 16,-16"/><path width="860" height="168" clip-path="url(#satori_bc-id)" fill="none" stroke="rgba(110,80,220,0.18)" stroke-width="2" d="M4.686,4.686 A16,16 0 0 1 16,0 h828 a16,16 0 0 1 16,16 v136 a16,16 0 0 1 -16,16 h-828 a16,16 0 0 1 -16,-16 v-136 A16,16 0 0 1 4.686,4.686"/><clipPath id="satori_cp-id-0" clip-path="url(#satori_cp-id)"><rect x="1" y="1" width="860" height="168"/></clipPath><mask id="satori_om-id-0"><rect x="1" y="1" width="860" height="168" fill="#fff" mask="url(#satori_om-id)"/></mask><svg x="1" y="1" width="860" height="168" preserveAspectRatio="none" clip-path="url(#satori_cp-id-0)" mask="url(#satori_om-id-0)"><defs><radialGradient id="g1" cx="50%" cy="50%" r="50%"><stop offset="0%" stop-color="rgba(115,20,215,0.68)"></stop><stop offset="42%" stop-color="rgba(85,15,175,0.30)"></stop><stop offset="70%" stop-color="rgba(85,15,175,0)"></stop></radialGradient><radialGradient id="g2" cx="50%" cy="50%" r="50%"><stop offset="0%" stop-color="rgba(55,55,255,0.55)"></stop><stop offset="45%" stop-color="rgba(35,45,210,0.22)"></stop><stop offset="70%" stop-color="rgba(35,45,210,0)"></stop></radialGradient><radialGradient id="g3" cx="50%" cy="50%" r="50%"><stop offset="0%" stop-color="rgba(0,130,255,0.42)"></stop><stop offset="50%" stop-color="rgba(0,100,220,0.16)"></stop><stop offset="70%" stop-color="rgba(0,100,220,0)"></stop></radialGradient><radialGradient id="g4" cx="50%" cy="50%" r="50%"><stop offset="0%" stop-color="rgba(0,185,240,0.32)"></stop><stop offset="70%" stop-color="rgba(0,185,240,0)"></stop></radialGradient><radialGradient id="g5" cx="50%" cy="50%" r="50%"><stop offset="0%" stop-color="rgba(100,25,205,0.42)"></stop><stop offset="70%" stop-color="rgba(100,25,205,0)"></stop></radialGradient><radialGradient id="g6" cx="50%" cy="50%" r="50%"><stop offset="0%" stop-color="rgba(60,80,255,0.35)"></stop><stop offset="70%" stop-color="rgba(60,80,255,0)"></stop></radialGradient></defs><ellipse id="glow-1" cx="170" cy="168" rx="260" ry="170" fill="url(#g1)"></ellipse><ellipse id="glow-2" cx="320" cy="178" rx="220" ry="140" fill="url(#g2)"></ellipse><ellipse id="glow-3" cx="460" cy="178" rx="190" ry="130" fill="url(#g3)"></ellipse><ellipse id="glow-4" cx="590" cy="188" rx="160" ry="110" fill="url(#g4)"></ellipse><ellipse id="glow-5" cx="750" cy="188" rx="140" ry="100" fill="url(#g5)"></ellipse><ellipse id="glow-6" cx="420" cy="138" rx="100" ry="80" fill="url(#g6)"></ellipse><style>

         @keyframes float-slow {
           0%, 100% { transform: translateX(0px); opacity: 0.8; }
           50% { transform: translateX(350px); opacity: 1.2; }
         }
         @keyframes float-medium {
           0%, 100% { transform: translateX(0px); opacity: 0.7; }
           50% { transform: translateX(-250px); opacity: 1.1; }
         }
         @keyframes float-fast {
           0%, 100% { transform: translateX(0px); opacity: 0.9; }
           50% { transform: translateX(200px); opacity: 0.6; }
         }
         @keyframes float-diagonal {
           0%, 100% { transform: translate(0px, 0px); opacity: 0.75; }
           50% { transform: translate(120px, 30px); opacity: 1.0; }
         }
         @keyframes float-wave {
           0%, 100% { transform: translateX(0px); opacity: 0.65; }
           33% { transform: translateX(-160px); opacity: 0.9; }
           66% { transform: translateX(80px); opacity: 1.0; }
         }
         @keyframes float-pulse {
           0%, 100% { transform: scale(1); opacity: 0.8; }
           50% { transform: scale(1.3); opacity: 0.4; }
         }
         #glow-1 { animation: float-slow 9s ease-in-out infinite; }
         #glow-2 { animation: float-medium 12s ease-in-out infinite; }
         #glow-3 { animation: float-fast 8s ease-in-out infinite; }
         #glow-4 { animation: float-diagonal 11s ease-in-out infinite reverse; }
         #glow-5 { animation: float-wave 14s ease-in-out infinite reverse; }
         #glow-6 { animation: float-pulse 6s ease-in-out infinite; }
       
</style>
</svg><mask id="satori_om-id-0-0"><rect x="1" y="1" width="0" height="168" fill="#fff" mask="url(#satori_om-id)"/></mask><mask id="satori_om-id-0-0-0"><rect x="1" y="1" width="0" height="168" fill="#fff" mask="url(#satori_om-id)"/></mask><mask id="satori_om-id-0-0-0-0"><rect x="1" y="1" width="0" height="168" fill="#fff" mask="url(#satori_om-id)"/></mask><mask id="satori_om-id-0-0-0-1"><rect x="1" y="1" width="0" height="168" fill="#fff" mask="url(#satori_om-id)"/></mask><mask id="satori_om-id-0-0-0-2"><rect x="1" y="1" width="0" height="168" fill="#fff" mask="url(#satori_om-id)"/></mask><mask id="satori_om-id-0-0-1"><rect x="1" y="1" width="0" height="168" fill="#fff" mask="url(#satori_om-id)"/></mask><mask id="satori_om-id-0-0-1-0"><rect x="1" y="1" width="0" height="168" fill="#fff" mask="url(#satori_om-id)"/></mask><mask id="satori_om-id-0-0-1-1"><rect x="1" y="1" width="0" height="168" fill="#fff" mask="url(#satori_om-id)"/></mask><mask id="satori_om-id-0-0-1-2"><rect x="1" y="1" width="0" height="168" fill="#fff" mask="url(#satori_om-id)"/></mask><mask id="satori_om-id-0-0-2"><rect x="1" y="1" width="0" height="168" fill="#fff" mask="url(#satori_om-id)"/></mask><mask id="satori_om-id-0-0-2-0"><rect x="1" y="1" width="0" height="168" fill="#fff" mask="url(#satori_om-id)"/></mask><mask id="satori_om-id-0-0-2-1"><rect x="1" y="1" width="0" height="168" fill="#fff" mask="url(#satori_om-id)"/></mask><mask id="satori_om-id-0-0-2-2"><rect x="1" y="1" width="0" height="168" fill="#fff" mask="url(#satori_om-id)"/></mask><mask id="satori_om-id-0-0-3"><rect x="1" y="1" width="0" height="168" fill="#fff" mask="url(#satori_om-id)"/></mask><mask id="satori_om-id-0-0-3-0"><rect x="1" y="1" width="0" height="168" fill="#fff" mask="url(#satori_om-id)"/></mask><mask id="satori_om-id-0-0-3-1"><rect x="1" y="1" width="0" height="168" fill="#fff" mask="url(#satori_om-id)"/></mask><mask id="satori_om-id-0-0-4"><rect x="1" y="1" width="0" height="168" fill="#fff" mask="url(#satori_om-id)"/></mask><mask id="satori_om-id-0-0-4-0"><rect x="1" y="1" width="0" height="168" fill="#fff" mask="url(#satori_om-id)"/></mask><mask id="satori_om-id-0-0-4-1"><rect x="1" y="1" width="0" height="168" fill="#fff" mask="url(#satori_om-id)"/></mask><mask id="satori_om-id-0-0-5"><rect x="1" y="1" width="0" height="168" fill="#fff" mask="url(#satori_om-id)"/></mask><mask id="satori_om-id-0-0-5-0"><rect x="1" y="1" width="0" height="168" fill="#fff" mask="url(#satori_om-id)"/></mask><mask id="satori_om-id-0-0-5-1"><rect x="1" y="1" width="0" height="168" fill="#fff" mask="url(#satori_om-id)"/></mask><mask id="satori_om-id-0-1"><rect x="1" y="1" width="0" height="168" fill="#fff" mask="url(#satori_om-id)"/></mask><mask id="satori_om-id-0-2"><rect x="1" y="1" width="0" height="168" fill="#fff" mask="url(#satori_om-id)"/></mask><mask id="satori_om-id-0-3"><rect x="1" y="1" width="0" height="168" fill="#fff" mask="url(#satori_om-id)"/></mask><mask id="satori_om-id-0-4"><rect x="1" y="1" width="0" height="168" fill="#fff" mask="url(#satori_om-id)"/></mask><mask id="satori_om-id-0-5"><rect x="1" y="1" width="0" height="168" fill="#fff" mask="url(#satori_om-id)"/></mask><mask id="satori_om-id-0-6"><rect x="1" y="1" width="0" height="168" fill="#fff" mask="url(#satori_om-id)"/></mask><mask id="satori_om-id-1"><rect x="33" y="19" width="794" height="12" fill="#fff" mask="url(#satori_om-id)"/></mask><g mask="url(#satori_om-id)" clip-path="url(#satori_cp-id)"><path fill="rgba(155,140,210,0.5)" d="M35.6 23.0L33.4 23.0L33.4 21.7L39.3 21.7L39.3 23.0L37.1 23.0L37.1 29L35.6 29L35.6 23.0ZM48.2 29L43.3 29L43.3 21.7L48.2 21.7L48.2 23.0L44.8 23.0L44.8 24.7L47.9 24.7L47.9 25.9L44.8 25.9L44.8 27.8L48.2 27.8L48.2 29ZM55.6 29.1L55.6 29.1Q54.6 29.1 53.9 28.7Q53.1 28.2 52.6 27.4Q52.2 26.5 52.2 25.4L52.2 25.4Q52.2 24.2 52.7 23.3Q53.1 22.5 53.9 22.1Q54.6 21.6 55.6 21.6L55.6 21.6Q56.2 21.6 56.7 21.8Q57.3 22.0 57.7 22.3Q58.1 22.6 58.4 23.1Q58.6 23.6 58.7 24.2L58.7 24.2L57.2 24.2Q57.2 23.9 57.0 23.7Q56.9 23.4 56.7 23.3Q56.5 23.1 56.2 23.0Q55.9 23.0 55.6 23.0L55.6 23.0Q55.0 23.0 54.6 23.2Q54.2 23.5 54.0 24.1Q53.7 24.6 53.7 25.4L53.7 25.4Q53.7 26.2 54.0 26.7Q54.2 27.2 54.6 27.5Q55.0 27.8 55.6 27.8L55.6 27.8Q55.9 27.8 56.2 27.7Q56.5 27.6 56.7 27.4Q56.9 27.3 57.0 27.0Q57.2 26.8 57.2 26.5L57.2 26.5L58.7 26.5Q58.7 27.0 58.4 27.5Q58.2 27.9 57.8 28.3Q57.4 28.7 56.8 28.9Q56.3 29.1 55.6 29.1ZM64.3 29L62.8 29L62.8 21.7L64.3 21.7L64.3 24.7L67.5 24.7L67.5 21.7L69.0 21.7L69.0 29L67.5 29L67.5 25.9L64.3 25.9L64.3 29Z M81.3 29.1L81.3 29.1Q80.4 29.1 79.8 28.8Q79.1 28.6 78.8 28.0Q78.4 27.5 78.4 26.7L78.4 26.7L79.9 26.7Q79.9 27.1 80.1 27.4Q80.3 27.6 80.6 27.7Q80.9 27.8 81.3 27.8L81.3 27.8Q81.7 27.8 82.0 27.7Q82.3 27.6 82.5 27.4Q82.6 27.2 82.6 26.9L82.6 26.9Q82.6 26.7 82.5 26.5Q82.3 26.3 82.0 26.2Q81.8 26.1 81.4 26.0L81.4 26.0L80.6 25.8Q79.6 25.6 79.1 25.1Q78.6 24.6 78.6 23.8L78.6 23.8Q78.6 23.2 78.9 22.7Q79.3 22.2 79.9 21.9Q80.5 21.6 81.3 21.6L81.3 21.6Q82.1 21.6 82.7 21.9Q83.3 22.2 83.7 22.7Q84.0 23.2 84.0 23.8L84.0 23.8L82.6 23.8Q82.5 23.4 82.2 23.1Q81.9 22.9 81.3 22.9L81.3 22.9Q80.9 22.9 80.7 23.0Q80.4 23.1 80.3 23.3Q80.1 23.5 80.1 23.7L80.1 23.7Q80.1 24.0 80.3 24.2Q80.4 24.3 80.7 24.5Q81.0 24.6 81.3 24.6L81.3 24.6L81.9 24.8Q82.4 24.9 82.8 25.1Q83.2 25.3 83.5 25.5Q83.8 25.8 84.0 26.1Q84.1 26.5 84.1 26.9L84.1 26.9Q84.1 27.6 83.8 28.1Q83.5 28.6 82.8 28.8Q82.2 29.1 81.3 29.1ZM90.1 23.0L87.9 23.0L87.9 21.7L93.8 21.7L93.8 23.0L91.6 23.0L91.6 29L90.1 29L90.1 23.0ZM99.1 29L97.4 29L99.9 21.7L101.9 21.7L104.4 29L102.8 29L102.2 27.3L99.6 27.3L99.1 29ZM100.0 26.1L101.8 26.1L101.6 25.5Q101.4 24.8 101.2 24L101.2 24Q101.0 23.5 100.9 22.9L100.9 22.9Q100.7 23.5 100.6 24.0L100.6 24.0Q100.4 24.8 100.2 25.5L100.2 25.5L100.0 26.1ZM111.5 29.1L111.5 29.1Q110.5 29.1 109.8 28.7Q109.0 28.2 108.6 27.4Q108.1 26.5 108.1 25.4L108.1 25.4Q108.1 24.2 108.6 23.3Q109.0 22.5 109.8 22.1Q110.6 21.6 111.5 21.6L111.5 21.6Q112.1 21.6 112.7 21.8Q113.2 22.0 113.6 22.3Q114.0 22.6 114.3 23.1Q114.6 23.6 114.6 24.2L114.6 24.2L113.1 24.2Q113.1 23.9 112.9 23.7Q112.8 23.4 112.6 23.3Q112.4 23.1 112.1 23.0Q111.9 23.0 111.5 23.0L111.5 23.0Q111.0 23.0 110.5 23.2Q110.1 23.5 109.9 24.1Q109.6 24.6 109.6 25.4L109.6 25.4Q109.6 26.2 109.9 26.7Q110.1 27.2 110.5 27.5Q111.0 27.8 111.5 27.8L111.5 27.8Q111.8 27.8 112.1 27.7Q112.4 27.6 112.6 27.4Q112.8 27.3 112.9 27.0Q113.1 26.8 113.1 26.5L113.1 26.5L114.6 26.5Q114.6 27.0 114.3 27.5Q114.1 27.9 113.7 28.3Q113.3 28.7 112.8 28.9Q112.2 29.1 111.5 29.1ZM120.2 29L118.7 29L118.7 21.7L120.2 21.7L120.2 23.7L120.2 25.4Q120.2 25.3 120.3 25.3L120.3 25.3Q120.5 24.9 120.7 24.6Q121.0 24.2 121.3 23.8L121.3 23.8L123.1 21.7L124.9 21.7L122.2 24.9L125.0 29L123.3 29L121.2 25.9L120.2 26.9L120.2 29Z "/></g><mask id="satori_om-id-2"><rect x="33" y="45" width="794" height="64" fill="#fff" mask="url(#satori_om-id)"/></mask><mask id="satori_om-id-2-0"><rect x="33" y="45" width="794" height="25" fill="#fff" mask="url(#satori_om-id)"/></mask><mask id="satori_om-id-2-0-0"><rect x="33" y="52" width="80" height="12" fill="#fff" mask="url(#satori_om-id)"/></mask><g mask="url(#satori_om-id)" clip-path="url(#satori_cp-id)"><path fill="#a78bfa" d="M38.3 62L33.7 62L33.7 54.7L35.1 54.7L35.1 60.8L38.3 60.8L38.3 62ZM41.5 62L39.9 62L42.4 54.7L44.3 54.7L46.9 62L45.2 62L44.7 60.3L42.1 60.3L41.5 62ZM42.5 59.1L44.3 59.1L44.1 58.5Q43.8 57.8 43.6 57L43.6 57Q43.5 56.5 43.3 55.9L43.3 55.9Q43.2 56.5 43.1 57.0L43.1 57.0Q42.9 57.8 42.7 58.5L42.7 58.5L42.5 59.1ZM50.3 62L48.8 62L48.8 54.7L50.4 54.7L52.7 58.4Q52.9 58.7 53.1 59.0Q53.3 59.4 53.5 59.8L53.5 59.8Q53.6 60.0 53.6 60.2L53.6 60.2Q53.6 60.0 53.6 59.8L53.6 59.8Q53.6 59.3 53.6 58.9Q53.6 58.5 53.6 58.2L53.6 58.2L53.6 54.7L55.1 54.7L55.1 62L53.4 62L51.3 58.7Q51.1 58.3 50.9 57.9Q50.7 57.6 50.5 57.1L50.5 57.1Q50.4 56.9 50.2 56.6L50.2 56.6Q50.2 56.9 50.2 57.1L50.2 57.1Q50.3 57.6 50.3 58.0Q50.3 58.4 50.3 58.7L50.3 58.7L50.3 62ZM60.6 62.1L60.6 62.1Q59.6 62.1 58.8 61.6Q58.1 61.2 57.6 60.4Q57.2 59.5 57.2 58.4L57.2 58.4Q57.2 57.2 57.7 56.4Q58.1 55.5 58.9 55.1Q59.6 54.6 60.6 54.6L60.6 54.6Q61.2 54.6 61.7 54.8Q62.3 55.0 62.7 55.3Q63.1 55.6 63.4 56.1Q63.6 56.5 63.7 57.1L63.7 57.1L62.2 57.1Q62.1 56.8 62.0 56.6Q61.8 56.4 61.6 56.2Q61.4 56.1 61.2 56.0Q60.9 56.0 60.6 56.0L60.6 56.0Q60.1 56.0 59.6 56.2Q59.2 56.5 59.0 57.0Q58.7 57.6 58.7 58.4Q58.7 59.1 59.0 59.7Q59.2 60.2 59.6 60.5Q60.0 60.8 60.6 60.8L60.6 60.8Q61.2 60.8 61.5 60.6Q61.9 60.4 62.1 60.0L62.1 60.0Q62.3 59.7 62.3 59.3L62.3 59.3L60.7 59.3L60.7 58.1L63.8 58.1L63.8 59.0Q63.8 60.0 63.4 60.7Q63.0 61.4 62.2 61.7Q61.5 62.1 60.6 62.1ZM68.9 62.1L68.9 62.1Q68.0 62.1 67.3 61.8Q66.7 61.4 66.3 60.8Q65.9 60.2 65.9 59.4L65.9 59.4L65.9 54.7L67.4 54.7L67.4 59.3Q67.4 59.7 67.6 60.1Q67.8 60.4 68.1 60.6Q68.5 60.8 68.9 60.8L68.9 60.8Q69.4 60.8 69.7 60.6Q70.0 60.4 70.2 60.1Q70.4 59.7 70.4 59.3L70.4 59.3L70.4 54.7L71.9 54.7L71.9 59.4Q71.9 60.2 71.5 60.8Q71.2 61.4 70.5 61.8Q69.8 62.1 68.9 62.1ZM75.5 62L73.8 62L76.3 54.7L78.2 54.7L80.8 62L79.1 62L78.6 60.3L76.0 60.3L75.5 62ZM76.4 59.1L78.2 59.1L78.0 58.5Q77.8 57.8 77.5 57L77.5 57Q77.4 56.5 77.3 55.9L77.3 55.9Q77.1 56.5 77.0 57.0L77.0 57.0Q76.8 57.8 76.6 58.5L76.6 58.5L76.4 59.1ZM85.9 62.1L85.9 62.1Q84.9 62.1 84.1 61.6Q83.4 61.2 82.9 60.4Q82.5 59.5 82.5 58.4L82.5 58.4Q82.5 57.2 82.9 56.4Q83.4 55.5 84.2 55.1Q84.9 54.6 85.9 54.6L85.9 54.6Q86.5 54.6 87.0 54.8Q87.6 55.0 88.0 55.3Q88.4 55.6 88.6 56.1Q88.9 56.5 89.0 57.1L89.0 57.1L87.5 57.1Q87.4 56.8 87.2 56.6Q87.1 56.4 86.9 56.2Q86.7 56.1 86.5 56.0Q86.2 56.0 85.9 56.0L85.9 56.0Q85.3 56.0 84.9 56.2Q84.5 56.5 84.2 57.0Q84.0 57.6 84.0 58.4Q84.0 59.1 84.2 59.7Q84.5 60.2 84.9 60.5Q85.3 60.8 85.9 60.8L85.9 60.8Q86.5 60.8 86.8 60.6Q87.2 60.4 87.4 60.0L87.4 60.0Q87.6 59.7 87.6 59.3L87.6 59.3L86.0 59.3L86.0 58.1L89.1 58.1L89.1 59.0Q89.1 60.0 88.6 60.7Q88.2 61.4 87.5 61.7Q86.8 62.1 85.9 62.1ZM96.1 62L91.2 62L91.2 54.7L96.1 54.7L96.1 56.0L92.7 56.0L92.7 57.7L95.8 57.7L95.8 58.9L92.7 58.9L92.7 60.8L96.1 60.8L96.1 62ZM100.9 62.1L100.9 62.1Q100.1 62.1 99.4 61.8Q98.8 61.6 98.4 61.0Q98.0 60.5 98.0 59.7L98.0 59.7L99.5 59.7Q99.5 60.1 99.7 60.4Q99.9 60.6 100.2 60.7Q100.5 60.8 100.9 60.8L100.9 60.8Q101.3 60.8 101.6 60.7Q101.9 60.6 102.1 60.4Q102.2 60.2 102.2 59.9L102.2 59.9Q102.2 59.7 102.1 59.5Q101.9 59.3 101.7 59.2Q101.4 59.1 101.0 59.0L101.0 59.0L100.2 58.8Q99.3 58.6 98.7 58.1Q98.2 57.6 98.2 56.8L98.2 56.8Q98.2 56.2 98.6 55.7Q98.9 55.2 99.5 54.9Q100.2 54.6 101.0 54.6L101.0 54.6Q101.8 54.6 102.4 54.9Q103.0 55.2 103.3 55.7Q103.6 56.2 103.6 56.8L103.6 56.8L102.2 56.8Q102.2 56.4 101.8 56.1Q101.5 55.9 100.9 55.9L100.9 55.9Q100.6 55.9 100.3 56.0Q100.0 56.1 99.9 56.3Q99.8 56.5 99.8 56.7L99.8 56.7Q99.8 57.0 99.9 57.2Q100.1 57.3 100.3 57.5Q100.6 57.6 100.9 57.6L100.9 57.6L101.6 57.8Q102.0 57.9 102.4 58.1Q102.8 58.3 103.1 58.5Q103.4 58.8 103.6 59.1Q103.7 59.5 103.7 59.9L103.7 59.9Q103.7 60.6 103.4 61.1Q103.1 61.6 102.5 61.8Q101.8 62.1 100.9 62.1Z "/></g><mask id="satori_om-id-2-0-1"><rect x="129" y="45" width="383" height="25" fill="#fff" mask="url(#satori_om-id)"/></mask><defs><clipPath id="satori_bc-id-2-0-1-0" clip-path="url(#satori_cp-id)"><path x="129" y="45" width="93" height="25" d="M135,45 h81 a6,6 0 0 1 6,6 v13 a6,6 0 0 1 -6,6 h-81 a6,6 0 0 1 -6,-6 v-13 a6,6 0 0 1 6,-6"/></clipPath></defs><mask id="satori_om-id-2-0-1-0"><rect x="130" y="46" width="91" height="23" fill="#fff" mask="url(#satori_om-id)"/><path width="93" height="25" fill="none" stroke="#000" stroke-width="2" d="M130.757,46.757 A6,6 0 0 1 135,45 h81 a6,6 0 0 1 6,6 v13 a6,6 0 0 1 -6,6 h-81 a6,6 0 0 1 -6,-6 v-13 A6,6 0 0 1 130.757,46.757"/></mask><path x="129" y="45" width="93" height="25" fill="#a78bfa15" d="M135,45 h81 a6,6 0 0 1 6,6 v13 a6,6 0 0 1 -6,6 h-81 a6,6 0 0 1 -6,-6 v-13 a6,6 0 0 1 6,-6" clip-path="url(#satori_cp-id)" mask="url(#satori_om-id)"/><path width="93" height="25" clip-path="url(#satori_bc-id-2-0-1-0)" fill="none" stroke="#a78bfa35" stroke-width="2" d="M130.757,46.757 A6,6 0 0 1 135,45 h81 a6,6 0 0 1 6,6 v13 a6,6 0 0 1 -6,6 h-81 a6,6 0 0 1 -6,-6 v-13 A6,6 0 0 1 130.757,46.757"/><g mask="url(#satori_om-id)" clip-path="url(#satori_cp-id)"><path fill="rgba(225,220,255,0.85)" d="M146.1 54.8L143.4 54.8L143.4 53.3L150.6 53.3L150.6 54.8L147.9 54.8L147.9 62L146.1 62L146.1 54.8ZM151.7 64.3L151.7 64.3L152.1 63.0L152.3 63.0Q152.7 63.1 153.0 63.1Q153.2 63.1 153.4 62.9Q153.6 62.7 153.6 62.4L153.6 62.4L153.7 62.0L151.2 55.4L153.1 55.4L154.2 58.8Q154.4 59.5 154.5 60.1L154.5 60.1Q154.5 60.4 154.6 60.6L154.6 60.6Q154.6 60.4 154.7 60.1L154.7 60.1Q154.8 59.5 155.1 58.8L155.1 58.8L156.2 55.4L158.0 55.4L155.3 62.8Q155.1 63.3 154.8 63.7Q154.4 64.1 154.0 64.3Q153.5 64.5 152.9 64.5L152.9 64.5Q152.5 64.5 152.2 64.4Q151.9 64.4 151.7 64.3ZM160.7 64.4L159.0 64.4L159.0 55.4L160.7 55.4L160.7 56.6L160.8 56.6Q160.9 56.3 161.1 56.0Q161.4 55.7 161.7 55.6Q162.1 55.4 162.7 55.4L162.7 55.4Q163.4 55.4 164.0 55.7Q164.6 56.1 165.0 56.9Q165.3 57.6 165.3 58.7L165.3 58.7Q165.3 59.8 165.0 60.6Q164.6 61.3 164.0 61.7Q163.4 62.1 162.7 62.1L162.7 62.1Q162.1 62.1 161.8 61.9Q161.4 61.7 161.1 61.5Q160.9 61.2 160.8 61.0L160.8 61.0L160.7 61.0L160.7 64.4ZM162.1 60.7L162.1 60.7Q162.6 60.7 162.9 60.4Q163.2 60.2 163.4 59.8Q163.5 59.3 163.5 58.7L163.5 58.7Q163.5 58.2 163.4 57.7Q163.2 57.3 162.9 57.0Q162.6 56.8 162.1 56.8L162.1 56.8Q161.7 56.8 161.3 57.0Q161.0 57.3 160.9 57.7Q160.7 58.1 160.7 58.7L160.7 58.7Q160.7 59.3 160.9 59.8Q161.0 60.2 161.4 60.5Q161.7 60.7 162.1 60.7ZM169.5 62.1L169.5 62.1Q168.5 62.1 167.8 61.7Q167.1 61.3 166.7 60.6Q166.3 59.8 166.3 58.8L166.3 58.8Q166.3 57.7 166.7 57.0Q167.0 56.2 167.8 55.8Q168.5 55.4 169.4 55.4L169.4 55.4Q170.1 55.4 170.6 55.6Q171.2 55.8 171.6 56.2Q172.0 56.6 172.3 57.2Q172.5 57.8 172.5 58.7L172.5 58.7L172.5 59.2L168.0 59.2Q168.0 59.7 168.2 60.0L168.2 60.0Q168.4 60.4 168.7 60.6Q169.1 60.8 169.5 60.8L169.5 60.8Q169.8 60.8 170.1 60.7Q170.4 60.6 170.5 60.5Q170.7 60.3 170.8 60.0L170.8 60.0L172.4 60.3Q172.2 60.9 171.8 61.3Q171.5 61.7 170.9 61.9Q170.3 62.1 169.5 62.1ZM168.0 58.1L168.0 58.1L170.8 58.1Q170.8 57.8 170.7 57.5L170.7 57.5Q170.5 57.1 170.2 56.9Q169.9 56.7 169.4 56.7L169.4 56.7Q169.0 56.7 168.7 56.9Q168.3 57.1 168.2 57.5L168.2 57.5Q168.1 57.7 168.0 58.1ZM176.9 62.1L176.9 62.1Q175.9 62.1 175.1 61.8Q174.3 61.5 173.9 60.9Q173.5 60.2 173.4 59.3L173.4 59.3L175.2 59.3Q175.2 59.7 175.4 60.0Q175.7 60.3 176.1 60.5Q176.4 60.6 176.9 60.6L176.9 60.6Q177.4 60.6 177.8 60.5Q178.1 60.3 178.3 60.1Q178.5 59.8 178.5 59.5L178.5 59.5Q178.5 59.2 178.3 59.0Q178.2 58.8 177.8 58.7Q177.5 58.5 177.0 58.4L177.0 58.4L176.0 58.2Q174.9 57.9 174.3 57.3Q173.7 56.7 173.7 55.8L173.7 55.8Q173.7 55.0 174.1 54.4Q174.5 53.8 175.3 53.5Q176.0 53.2 177.0 53.2L177.0 53.2Q177.9 53.2 178.6 53.5Q179.4 53.8 179.8 54.4Q180.2 55.0 180.2 55.8L180.2 55.8L178.5 55.8Q178.4 55.2 178.0 54.9Q177.6 54.7 176.9 54.7L176.9 54.7Q176.5 54.7 176.2 54.8Q175.8 54.9 175.7 55.1Q175.5 55.4 175.5 55.7L175.5 55.7Q175.5 56.0 175.7 56.2Q175.9 56.4 176.2 56.5Q176.5 56.7 176.9 56.8L176.9 56.8L177.7 57.0Q178.3 57.1 178.7 57.3Q179.2 57.5 179.6 57.8Q179.9 58.1 180.1 58.5Q180.3 59.0 180.3 59.5L180.3 59.5Q180.3 60.3 179.9 60.9Q179.5 61.5 178.8 61.8Q178.0 62.1 176.9 62.1ZM184.5 62.1L184.5 62.1Q183.5 62.1 182.8 61.7Q182.1 61.3 181.7 60.5Q181.3 59.8 181.3 58.8L181.3 58.8Q181.3 57.7 181.7 57.0Q182.1 56.2 182.8 55.8Q183.5 55.4 184.5 55.4L184.5 55.4Q185.1 55.4 185.6 55.5Q186.0 55.7 186.4 56.0Q186.8 56.2 187.1 56.6Q187.3 57.0 187.4 57.5L187.4 57.5L185.8 57.9Q185.7 57.6 185.6 57.4Q185.5 57.2 185.3 57.0Q185.2 56.9 185.0 56.8Q184.8 56.8 184.5 56.8L184.5 56.8Q184.0 56.8 183.7 57.0Q183.4 57.3 183.2 57.7Q183.1 58.2 183.1 58.7L183.1 58.7Q183.1 59.3 183.2 59.8Q183.4 60.2 183.7 60.5Q184.0 60.7 184.5 60.7L184.5 60.7Q184.8 60.7 185.0 60.7Q185.2 60.6 185.3 60.4Q185.5 60.3 185.6 60.1Q185.7 59.9 185.8 59.6L185.8 59.6L187.4 59.9Q187.3 60.4 187.1 60.8Q186.8 61.2 186.4 61.5Q186.1 61.8 185.6 62.0Q185.1 62.1 184.5 62.1ZM190.4 62L188.6 62L188.6 55.4L190.3 55.4L190.3 56.6L190.4 56.6Q190.6 56.0 191.0 55.7Q191.4 55.4 192.0 55.4L192.0 55.4Q192.1 55.4 192.3 55.4Q192.4 55.4 192.5 55.4L192.5 55.4L192.5 57.0Q192.4 56.9 192.2 56.9Q192.0 56.9 191.8 56.9L191.8 56.9Q191.4 56.9 191.1 57.1Q190.7 57.2 190.6 57.6Q190.4 57.9 190.4 58.3L190.4 58.3L190.4 62ZM195.3 62L193.5 62L193.5 55.4L195.3 55.4L195.3 62ZM194.4 54.6L194.4 54.6Q194.0 54.6 193.7 54.3Q193.4 54.1 193.4 53.7L193.4 53.7Q193.4 53.3 193.7 53.1Q194.0 52.8 194.4 52.8L194.4 52.8Q194.8 52.8 195.1 53.0Q195.3 53.3 195.3 53.7L195.3 53.7Q195.3 54.1 195.1 54.3Q194.8 54.6 194.4 54.6ZM198.5 64.4L196.8 64.4L196.8 55.4L198.5 55.4L198.5 56.6L198.6 56.6Q198.7 56.3 198.9 56.0Q199.1 55.7 199.5 55.6Q199.9 55.4 200.4 55.4L200.4 55.4Q201.2 55.4 201.8 55.7Q202.4 56.1 202.7 56.9Q203.1 57.6 203.1 58.7L203.1 58.7Q203.1 59.8 202.7 60.6Q202.4 61.3 201.8 61.7Q201.2 62.1 200.4 62.1L200.4 62.1Q199.9 62.1 199.5 61.9Q199.2 61.7 198.9 61.5Q198.7 61.2 198.6 61.0L198.6 61.0L198.5 61.0L198.5 64.4ZM199.9 60.7L199.9 60.7Q200.3 60.7 200.7 60.4Q201.0 60.2 201.1 59.8Q201.3 59.3 201.3 58.7L201.3 58.7Q201.3 58.2 201.1 57.7Q201.0 57.3 200.7 57.0Q200.3 56.8 199.9 56.8L199.9 56.8Q199.4 56.8 199.1 57.0Q198.8 57.3 198.6 57.7Q198.5 58.1 198.5 58.7L198.5 58.7Q198.5 59.3 198.6 59.8Q198.8 60.2 199.1 60.5Q199.4 60.7 199.9 60.7ZM206.3 55.4L207.6 55.4L207.6 56.8L206.3 56.8L206.3 60.1Q206.3 60.4 206.5 60.5Q206.6 60.7 206.9 60.7L206.9 60.7Q207.0 60.7 207.2 60.7Q207.4 60.6 207.5 60.6L207.5 60.6L207.8 61.9Q207.5 62.0 207.2 62.1Q206.9 62.1 206.6 62.1L206.6 62.1Q205.6 62.1 205.1 61.6Q204.6 61.1 204.6 60.2L204.6 60.2L204.6 56.8L203.7 56.8L203.7 55.4L204.6 55.4L204.6 53.9L206.3 53.9L206.3 55.4Z "/></g><defs><clipPath id="satori_bc-id-2-0-1-1" clip-path="url(#satori_cp-id)"><path x="229" y="45" width="92" height="25" d="M235,45 h80 a6,6 0 0 1 6,6 v13 a6,6 0 0 1 -6,6 h-80 a6,6 0 0 1 -6,-6 v-13 a6,6 0 0 1 6,-6"/></clipPath></defs><mask id="satori_om-id-2-0-1-1"><rect x="230" y="46" width="90" height="23" fill="#fff" mask="url(#satori_om-id)"/><path width="92" height="25" fill="none" stroke="#000" stroke-width="2" d="M230.757,46.757 A6,6 0 0 1 235,45 h80 a6,6 0 0 1 6,6 v13 a6,6 0 0 1 -6,6 h-80 a6,6 0 0 1 -6,-6 v-13 A6,6 0 0 1 230.757,46.757"/></mask><path x="229" y="45" width="92" height="25" fill="#a78bfa15" d="M235,45 h80 a6,6 0 0 1 6,6 v13 a6,6 0 0 1 -6,6 h-80 a6,6 0 0 1 -6,-6 v-13 a6,6 0 0 1 6,-6" clip-path="url(#satori_cp-id)" mask="url(#satori_om-id)"/><path width="92" height="25" clip-path="url(#satori_bc-id-2-0-1-1)" fill="none" stroke="#a78bfa35" stroke-width="2" d="M230.757,46.757 A6,6 0 0 1 235,45 h80 a6,6 0 0 1 6,6 v13 a6,6 0 0 1 -6,6 h-80 a6,6 0 0 1 -6,-6 v-13 A6,6 0 0 1 230.757,46.757"/><g mask="url(#satori_om-id)" clip-path="url(#satori_cp-id)"><path fill="rgba(225,220,255,0.85)" d="M246.3 62.1L246.3 62.1Q245.0 62.1 244.2 61.4Q243.4 60.7 243.4 59.4L243.4 59.4L243.4 58.9L245.2 58.9L245.2 59.4Q245.2 60.0 245.5 60.4Q245.8 60.7 246.3 60.7L246.3 60.7Q246.8 60.7 247.1 60.4Q247.5 60.0 247.5 59.4L247.5 59.4L247.5 53.3L249.2 53.3L249.2 59.4Q249.2 60.7 248.4 61.4Q247.7 62.1 246.3 62.1ZM252.6 62.1L252.6 62.1Q252.0 62.1 251.5 61.9Q251.0 61.7 250.7 61.3Q250.4 60.8 250.4 60.2L250.4 60.2Q250.4 59.6 250.6 59.3Q250.8 58.9 251.2 58.7Q251.5 58.4 252.0 58.3Q252.4 58.2 252.9 58.2L252.9 58.2Q253.5 58.1 253.8 58.0Q254.2 58.0 254.3 57.9Q254.5 57.8 254.5 57.6L254.5 57.6L254.5 57.5Q254.5 57.3 254.4 57.1Q254.2 56.9 254.0 56.8Q253.8 56.7 253.4 56.7L253.4 56.7Q253.1 56.7 252.9 56.8Q252.6 56.9 252.4 57.0Q252.3 57.2 252.2 57.4L252.2 57.4L250.6 57.2Q250.8 56.6 251.2 56.2Q251.6 55.8 252.1 55.6Q252.7 55.4 253.5 55.4L253.5 55.4Q254.0 55.4 254.5 55.5Q255.0 55.6 255.4 55.9Q255.8 56.1 256.0 56.6Q256.2 57.0 256.2 57.6L256.2 57.6L256.2 62L254.6 62L254.6 61.1L254.5 61.1Q254.3 61.4 254.1 61.6Q253.8 61.9 253.5 62.0Q253.1 62.1 252.6 62.1ZM253.1 60.9L253.1 60.9Q253.5 60.9 253.8 60.7Q254.1 60.6 254.3 60.3Q254.5 60.0 254.5 59.7L254.5 59.7L254.5 58.9Q254.4 59.0 254.3 59.1Q254.1 59.1 253.9 59.1Q253.7 59.2 253.5 59.2Q253.3 59.2 253.2 59.2L253.2 59.2Q252.9 59.3 252.6 59.4Q252.4 59.5 252.2 59.7Q252.1 59.8 252.1 60.1L252.1 60.1Q252.1 60.4 252.2 60.5Q252.4 60.7 252.6 60.8Q252.8 60.9 253.1 60.9ZM261.6 62L259.6 62L257.2 55.4L259.0 55.4L260.1 58.8Q260.3 59.5 260.5 60.1L260.5 60.1Q260.5 60.4 260.6 60.6L260.6 60.6Q260.7 60.4 260.7 60.1L260.7 60.1Q260.9 59.5 261.1 58.8L261.1 58.8L262.1 55.4L264.0 55.4L261.6 62ZM266.8 62.1L266.8 62.1Q266.1 62.1 265.6 61.9Q265.1 61.7 264.9 61.3Q264.6 60.8 264.6 60.2L264.6 60.2Q264.6 59.6 264.8 59.3Q265.0 58.9 265.3 58.7Q265.7 58.4 266.1 58.3Q266.6 58.2 267.0 58.2L267.0 58.2Q267.6 58.1 268.0 58.0Q268.3 58.0 268.5 57.9Q268.6 57.8 268.6 57.6L268.6 57.6L268.6 57.5Q268.6 57.3 268.5 57.1Q268.4 56.9 268.2 56.8Q267.9 56.7 267.6 56.7L267.6 56.7Q267.3 56.7 267.0 56.8Q266.8 56.9 266.6 57.0Q266.4 57.2 266.4 57.4L266.4 57.4L264.8 57.2Q264.9 56.6 265.3 56.2Q265.7 55.8 266.3 55.6Q266.9 55.4 267.6 55.4L267.6 55.4Q268.1 55.4 268.6 55.5Q269.1 55.6 269.5 55.9Q269.9 56.1 270.2 56.6Q270.4 57.0 270.4 57.6L270.4 57.6L270.4 62L268.7 62L268.7 61.1L268.7 61.1Q268.5 61.4 268.2 61.6Q268.0 61.9 267.6 62.0Q267.2 62.1 266.8 62.1ZM267.3 60.9L267.3 60.9Q267.7 60.9 268.0 60.7Q268.3 60.6 268.5 60.3Q268.6 60.0 268.6 59.7L268.6 59.7L268.6 58.9Q268.6 59.0 268.4 59.1Q268.3 59.1 268.1 59.1Q267.9 59.2 267.7 59.2Q267.5 59.2 267.3 59.2L267.3 59.2Q267.0 59.3 266.8 59.4Q266.5 59.5 266.4 59.7Q266.3 59.8 266.3 60.1L266.3 60.1Q266.3 60.4 266.4 60.5Q266.5 60.7 266.7 60.8Q267.0 60.9 267.3 60.9ZM275.1 62.1L275.1 62.1Q274.1 62.1 273.3 61.8Q272.5 61.5 272.1 60.9Q271.7 60.2 271.6 59.3L271.6 59.3L273.4 59.3Q273.4 59.7 273.6 60.0Q273.9 60.3 274.3 60.5Q274.6 60.6 275.1 60.6L275.1 60.6Q275.6 60.6 276.0 60.5Q276.3 60.3 276.5 60.1Q276.7 59.8 276.7 59.5L276.7 59.5Q276.7 59.2 276.5 59.0Q276.3 58.8 276.0 58.7Q275.7 58.5 275.2 58.4L275.2 58.4L274.2 58.2Q273.1 57.9 272.5 57.3Q271.9 56.7 271.9 55.8L271.9 55.8Q271.9 55.0 272.3 54.4Q272.7 53.8 273.5 53.5Q274.2 53.2 275.2 53.2L275.2 53.2Q276.1 53.2 276.8 53.5Q277.6 53.8 278.0 54.4Q278.4 55.0 278.4 55.8L278.4 55.8L276.7 55.8Q276.6 55.2 276.2 54.9Q275.8 54.7 275.1 54.7L275.1 54.7Q274.7 54.7 274.4 54.8Q274.0 54.9 273.9 55.1Q273.7 55.4 273.7 55.7L273.7 55.7Q273.7 56.0 273.9 56.2Q274.1 56.4 274.4 56.5Q274.7 56.7 275.1 56.8L275.1 56.8L275.9 57.0Q276.4 57.1 276.9 57.3Q277.4 57.5 277.8 57.8Q278.1 58.1 278.3 58.5Q278.5 59.0 278.5 59.5L278.5 59.5Q278.5 60.3 278.1 60.9Q277.7 61.5 276.9 61.8Q276.2 62.1 275.1 62.1ZM282.7 62.1L282.7 62.1Q281.7 62.1 281.0 61.7Q280.3 61.3 279.9 60.5Q279.5 59.8 279.5 58.8L279.5 58.8Q279.5 57.7 279.9 57.0Q280.3 56.2 281.0 55.8Q281.7 55.4 282.7 55.4L282.7 55.4Q283.3 55.4 283.8 55.5Q284.2 55.7 284.6 56.0Q285.0 56.2 285.3 56.6Q285.5 57.0 285.6 57.5L285.6 57.5L284.0 57.9Q283.9 57.6 283.8 57.4Q283.7 57.2 283.5 57.0Q283.4 56.9 283.2 56.8Q282.9 56.8 282.7 56.8L282.7 56.8Q282.2 56.8 281.9 57.0Q281.6 57.3 281.4 57.7Q281.3 58.2 281.3 58.7L281.3 58.7Q281.3 59.3 281.4 59.8Q281.6 60.2 281.9 60.5Q282.2 60.7 282.7 60.7L282.7 60.7Q282.9 60.7 283.2 60.7Q283.4 60.6 283.5 60.4Q283.7 60.3 283.8 60.1Q283.9 59.9 284.0 59.6L284.0 59.6L285.6 59.9Q285.5 60.4 285.3 60.8Q285.0 61.2 284.6 61.5Q284.3 61.8 283.8 62.0Q283.3 62.1 282.7 62.1ZM288.6 62L286.8 62L286.8 55.4L288.5 55.4L288.5 56.6L288.6 56.6Q288.8 56.0 289.2 55.7Q289.6 55.4 290.2 55.4L290.2 55.4Q290.3 55.4 290.5 55.4Q290.6 55.4 290.7 55.4L290.7 55.4L290.7 57.0Q290.6 56.9 290.4 56.9Q290.2 56.9 290.0 56.9L290.0 56.9Q289.6 56.9 289.2 57.1Q288.9 57.2 288.7 57.6Q288.6 57.9 288.6 58.3L288.6 58.3L288.6 62ZM293.5 62L291.7 62L291.7 55.4L293.5 55.4L293.5 62ZM292.6 54.6L292.6 54.6Q292.2 54.6 291.9 54.3Q291.6 54.1 291.6 53.7L291.6 53.7Q291.6 53.3 291.9 53.1Q292.2 52.8 292.6 52.8L292.6 52.8Q293.0 52.8 293.3 53.0Q293.5 53.3 293.5 53.7L293.5 53.7Q293.5 54.1 293.3 54.3Q293.0 54.6 292.6 54.6ZM296.7 64.4L294.9 64.4L294.9 55.4L296.7 55.4L296.7 56.6L296.8 56.6Q296.9 56.3 297.1 56.0Q297.3 55.7 297.7 55.6Q298.1 55.4 298.6 55.4L298.6 55.4Q299.4 55.4 300.0 55.7Q300.6 56.1 300.9 56.9Q301.3 57.6 301.3 58.7L301.3 58.7Q301.3 59.8 300.9 60.6Q300.6 61.3 300.0 61.7Q299.4 62.1 298.6 62.1L298.6 62.1Q298.1 62.1 297.7 61.9Q297.3 61.7 297.1 61.5Q296.9 61.2 296.8 61.0L296.8 61.0L296.7 61.0L296.7 64.4ZM298.1 60.7L298.1 60.7Q298.5 60.7 298.8 60.4Q299.2 60.2 299.3 59.8Q299.5 59.3 299.5 58.7L299.5 58.7Q299.5 58.2 299.3 57.7Q299.2 57.3 298.9 57.0Q298.5 56.8 298.1 56.8L298.1 56.8Q297.6 56.8 297.3 57.0Q297.0 57.3 296.8 57.7Q296.7 58.1 296.7 58.7L296.7 58.7Q296.7 59.3 296.8 59.8Q297 60.2 297.3 60.5Q297.6 60.7 298.1 60.7ZM304.5 55.4L305.8 55.4L305.8 56.8L304.5 56.8L304.5 60.1Q304.5 60.4 304.7 60.5Q304.8 60.7 305.1 60.7L305.1 60.7Q305.2 60.7 305.4 60.7Q305.6 60.6 305.7 60.6L305.7 60.6L305.9 61.9Q305.7 62.0 305.4 62.1Q305.1 62.1 304.8 62.1L304.8 62.1Q303.8 62.1 303.3 61.6Q302.8 61.1 302.8 60.2L302.8 60.2L302.8 56.8L301.9 56.8L301.9 55.4L302.8 55.4L302.8 53.9L304.5 53.9L304.5 55.4Z "/></g><defs><clipPath id="satori_bc-id-2-0-1-2" clip-path="url(#satori_cp-id)"><path x="328" y="45" width="70" height="25" d="M334,45 h58 a6,6 0 0 1 6,6 v13 a6,6 0 0 1 -6,6 h-58 a6,6 0 0 1 -6,-6 v-13 a6,6 0 0 1 6,-6"/></clipPath></defs><mask id="satori_om-id-2-0-1-2"><rect x="329" y="46" width="68" height="23" fill="#fff" mask="url(#satori_om-id)"/><path width="70" height="25" fill="none" stroke="#000" stroke-width="2" d="M329.757,46.757 A6,6 0 0 1 334,45 h58 a6,6 0 0 1 6,6 v13 a6,6 0 0 1 -6,6 h-58 a6,6 0 0 1 -6,-6 v-13 A6,6 0 0 1 329.757,46.757"/></mask><path x="328" y="45" width="70" height="25" fill="#a78bfa15" d="M334,45 h58 a6,6 0 0 1 6,6 v13 a6,6 0 0 1 -6,6 h-58 a6,6 0 0 1 -6,-6 v-13 a6,6 0 0 1 6,-6" clip-path="url(#satori_cp-id)" mask="url(#satori_om-id)"/><path width="70" height="25" clip-path="url(#satori_bc-id-2-0-1-2)" fill="none" stroke="#a78bfa35" stroke-width="2" d="M329.757,46.757 A6,6 0 0 1 334,45 h58 a6,6 0 0 1 6,6 v13 a6,6 0 0 1 -6,6 h-58 a6,6 0 0 1 -6,-6 v-13 A6,6 0 0 1 329.757,46.757"/><g mask="url(#satori_om-id)" clip-path="url(#satori_cp-id)"><path fill="rgba(225,220,255,0.85)" d="M344.6 62L342.8 62L342.8 53.3L346.2 53.3Q347.2 53.3 347.9 53.6Q348.6 54.0 349.0 54.7Q349.3 55.4 349.3 56.2L349.3 56.2Q349.3 57.1 348.9 57.7Q348.6 58.4 347.9 58.8Q347.2 59.1 346.2 59.1L346.2 59.1L344.6 59.1L344.6 62ZM344.6 54.7L344.6 57.7L345.9 57.7Q346.4 57.7 346.8 57.5Q347.1 57.3 347.3 57.0Q347.5 56.7 347.5 56.2Q347.5 55.8 347.3 55.4Q347.1 55.1 346.8 54.9Q346.4 54.7 345.9 54.7L345.9 54.7L344.6 54.7ZM350.5 64.3L350.5 64.3L350.9 63.0L351.1 63.0Q351.5 63.1 351.7 63.1Q352.0 63.1 352.2 62.9Q352.3 62.7 352.4 62.4L352.4 62.4L352.4 62.0L350.0 55.4L351.8 55.4L352.9 58.8Q353.1 59.5 353.3 60.1L353.3 60.1Q353.3 60.4 353.3 60.6L353.3 60.6Q353.4 60.4 353.4 60.1L353.4 60.1Q353.6 59.5 353.8 58.8L353.8 58.8L355.0 55.4L356.8 55.4L354.0 62.8Q353.8 63.3 353.5 63.7Q353.2 64.1 352.7 64.3Q352.3 64.5 351.6 64.5L351.6 64.5Q351.3 64.5 351.0 64.4Q350.7 64.4 350.5 64.3ZM359.8 55.4L361.0 55.4L361.0 56.8L359.8 56.8L359.8 60.1Q359.8 60.4 359.9 60.5Q360.1 60.7 360.4 60.7L360.4 60.7Q360.5 60.7 360.7 60.7Q360.8 60.6 360.9 60.6L360.9 60.6L361.2 61.9Q360.9 62.0 360.6 62.1Q360.3 62.1 360.0 62.1L360.0 62.1Q359.1 62.1 358.5 61.6Q358.0 61.1 358.0 60.2L358.0 60.2L358.0 56.8L357.1 56.8L357.1 55.4L358.0 55.4L358.0 53.9L359.8 53.9L359.8 55.4ZM363.9 58.2L363.9 58.2L363.9 62L362.1 62L362.1 53.3L363.9 53.3L363.9 56.7Q364.1 56.2 364.5 55.8L364.5 55.8Q365.0 55.4 365.9 55.4L365.9 55.4Q366.5 55.4 367.1 55.7Q367.6 56.0 367.8 56.5Q368.1 57.1 368.1 57.8L368.1 57.8L368.1 62L366.4 62L366.4 58.1Q366.4 57.5 366.0 57.2Q365.7 56.8 365.2 56.8L365.2 56.8Q364.8 56.8 364.5 57.0Q364.2 57.2 364.1 57.5Q363.9 57.8 363.9 58.2ZM372.5 62.1L372.5 62.1Q371.6 62.1 370.8 61.7Q370.1 61.3 369.7 60.5Q369.3 59.8 369.3 58.8L369.3 58.8Q369.3 57.7 369.7 57.0Q370.1 56.2 370.8 55.8Q371.6 55.4 372.5 55.4L372.5 55.4Q373.5 55.4 374.3 55.8Q375.0 56.2 375.4 57.0Q375.8 57.7 375.8 58.8L375.8 58.8Q375.8 59.8 375.4 60.5Q375.0 61.3 374.3 61.7Q373.5 62.1 372.5 62.1ZM372.5 60.7L372.5 60.7Q373.0 60.7 373.3 60.5Q373.6 60.2 373.8 59.8Q374.0 59.3 374.0 58.7L374.0 58.7Q374.0 58.2 373.8 57.7Q373.6 57.3 373.3 57.0Q373.0 56.8 372.5 56.8L372.5 56.8Q372.1 56.8 371.8 57.0Q371.4 57.3 371.3 57.7Q371.1 58.2 371.1 58.7L371.1 58.7Q371.1 59.3 371.3 59.8Q371.4 60.2 371.8 60.5Q372.1 60.7 372.5 60.7ZM378.7 58.2L378.7 58.2L378.7 62L377.0 62L377.0 55.4L378.6 55.4L378.7 56.8Q378.9 56.2 379.3 55.8L379.3 55.8Q379.9 55.4 380.7 55.4L380.7 55.4Q381.4 55.4 381.9 55.7Q382.4 56.0 382.7 56.5Q382.9 57.1 382.9 57.8L382.9 57.8L382.9 62L381.2 62L381.2 58.1Q381.2 57.5 380.9 57.2Q380.6 56.8 380.0 56.8L380.0 56.8Q379.6 56.8 379.3 57.0Q379.1 57.2 378.9 57.5Q378.7 57.8 378.7 58.2Z "/></g><defs><clipPath id="satori_bc-id-2-0-1-3" clip-path="url(#satori_cp-id)"><path x="405" y="45" width="55" height="25" d="M411,45 h43 a6,6 0 0 1 6,6 v13 a6,6 0 0 1 -6,6 h-43 a6,6 0 0 1 -6,-6 v-13 a6,6 0 0 1 6,-6"/></clipPath></defs><mask id="satori_om-id-2-0-1-3"><rect x="406" y="46" width="53" height="23" fill="#fff" mask="url(#satori_om-id)"/><path width="55" height="25" fill="none" stroke="#000" stroke-width="2" d="M406.757,46.757 A6,6 0 0 1 411,45 h43 a6,6 0 0 1 6,6 v13 a6,6 0 0 1 -6,6 h-43 a6,6 0 0 1 -6,-6 v-13 A6,6 0 0 1 406.757,46.757"/></mask><path x="405" y="45" width="55" height="25" fill="#a78bfa15" d="M411,45 h43 a6,6 0 0 1 6,6 v13 a6,6 0 0 1 -6,6 h-43 a6,6 0 0 1 -6,-6 v-13 a6,6 0 0 1 6,-6" clip-path="url(#satori_cp-id)" mask="url(#satori_om-id)"/><path width="55" height="25" clip-path="url(#satori_bc-id-2-0-1-3)" fill="none" stroke="#a78bfa35" stroke-width="2" d="M406.757,46.757 A6,6 0 0 1 411,45 h43 a6,6 0 0 1 6,6 v13 a6,6 0 0 1 -6,6 h-43 a6,6 0 0 1 -6,-6 v-13 A6,6 0 0 1 406.757,46.757"/><g mask="url(#satori_om-id)" clip-path="url(#satori_cp-id)"><path fill="rgba(225,220,255,0.85)" d="M421.6 62L419.8 62L419.8 53.3L423.2 53.3Q424.2 53.3 424.9 53.6Q425.6 54.0 426.0 54.6Q426.3 55.3 426.3 56.1Q426.3 57.0 425.9 57.6Q425.6 58.2 424.9 58.5L424.9 58.5Q424.8 58.6 424.8 58.6L424.8 58.6L426.6 62L424.6 62L423.0 58.9L421.6 58.9L421.6 62ZM421.6 54.7L421.6 57.4L422.9 57.4Q423.4 57.4 423.8 57.3Q424.1 57.1 424.3 56.8Q424.5 56.5 424.5 56.1L424.5 56.1Q424.5 55.7 424.3 55.4Q424.1 55.1 423.8 54.9Q423.4 54.7 422.9 54.7L422.9 54.7L421.6 54.7ZM429.9 62.1L429.9 62.1Q429.2 62.1 428.7 61.8Q428.2 61.5 427.9 60.9Q427.6 60.4 427.6 59.6L427.6 59.6L427.6 55.4L429.4 55.4L429.4 59.3Q429.4 59.9 429.7 60.3Q430.0 60.6 430.6 60.6L430.6 60.6Q430.9 60.6 431.2 60.5Q431.5 60.3 431.7 60.0Q431.8 59.7 431.8 59.2L431.8 59.2L431.8 55.4L433.6 55.4L433.6 62L431.9 62L431.9 60.6Q431.7 61.3 431.2 61.6L431.2 61.6Q430.7 62.1 429.9 62.1ZM437.7 62.1L437.7 62.1Q436.9 62.1 436.3 61.9Q435.7 61.7 435.3 61.2Q434.9 60.8 434.8 60.2L434.8 60.2L436.4 59.9Q436.6 60.4 436.9 60.6Q437.2 60.8 437.8 60.8L437.8 60.8Q438.3 60.8 438.5 60.6Q438.8 60.5 438.8 60.2L438.8 60.2Q438.8 59.9 438.6 59.7Q438.4 59.6 438.0 59.5L438.0 59.5L436.9 59.3Q435.9 59.1 435.4 58.6Q435.0 58.1 435.0 57.4L435.0 57.4Q435.0 56.8 435.3 56.3Q435.7 55.9 436.3 55.6Q436.9 55.4 437.7 55.4L437.7 55.4Q438.5 55.4 439.1 55.6Q439.6 55.8 440.0 56.2Q440.3 56.6 440.5 57.1L440.5 57.1L438.9 57.4Q438.8 57.1 438.5 56.8Q438.2 56.6 437.8 56.6L437.8 56.6Q437.3 56.6 437.0 56.8Q436.7 57.0 436.7 57.3L436.7 57.3Q436.7 57.5 436.9 57.7Q437.1 57.9 437.6 58.0L437.6 58.0L438.8 58.2Q439.7 58.4 440.2 58.8Q440.6 59.3 440.6 60.0L440.6 60.0Q440.6 60.6 440.3 61.1Q439.9 61.6 439.2 61.9Q438.6 62.1 437.7 62.1ZM443.8 55.4L445.1 55.4L445.1 56.8L443.8 56.8L443.8 60.1Q443.8 60.4 444.0 60.5Q444.1 60.7 444.4 60.7L444.4 60.7Q444.5 60.7 444.7 60.7Q444.9 60.6 445.0 60.6L445.0 60.6L445.3 61.9Q445.0 62.0 444.7 62.1Q444.4 62.1 444.1 62.1L444.1 62.1Q443.1 62.1 442.6 61.6Q442.1 61.1 442.1 60.2L442.1 60.2L442.1 56.8L441.2 56.8L441.2 55.4L442.1 55.4L442.1 53.9L443.8 53.9L443.8 55.4Z "/></g><defs><clipPath id="satori_bc-id-2-0-1-4" clip-path="url(#satori_cp-id)"><path x="467" y="45" width="45" height="25" d="M473,45 h33 a6,6 0 0 1 6,6 v13 a6,6 0 0 1 -6,6 h-33 a6,6 0 0 1 -6,-6 v-13 a6,6 0 0 1 6,-6"/></clipPath></defs><mask id="satori_om-id-2-0-1-4"><rect x="468" y="46" width="43" height="23" fill="#fff" mask="url(#satori_om-id)"/><path width="45" height="25" fill="none" stroke="#000" stroke-width="2" d="M468.757,46.757 A6,6 0 0 1 473,45 h33 a6,6 0 0 1 6,6 v13 a6,6 0 0 1 -6,6 h-33 a6,6 0 0 1 -6,-6 v-13 A6,6 0 0 1 468.757,46.757"/></mask><path x="467" y="45" width="45" height="25" fill="#a78bfa15" d="M473,45 h33 a6,6 0 0 1 6,6 v13 a6,6 0 0 1 -6,6 h-33 a6,6 0 0 1 -6,-6 v-13 a6,6 0 0 1 6,-6" clip-path="url(#satori_cp-id)" mask="url(#satori_om-id)"/><path width="45" height="25" clip-path="url(#satori_bc-id-2-0-1-4)" fill="none" stroke="#a78bfa35" stroke-width="2" d="M468.757,46.757 A6,6 0 0 1 473,45 h33 a6,6 0 0 1 6,6 v13 a6,6 0 0 1 -6,6 h-33 a6,6 0 0 1 -6,-6 v-13 A6,6 0 0 1 468.757,46.757"/><g mask="url(#satori_om-id)" clip-path="url(#satori_cp-id)"><path fill="rgba(225,220,255,0.85)" d="M485.7 62.1L485.7 62.1Q484.4 62.1 483.5 61.6Q482.6 61.0 482.1 60.0Q481.6 59.0 481.6 57.6L481.6 57.6Q481.6 56.2 482.1 55.2Q482.6 54.2 483.5 53.7Q484.5 53.2 485.6 53.2L485.6 53.2Q486.4 53.2 487.0 53.4Q487.6 53.6 488.1 54.0Q488.6 54.4 488.9 54.9Q489.2 55.4 489.3 56.1L489.3 56.1L487.5 56.1Q487.4 55.8 487.3 55.5Q487.1 55.3 486.9 55.1Q486.6 54.9 486.3 54.8Q486.0 54.7 485.6 54.7L485.6 54.7Q485.0 54.7 484.5 55.1Q483.9 55.4 483.7 56.1Q483.4 56.7 483.4 57.6Q483.4 58.6 483.7 59.2Q483.9 59.8 484.5 60.2Q485.0 60.5 485.7 60.5L485.7 60.5Q486.3 60.5 486.8 60.3Q487.2 60.1 487.5 59.6L487.5 59.6Q487.7 59.2 487.7 58.7L487.7 58.7L485.8 58.7L485.8 57.3L489.4 57.3L489.4 58.4Q489.4 59.6 488.9 60.4Q488.5 61.2 487.6 61.7Q486.8 62.1 485.7 62.1ZM493.7 62.1L493.7 62.1Q492.7 62.1 492.0 61.7Q491.3 61.3 490.9 60.5Q490.5 59.8 490.5 58.8L490.5 58.8Q490.5 57.7 490.9 57.0Q491.3 56.2 492.0 55.8Q492.7 55.4 493.7 55.4L493.7 55.4Q494.7 55.4 495.4 55.8Q496.1 56.2 496.5 57.0Q496.9 57.7 496.9 58.8L496.9 58.8Q496.9 59.8 496.5 60.5Q496.1 61.3 495.4 61.7Q494.7 62.1 493.7 62.1ZM493.7 60.7L493.7 60.7Q494.2 60.7 494.5 60.5Q494.8 60.2 494.9 59.8Q495.1 59.3 495.1 58.7L495.1 58.7Q495.1 58.2 494.9 57.7Q494.8 57.3 494.5 57.0Q494.2 56.8 493.7 56.8L493.7 56.8Q493.2 56.8 492.9 57.0Q492.6 57.3 492.4 57.7Q492.3 58.2 492.3 58.7L492.3 58.7Q492.3 59.3 492.4 59.8Q492.6 60.2 492.9 60.5Q493.2 60.7 493.7 60.7Z "/></g><mask id="satori_om-id-2-1"><rect x="33" y="84" width="794" height="25" fill="#fff" mask="url(#satori_om-id)"/></mask><mask id="satori_om-id-2-1-0"><rect x="33" y="91" width="80" height="12" fill="#fff" mask="url(#satori_om-id)"/></mask><g mask="url(#satori_om-id)" clip-path="url(#satori_cp-id)"><path fill="#60a5fa" d="M35.1 101L33.7 101L33.7 93.7L38.4 93.7L38.4 95.0L35.1 95.0L35.1 97.0L38.1 97.0L38.1 98.2L35.1 98.2L35.1 101ZM42.0 101L40.5 101L40.5 93.7L43.4 93.7Q44.2 93.7 44.8 94.0Q45.4 94.3 45.7 94.8Q46.0 95.4 46.0 96.1Q46.0 96.8 45.7 97.3Q45.3 97.9 44.8 98.1L44.8 98.1Q44.7 98.1 44.7 98.2L44.7 98.2L46.2 101L44.6 101L43.2 98.4L42.0 98.4L42.0 101ZM42.0 95.0L42.0 97.2L43.1 97.2Q43.6 97.2 43.8 97.1Q44.1 96.9 44.3 96.7Q44.4 96.5 44.4 96.1L44.4 96.1Q44.4 95.7 44.3 95.5Q44.1 95.2 43.8 95.1Q43.5 95.0 43.1 95.0L43.1 95.0L42.0 95.0ZM49.3 101L47.7 101L50.2 93.7L52.1 93.7L54.7 101L53.0 101L52.4 99.3L49.9 99.3L49.3 101ZM50.2 98.1L52.1 98.1L51.8 97.5Q51.6 96.8 51.4 96L51.4 96Q51.3 95.5 51.1 94.9L51.1 94.9Q51.0 95.5 50.8 96.0L50.8 96.0Q50.6 96.8 50.4 97.5L50.4 97.5L50.2 98.1ZM58.0 101L56.6 101L56.6 93.7L58.8 93.7L60.0 97.1Q60.1 97.3 60.2 97.7Q60.3 98.0 60.4 98.5L60.4 98.5Q60.5 98.9 60.6 99.3L60.6 99.3Q60.7 98.9 60.7 98.5L60.7 98.5Q60.8 98.1 60.9 97.7Q61.0 97.3 61.1 97.1L61.1 97.1L62.3 93.7L64.6 93.7L64.6 101L63.1 101L63.1 97.6Q63.1 97.3 63.1 97.0Q63.1 96.6 63.1 96.2Q63.1 95.8 63.1 95.4L63.1 95.4Q63.1 95.2 63.1 95.0L63.1 95.0Q63.1 95.2 63.0 95.4L63.0 95.4Q62.9 95.9 62.8 96.3Q62.7 96.7 62.6 97.0Q62.5 97.3 62.4 97.6L62.4 97.6L61.2 101L59.9 101L58.7 97.6Q58.6 97.3 58.5 97.0Q58.4 96.7 58.3 96.3Q58.2 95.9 58.1 95.4L58.1 95.4Q58.0 95.2 58.0 95.1L58.0 95.1Q58.0 95.2 58.0 95.4L58.0 95.4Q58.0 95.8 58.0 96.2Q58.0 96.6 58.0 97.0Q58.0 97.3 58.0 97.6L58.0 97.6L58.0 101ZM71.8 101L66.9 101L66.9 93.7L71.7 93.7L71.7 95.0L68.4 95.0L68.4 96.7L71.5 96.7L71.5 97.9L68.4 97.9L68.4 99.8L71.8 99.8L71.8 101ZM77.2 101L75.5 101L73.5 93.7L75.2 93.7L76.0 97.3Q76.1 97.8 76.2 98.3Q76.3 98.8 76.4 99.3L76.4 99.3Q76.4 99.4 76.4 99.5L76.4 99.5Q76.4 99.4 76.4 99.3L76.4 99.3Q76.5 98.8 76.6 98.3Q76.7 97.8 76.8 97.3L76.8 97.3L77.7 93.7L79.3 93.7L80.1 97.3Q80.3 97.8 80.3 98.3Q80.4 98.8 80.5 99.3L80.5 99.3Q80.5 99.4 80.6 99.5L80.6 99.5Q80.6 99.4 80.6 99.3L80.6 99.3Q80.7 98.8 80.8 98.3Q80.9 97.8 81.0 97.3L81.0 97.3L81.8 93.7L83.4 93.7L81.5 101L79.8 101L78.8 97.3Q78.6 96.7 78.5 95.9L78.5 95.9Q78.5 95.7 78.5 95.5L78.5 95.5Q78.4 95.7 78.4 95.9L78.4 95.9Q78.3 96.6 78.2 97.3L78.2 97.3L77.2 101ZM88.5 101.1L88.5 101.1Q87.6 101.1 86.8 100.7Q86.0 100.2 85.6 99.4Q85.1 98.5 85.1 97.4L85.1 97.4Q85.1 96.2 85.6 95.3Q86.0 94.5 86.8 94.1Q87.6 93.6 88.5 93.6L88.5 93.6Q89.5 93.6 90.3 94.1Q91.0 94.5 91.5 95.3Q91.9 96.2 91.9 97.4L91.9 97.4Q91.9 98.5 91.5 99.4Q91.0 100.2 90.3 100.7Q89.5 101.1 88.5 101.1ZM88.5 99.8L88.5 99.8Q89.1 99.8 89.5 99.5Q89.9 99.2 90.2 98.7Q90.4 98.1 90.4 97.4L90.4 97.4Q90.4 96.6 90.2 96.0Q89.9 95.5 89.5 95.2Q89.1 95.0 88.5 95.0L88.5 95.0Q88.0 95.0 87.5 95.2Q87.1 95.5 86.9 96.0Q86.6 96.6 86.6 97.4L86.6 97.4Q86.6 98.1 86.9 98.7Q87.1 99.2 87.5 99.5Q88.0 99.8 88.5 99.8ZM95.5 101L94.0 101L94.0 93.7L96.9 93.7Q97.7 93.7 98.3 94.0Q98.9 94.3 99.2 94.8Q99.5 95.4 99.5 96.1Q99.5 96.8 99.2 97.3Q98.9 97.9 98.3 98.1L98.3 98.1Q98.2 98.1 98.2 98.2L98.2 98.2L99.7 101L98.1 101L96.7 98.4L95.5 98.4L95.5 101ZM95.5 95.0L95.5 97.2L96.6 97.2Q97.1 97.2 97.3 97.1Q97.6 96.9 97.8 96.7Q97.9 96.5 97.9 96.1L97.9 96.1Q97.9 95.7 97.8 95.5Q97.6 95.2 97.3 95.1Q97.1 95.0 96.6 95.0L96.6 95.0L95.5 95.0ZM103.1 101L101.6 101L101.6 93.7L103.1 93.7L103.1 95.7L103.1 97.4Q103.1 97.3 103.1 97.3L103.1 97.3Q103.4 96.9 103.6 96.6Q103.9 96.2 104.2 95.8L104.2 95.8L106.0 93.7L107.8 93.7L105.1 96.9L107.9 101L106.1 101L104.1 97.9L103.1 98.9L103.1 101ZM112.5 101.1L112.5 101.1Q111.6 101.1 110.9 100.8Q110.3 100.6 109.9 100.0Q109.6 99.5 109.5 98.7L109.5 98.7L111.0 98.7Q111.0 99.1 111.2 99.4Q111.4 99.6 111.7 99.7Q112.0 99.8 112.4 99.8L112.4 99.8Q112.8 99.8 113.1 99.7Q113.4 99.6 113.6 99.4Q113.8 99.2 113.8 98.9L113.8 98.9Q113.8 98.7 113.6 98.5Q113.5 98.3 113.2 98.2Q112.9 98.1 112.5 98.0L112.5 98.0L111.7 97.8Q110.8 97.6 110.3 97.1Q109.7 96.6 109.7 95.8L109.7 95.8Q109.7 95.2 110.1 94.7Q110.5 94.2 111.1 93.9Q111.7 93.6 112.5 93.6L112.5 93.6Q113.3 93.6 113.9 93.9Q114.5 94.2 114.8 94.7Q115.2 95.2 115.2 95.8L115.2 95.8L113.7 95.8Q113.7 95.4 113.4 95.1Q113.0 94.9 112.5 94.9L112.5 94.9Q112.1 94.9 111.8 95.0Q111.6 95.1 111.4 95.3Q111.3 95.5 111.3 95.7L111.3 95.7Q111.3 96.0 111.4 96.2Q111.6 96.3 111.9 96.5Q112.1 96.6 112.4 96.6L112.4 96.6L113.1 96.8Q113.6 96.9 113.9 97.1Q114.3 97.3 114.6 97.5Q114.9 97.8 115.1 98.1Q115.3 98.5 115.3 98.9L115.3 98.9Q115.3 99.6 114.9 100.1Q114.6 100.6 114.0 100.8Q113.3 101.1 112.5 101.1Z "/></g><mask id="satori_om-id-2-1-1"><rect x="129" y="84" width="249" height="25" fill="#fff" mask="url(#satori_om-id)"/></mask><defs><clipPath id="satori_bc-id-2-1-1-0" clip-path="url(#satori_cp-id)"><path x="129" y="84" width="103" height="25" d="M135,84 h91 a6,6 0 0 1 6,6 v13 a6,6 0 0 1 -6,6 h-91 a6,6 0 0 1 -6,-6 v-13 a6,6 0 0 1 6,-6"/></clipPath></defs><mask id="satori_om-id-2-1-1-0"><rect x="130" y="85" width="101" height="23" fill="#fff" mask="url(#satori_om-id)"/><path width="103" height="25" fill="none" stroke="#000" stroke-width="2" d="M130.757,85.757 A6,6 0 0 1 135,84 h91 a6,6 0 0 1 6,6 v13 a6,6 0 0 1 -6,6 h-91 a6,6 0 0 1 -6,-6 v-13 A6,6 0 0 1 130.757,85.757"/></mask><path x="129" y="84" width="103" height="25" fill="#60a5fa15" d="M135,84 h91 a6,6 0 0 1 6,6 v13 a6,6 0 0 1 -6,6 h-91 a6,6 0 0 1 -6,-6 v-13 a6,6 0 0 1 6,-6" clip-path="url(#satori_cp-id)" mask="url(#satori_om-id)"/><path width="103" height="25" clip-path="url(#satori_bc-id-2-1-1-0)" fill="none" stroke="#60a5fa35" stroke-width="2" d="M130.757,85.757 A6,6 0 0 1 135,84 h91 a6,6 0 0 1 6,6 v13 a6,6 0 0 1 -6,6 h-91 a6,6 0 0 1 -6,-6 v-13 A6,6 0 0 1 130.757,85.757"/><g mask="url(#satori_om-id)" clip-path="url(#satori_cp-id)"><path fill="rgba(225,220,255,0.85)" d="M145.6 101L143.8 101L143.8 92.3L147.2 92.3Q148.2 92.3 148.9 92.6Q149.6 93.0 150.0 93.6Q150.3 94.3 150.3 95.1Q150.3 96.0 149.9 96.6Q149.6 97.2 148.9 97.5L148.9 97.5Q148.8 97.6 148.8 97.6L148.8 97.6L150.6 101L148.6 101L147.0 97.9L145.6 97.9L145.6 101ZM145.6 93.7L145.6 96.4L146.9 96.4Q147.4 96.4 147.8 96.3Q148.1 96.1 148.3 95.8Q148.5 95.5 148.5 95.1L148.5 95.1Q148.5 94.7 148.3 94.4Q148.1 94.1 147.8 93.9Q147.4 93.7 146.9 93.7L146.9 93.7L145.6 93.7ZM154.6 101.1L154.6 101.1Q153.6 101.1 152.9 100.7Q152.1 100.3 151.7 99.6Q151.4 98.8 151.4 97.8L151.4 97.8Q151.4 96.7 151.7 96.0Q152.1 95.2 152.8 94.8Q153.5 94.4 154.5 94.4L154.5 94.4Q155.1 94.4 155.7 94.6Q156.3 94.8 156.7 95.2Q157.1 95.6 157.3 96.2Q157.6 96.8 157.6 97.7L157.6 97.7L157.6 98.2L153.1 98.2Q153.1 98.7 153.3 99.0L153.3 99.0Q153.5 99.4 153.8 99.6Q154.2 99.8 154.6 99.8L154.6 99.8Q154.9 99.8 155.2 99.7Q155.4 99.6 155.6 99.5Q155.8 99.3 155.9 99.0L155.9 99.0L157.5 99.3Q157.3 99.9 156.9 100.3Q156.5 100.7 155.9 100.9Q155.4 101.1 154.6 101.1ZM153.1 97.1L153.1 97.1L155.9 97.1Q155.8 96.8 155.7 96.5L155.7 96.5Q155.6 96.1 155.3 95.9Q155.0 95.7 154.5 95.7L154.5 95.7Q154.1 95.7 153.7 95.9Q153.4 96.1 153.3 96.5L153.3 96.5Q153.1 96.7 153.1 97.1ZM160.6 101.1L160.6 101.1Q160.0 101.1 159.5 100.9Q159.0 100.7 158.7 100.3Q158.4 99.8 158.4 99.2L158.4 99.2Q158.4 98.6 158.6 98.3Q158.8 97.9 159.2 97.7Q159.5 97.4 160.0 97.3Q160.4 97.2 160.9 97.2L160.9 97.2Q161.5 97.1 161.8 97.0Q162.2 97.0 162.3 96.9Q162.5 96.8 162.5 96.6L162.5 96.6L162.5 96.5Q162.5 96.3 162.4 96.1Q162.3 95.9 162.0 95.8Q161.8 95.7 161.5 95.7L161.5 95.7Q161.1 95.7 160.9 95.8Q160.6 95.9 160.5 96.0Q160.3 96.2 160.2 96.4L160.2 96.4L158.6 96.2Q158.8 95.6 159.2 95.2Q159.6 94.8 160.2 94.6Q160.7 94.4 161.5 94.4L161.5 94.4Q162.0 94.4 162.5 94.5Q163.0 94.6 163.4 94.9Q163.8 95.1 164.0 95.6Q164.2 96.0 164.2 96.6L164.2 96.6L164.2 101L162.6 101L162.6 100.1L162.5 100.1Q162.4 100.4 162.1 100.6Q161.8 100.9 161.5 101.0Q161.1 101.1 160.6 101.1ZM161.1 99.9L161.1 99.9Q161.5 99.9 161.8 99.7Q162.1 99.6 162.3 99.3Q162.5 99.0 162.5 98.7L162.5 98.7L162.5 97.9Q162.4 98.0 162.3 98.1Q162.1 98.1 161.9 98.1Q161.7 98.2 161.5 98.2Q161.3 98.2 161.2 98.2L161.2 98.2Q160.9 98.3 160.6 98.4Q160.4 98.5 160.3 98.7Q160.1 98.8 160.1 99.1L160.1 99.1Q160.1 99.4 160.2 99.5Q160.4 99.7 160.6 99.8Q160.8 99.9 161.1 99.9ZM168.7 101.1L168.7 101.1Q167.7 101.1 167.0 100.7Q166.3 100.3 165.9 99.5Q165.5 98.8 165.5 97.8L165.5 97.8Q165.5 96.7 165.9 96.0Q166.3 95.2 167.0 94.8Q167.7 94.4 168.7 94.4L168.7 94.4Q169.3 94.4 169.7 94.5Q170.2 94.7 170.6 95.0Q171.0 95.2 171.2 95.6Q171.5 96.0 171.6 96.5L171.6 96.5L170.0 96.9Q169.9 96.6 169.8 96.4Q169.7 96.2 169.5 96.0Q169.4 95.9 169.2 95.8Q168.9 95.8 168.7 95.8L168.7 95.8Q168.2 95.8 167.9 96.0Q167.6 96.3 167.4 96.7Q167.3 97.2 167.3 97.7L167.3 97.7Q167.3 98.3 167.4 98.8Q167.6 99.2 167.9 99.5Q168.2 99.7 168.7 99.7L168.7 99.7Q168.9 99.7 169.2 99.7Q169.4 99.6 169.5 99.4Q169.7 99.3 169.8 99.1Q169.9 98.9 170.0 98.6L170.0 98.6L171.6 98.9Q171.5 99.4 171.3 99.8Q171.0 100.2 170.6 100.5Q170.3 100.8 169.8 101.0Q169.3 101.1 168.7 101.1ZM174.8 94.4L176.1 94.4L176.1 95.8L174.8 95.8L174.8 99.1Q174.8 99.4 175.0 99.5Q175.1 99.7 175.4 99.7L175.4 99.7Q175.5 99.7 175.7 99.7Q175.9 99.6 176.0 99.6L176.0 99.6L176.2 100.9Q175.9 101.0 175.7 101.1Q175.4 101.1 175.1 101.1L175.1 101.1Q174.1 101.1 173.6 100.6Q173.1 100.1 173.1 99.2L173.1 99.2L173.1 95.8L172.2 95.8L172.2 94.4L173.1 94.4L173.1 92.9L174.8 92.9L174.8 94.4Z M181.9 101L180.1 101L180.1 92.3L182.1 92.3L184.8 96.7Q185.0 97.0 185.3 97.4Q185.5 97.8 185.7 98.3L185.7 98.3Q185.8 98.6 185.9 98.8L185.9 98.8Q185.9 98.6 185.9 98.4L185.9 98.4Q185.9 97.8 185.8 97.3Q185.8 96.8 185.8 96.5L185.8 96.5L185.8 92.3L187.6 92.3L187.6 101L185.7 101L183.1 97.0Q182.9 96.5 182.6 96.1Q182.4 95.7 182.1 95.2L182.1 95.2Q182.0 94.9 181.8 94.5L181.8 94.5Q181.8 94.8 181.8 95.2L181.8 95.2Q181.9 95.7 181.9 96.2Q181.9 96.7 181.9 97.0L181.9 97.0L181.9 101ZM191.0 101.1L191.0 101.1Q190.4 101.1 189.9 100.9Q189.4 100.7 189.1 100.3Q188.8 99.8 188.8 99.2L188.8 99.2Q188.8 98.6 189.0 98.3Q189.2 97.9 189.6 97.7Q189.9 97.4 190.4 97.3Q190.8 97.2 191.3 97.2L191.3 97.2Q191.9 97.1 192.2 97.0Q192.6 97.0 192.7 96.9Q192.9 96.8 192.9 96.6L192.9 96.6L192.9 96.5Q192.9 96.3 192.8 96.1Q192.7 95.9 192.4 95.8Q192.2 95.7 191.9 95.7L191.9 95.7Q191.5 95.7 191.3 95.8Q191.0 95.9 190.9 96.0Q190.7 96.2 190.6 96.4L190.6 96.4L189.0 96.2Q189.2 95.6 189.6 95.2Q190.0 94.8 190.6 94.6Q191.1 94.4 191.9 94.4L191.9 94.4Q192.4 94.4 192.9 94.5Q193.4 94.6 193.8 94.9Q194.2 95.1 194.4 95.6Q194.7 96.0 194.7 96.6L194.7 96.6L194.7 101L193.0 101L193.0 100.1L192.9 100.1Q192.8 100.4 192.5 100.6Q192.2 100.9 191.9 101.0Q191.5 101.1 191.0 101.1ZM191.5 99.9L191.5 99.9Q191.9 99.9 192.2 99.7Q192.6 99.6 192.7 99.3Q192.9 99.0 192.9 98.7L192.9 98.7L192.9 97.9Q192.8 98.0 192.7 98.1Q192.5 98.1 192.3 98.1Q192.1 98.2 191.9 98.2Q191.8 98.2 191.6 98.2L191.6 98.2Q191.3 98.3 191.0 98.4Q190.8 98.5 190.7 98.7Q190.5 98.8 190.5 99.1L190.5 99.1Q190.5 99.4 190.7 99.5Q190.8 99.7 191.0 99.8Q191.2 99.9 191.5 99.9ZM198.2 94.4L199.4 94.4L199.4 95.8L198.2 95.8L198.2 99.1Q198.2 99.4 198.3 99.5Q198.5 99.7 198.8 99.7L198.8 99.7Q198.9 99.7 199.1 99.7Q199.2 99.6 199.3 99.6L199.3 99.6L199.6 100.9Q199.3 101.0 199.0 101.1Q198.7 101.1 198.5 101.1L198.5 101.1Q197.5 101.1 196.9 100.6Q196.4 100.1 196.4 99.2L196.4 99.2L196.4 95.8L195.5 95.8L195.5 94.4L196.4 94.4L196.4 92.9L198.2 92.9L198.2 94.4ZM202.3 101L200.6 101L200.6 94.4L202.3 94.4L202.3 101ZM201.4 93.6L201.4 93.6Q201.0 93.6 200.8 93.3Q200.5 93.1 200.5 92.7L200.5 92.7Q200.5 92.3 200.8 92.1Q201.0 91.8 201.4 91.8L201.4 91.8Q201.8 91.8 202.1 92.0Q202.4 92.3 202.4 92.7L202.4 92.7Q202.4 93.1 202.1 93.3Q201.8 93.6 201.4 93.6ZM207.6 101L205.6 101L203.2 94.4L205.1 94.4L206.2 97.8Q206.4 98.5 206.6 99.1L206.6 99.1Q206.6 99.4 206.7 99.6L206.7 99.6Q206.7 99.4 206.8 99.1L206.8 99.1Q206.9 98.5 207.1 97.8L207.1 97.8L208.2 94.4L210.1 94.4L207.6 101ZM214.0 101.1L214.0 101.1Q213.0 101.1 212.2 100.7Q211.5 100.3 211.1 99.6Q210.7 98.8 210.7 97.8L210.7 97.8Q210.7 96.7 211.1 96.0Q211.5 95.2 212.2 94.8Q212.9 94.4 213.9 94.4L213.9 94.4Q214.5 94.4 215.1 94.6Q215.6 94.8 216.0 95.2Q216.5 95.6 216.7 96.2Q216.9 96.8 216.9 97.7L216.9 97.7L216.9 98.2L212.5 98.2Q212.5 98.7 212.7 99.0L212.7 99.0Q212.8 99.4 213.2 99.6Q213.5 99.8 214.0 99.8L214.0 99.8Q214.3 99.8 214.5 99.7Q214.8 99.6 215.0 99.5Q215.2 99.3 215.3 99.0L215.3 99.0L216.8 99.3Q216.7 99.9 216.3 100.3Q215.9 100.7 215.3 100.9Q214.7 101.1 214.0 101.1ZM212.5 97.1L212.5 97.1L215.3 97.1Q215.2 96.8 215.1 96.5L215.1 96.5Q215.0 96.1 214.6 95.9Q214.3 95.7 213.9 95.7L213.9 95.7Q213.4 95.7 213.1 95.9Q212.8 96.1 212.6 96.5L212.6 96.5Q212.5 96.7 212.5 97.1Z "/></g><defs><clipPath id="satori_bc-id-2-1-1-1" clip-path="url(#satori_cp-id)"><path x="239" y="84" width="62" height="25" d="M245,84 h50 a6,6 0 0 1 6,6 v13 a6,6 0 0 1 -6,6 h-50 a6,6 0 0 1 -6,-6 v-13 a6,6 0 0 1 6,-6"/></clipPath></defs><mask id="satori_om-id-2-1-1-1"><rect x="240" y="85" width="60" height="23" fill="#fff" mask="url(#satori_om-id)"/><path width="62" height="25" fill="none" stroke="#000" stroke-width="2" d="M240.757,85.757 A6,6 0 0 1 245,84 h50 a6,6 0 0 1 6,6 v13 a6,6 0 0 1 -6,6 h-50 a6,6 0 0 1 -6,-6 v-13 A6,6 0 0 1 240.757,85.757"/></mask><path x="239" y="84" width="62" height="25" fill="#60a5fa15" d="M245,84 h50 a6,6 0 0 1 6,6 v13 a6,6 0 0 1 -6,6 h-50 a6,6 0 0 1 -6,-6 v-13 a6,6 0 0 1 6,-6" clip-path="url(#satori_cp-id)" mask="url(#satori_om-id)"/><path width="62" height="25" clip-path="url(#satori_bc-id-2-1-1-1)" fill="none" stroke="#60a5fa35" stroke-width="2" d="M240.757,85.757 A6,6 0 0 1 245,84 h50 a6,6 0 0 1 6,6 v13 a6,6 0 0 1 -6,6 h-50 a6,6 0 0 1 -6,-6 v-13 A6,6 0 0 1 240.757,85.757"/><g mask="url(#satori_om-id)" clip-path="url(#satori_cp-id)"><path fill="rgba(225,220,255,0.85)" d="M255.6 101L253.8 101L253.8 92.3L257.2 92.3Q258.2 92.3 258.9 92.6Q259.6 93.0 260.0 93.6Q260.3 94.3 260.3 95.1Q260.3 96.0 259.9 96.6Q259.6 97.2 258.9 97.5L258.9 97.5Q258.8 97.6 258.8 97.6L258.8 97.6L260.6 101L258.6 101L257.0 97.9L255.6 97.9L255.6 101ZM255.6 93.7L255.6 96.4L256.9 96.4Q257.4 96.4 257.8 96.3Q258.1 96.1 258.3 95.8Q258.5 95.5 258.5 95.1L258.5 95.1Q258.5 94.7 258.3 94.4Q258.1 94.1 257.8 93.9Q257.4 93.7 256.9 93.7L256.9 93.7L255.6 93.7ZM264.6 101.1L264.6 101.1Q263.6 101.1 262.9 100.7Q262.1 100.3 261.7 99.6Q261.4 98.8 261.4 97.8L261.4 97.8Q261.4 96.7 261.7 96.0Q262.1 95.2 262.8 94.8Q263.5 94.4 264.5 94.4L264.5 94.4Q265.1 94.4 265.7 94.6Q266.3 94.8 266.7 95.2Q267.1 95.6 267.3 96.2Q267.6 96.8 267.6 97.7L267.6 97.7L267.6 98.2L263.1 98.2Q263.1 98.7 263.3 99.0L263.3 99.0Q263.5 99.4 263.8 99.6Q264.2 99.8 264.6 99.8L264.6 99.8Q264.9 99.8 265.2 99.7Q265.4 99.6 265.6 99.5Q265.8 99.3 265.9 99.0L265.9 99.0L267.5 99.3Q267.3 99.9 266.9 100.3Q266.5 100.7 265.9 100.9Q265.4 101.1 264.6 101.1ZM263.1 97.1L263.1 97.1L265.9 97.1Q265.8 96.8 265.7 96.5L265.7 96.5Q265.6 96.1 265.3 95.9Q265.0 95.7 264.5 95.7L264.5 95.7Q264.1 95.7 263.7 95.9Q263.4 96.1 263.3 96.5L263.3 96.5Q263.1 96.7 263.1 97.1ZM270.6 101.1L270.6 101.1Q270.0 101.1 269.5 100.9Q269.0 100.7 268.7 100.3Q268.4 99.8 268.4 99.2L268.4 99.2Q268.4 98.6 268.6 98.3Q268.8 97.9 269.2 97.7Q269.5 97.4 270.0 97.3Q270.4 97.2 270.9 97.2L270.9 97.2Q271.5 97.1 271.8 97.0Q272.2 97.0 272.3 96.9Q272.5 96.8 272.5 96.6L272.5 96.6L272.5 96.5Q272.5 96.3 272.4 96.1Q272.3 95.9 272.0 95.8Q271.8 95.7 271.5 95.7L271.5 95.7Q271.1 95.7 270.9 95.8Q270.6 95.9 270.5 96.0Q270.3 96.2 270.2 96.4L270.2 96.4L268.6 96.2Q268.8 95.6 269.2 95.2Q269.6 94.8 270.2 94.6Q270.7 94.4 271.5 94.4L271.5 94.4Q272.0 94.4 272.5 94.5Q273.0 94.6 273.4 94.9Q273.8 95.1 274.0 95.6Q274.2 96.0 274.2 96.6L274.2 96.6L274.2 101L272.6 101L272.6 100.1L272.5 100.1Q272.4 100.4 272.1 100.6Q271.8 100.9 271.5 101.0Q271.1 101.1 270.6 101.1ZM271.1 99.9L271.1 99.9Q271.5 99.9 271.8 99.7Q272.1 99.6 272.3 99.3Q272.5 99.0 272.5 98.7L272.5 98.7L272.5 97.9Q272.4 98.0 272.3 98.1Q272.1 98.1 271.9 98.1Q271.7 98.2 271.5 98.2Q271.3 98.2 271.2 98.2L271.2 98.2Q270.9 98.3 270.6 98.4Q270.4 98.5 270.3 98.7Q270.1 98.8 270.1 99.1L270.1 99.1Q270.1 99.4 270.2 99.5Q270.4 99.7 270.6 99.8Q270.8 99.9 271.1 99.9ZM278.7 101.1L278.7 101.1Q277.7 101.1 277.0 100.7Q276.3 100.3 275.9 99.5Q275.5 98.8 275.5 97.8L275.5 97.8Q275.5 96.7 275.9 96.0Q276.3 95.2 277.0 94.8Q277.7 94.4 278.7 94.4L278.7 94.4Q279.3 94.4 279.7 94.5Q280.2 94.7 280.6 95.0Q281.0 95.2 281.2 95.6Q281.5 96.0 281.6 96.5L281.6 96.5L280.0 96.9Q279.9 96.6 279.8 96.4Q279.7 96.2 279.5 96.0Q279.4 95.9 279.2 95.8Q278.9 95.8 278.7 95.8L278.7 95.8Q278.2 95.8 277.9 96.0Q277.6 96.3 277.4 96.7Q277.3 97.2 277.3 97.7L277.3 97.7Q277.3 98.3 277.4 98.8Q277.6 99.2 277.9 99.5Q278.2 99.7 278.7 99.7L278.7 99.7Q278.9 99.7 279.2 99.7Q279.4 99.6 279.5 99.4Q279.7 99.3 279.8 99.1Q279.9 98.9 280.0 98.6L280.0 98.6L281.6 98.9Q281.5 99.4 281.3 99.8Q281.0 100.2 280.6 100.5Q280.3 100.8 279.8 101.0Q279.3 101.1 278.7 101.1ZM284.8 94.4L286.1 94.4L286.1 95.8L284.8 95.8L284.8 99.1Q284.8 99.4 285.0 99.5Q285.1 99.7 285.4 99.7L285.4 99.7Q285.5 99.7 285.7 99.7Q285.9 99.6 286.0 99.6L286.0 99.6L286.2 100.9Q285.9 101.0 285.7 101.1Q285.4 101.1 285.1 101.1L285.1 101.1Q284.1 101.1 283.6 100.6Q283.1 100.1 283.1 99.2L283.1 99.2L283.1 95.8L282.2 95.8L282.2 94.4L283.1 94.4L283.1 92.9L284.8 92.9L284.8 94.4Z "/></g><defs><clipPath id="satori_bc-id-2-1-1-2" clip-path="url(#satori_cp-id)"><path x="308" y="84" width="70" height="25" d="M314,84 h58 a6,6 0 0 1 6,6 v13 a6,6 0 0 1 -6,6 h-58 a6,6 0 0 1 -6,-6 v-13 a6,6 0 0 1 6,-6"/></clipPath></defs><mask id="satori_om-id-2-1-1-2"><rect x="309" y="85" width="68" height="23" fill="#fff" mask="url(#satori_om-id)"/><path width="70" height="25" fill="none" stroke="#000" stroke-width="2" d="M309.757,85.757 A6,6 0 0 1 314,84 h58 a6,6 0 0 1 6,6 v13 a6,6 0 0 1 -6,6 h-58 a6,6 0 0 1 -6,-6 v-13 A6,6 0 0 1 309.757,85.757"/></mask><path x="308" y="84" width="70" height="25" fill="#60a5fa15" d="M314,84 h58 a6,6 0 0 1 6,6 v13 a6,6 0 0 1 -6,6 h-58 a6,6 0 0 1 -6,-6 v-13 a6,6 0 0 1 6,-6" clip-path="url(#satori_cp-id)" mask="url(#satori_om-id)"/><path width="70" height="25" clip-path="url(#satori_bc-id-2-1-1-2)" fill="none" stroke="#60a5fa35" stroke-width="2" d="M309.757,85.757 A6,6 0 0 1 314,84 h58 a6,6 0 0 1 6,6 v13 a6,6 0 0 1 -6,6 h-58 a6,6 0 0 1 -6,-6 v-13 A6,6 0 0 1 309.757,85.757"/><g mask="url(#satori_om-id)" clip-path="url(#satori_cp-id)"><path fill="rgba(225,220,255,0.85)" d="M324.6 101L322.8 101L322.8 92.3L324.8 92.3L327.5 96.7Q327.8 97.0 328.0 97.4Q328.2 97.8 328.4 98.3L328.4 98.3Q328.5 98.6 328.6 98.8L328.6 98.8Q328.6 98.6 328.6 98.4L328.6 98.4Q328.6 97.8 328.6 97.3Q328.5 96.8 328.5 96.5L328.5 96.5L328.5 92.3L330.4 92.3L330.4 101L328.4 101L325.8 97.0Q325.6 96.5 325.3 96.1Q325.1 95.7 324.9 95.2L324.9 95.2Q324.7 94.9 324.5 94.5L324.5 94.5Q324.5 94.8 324.5 95.2L324.5 95.2Q324.6 95.7 324.6 96.2Q324.6 96.7 324.6 97.0L324.6 97.0L324.6 101ZM334.9 101.1L334.9 101.1Q333.9 101.1 333.1 100.7Q332.4 100.3 332.0 99.6Q331.6 98.8 331.6 97.8L331.6 97.8Q331.6 96.7 332.0 96.0Q332.4 95.2 333.1 94.8Q333.8 94.4 334.8 94.4L334.8 94.4Q335.4 94.4 336.0 94.6Q336.5 94.8 336.9 95.2Q337.4 95.6 337.6 96.2Q337.8 96.8 337.8 97.7L337.8 97.7L337.8 98.2L333.4 98.2Q333.4 98.7 333.6 99.0L333.6 99.0Q333.7 99.4 334.1 99.6Q334.4 99.8 334.9 99.8L334.9 99.8Q335.2 99.8 335.4 99.7Q335.7 99.6 335.9 99.5Q336.1 99.3 336.2 99.0L336.2 99.0L337.7 99.3Q337.6 99.9 337.2 100.3Q336.8 100.7 336.2 100.9Q335.6 101.1 334.9 101.1ZM333.4 97.1L333.4 97.1L336.2 97.1Q336.1 96.8 336.0 96.5L336.0 96.5Q335.9 96.1 335.5 95.9Q335.2 95.7 334.8 95.7L334.8 95.7Q334.3 95.7 334.0 95.9Q333.7 96.1 333.5 96.5L333.5 96.5Q333.4 96.7 333.4 97.1ZM340.4 101L338.5 101L340.7 97.6L338.7 94.4L340.6 94.4L341.2 95.5Q341.4 96.0 341.7 96.5L341.7 96.5Q341.7 96.6 341.8 96.8L341.8 96.8Q341.9 96.6 341.9 96.5L341.9 96.5Q342.1 96.0 342.4 95.5L342.4 95.5L343.1 94.4L344.9 94.4L342.9 97.7L345.0 101L343.1 101L342.4 99.8Q342.1 99.3 341.9 98.8L341.9 98.8Q341.8 98.6 341.8 98.5L341.8 98.5Q341.7 98.6 341.6 98.8L341.6 98.8Q341.4 99.3 341.1 99.8L341.1 99.8L340.4 101ZM348.0 94.4L349.3 94.4L349.3 95.8L348.0 95.8L348.0 99.1Q348.0 99.4 348.2 99.5Q348.3 99.7 348.6 99.7L348.6 99.7Q348.7 99.7 348.9 99.7Q349.1 99.6 349.2 99.6L349.2 99.6L349.4 100.9Q349.1 101.0 348.9 101.1Q348.6 101.1 348.3 101.1L348.3 101.1Q347.3 101.1 346.8 100.6Q346.3 100.1 346.3 99.2L346.3 99.2L346.3 95.8L345.4 95.8L345.4 94.4L346.3 94.4L346.3 92.9L348.0 92.9L348.0 94.4ZM351.7 101.1L351.7 101.1Q351.2 101.1 350.9 100.8Q350.6 100.5 350.6 100.1L350.6 100.1Q350.6 99.7 350.9 99.4Q351.2 99.1 351.7 99.1L351.7 99.1Q352.1 99.1 352.4 99.4Q352.7 99.7 352.7 100.1L352.7 100.1Q352.7 100.5 352.4 100.8Q352.1 101.1 351.7 101.1ZM354.4 101.3L354.4 94.4L356.2 94.4L356.2 101.3Q356.2 102.1 355.9 102.5Q355.6 103.0 355.0 103.2Q354.5 103.4 353.7 103.4L353.7 103.4L353.4 103.4L353.4 102.1L353.6 102.1Q354.0 102.1 354.2 101.9Q354.4 101.7 354.4 101.3L354.4 101.3ZM355.3 93.6L355.3 93.6Q354.9 93.6 354.6 93.3Q354.3 93.1 354.3 92.7L354.3 92.7Q354.3 92.3 354.6 92.1Q354.9 91.8 355.3 91.8L355.3 91.8Q355.7 91.8 356.0 92.0Q356.3 92.3 356.3 92.7L356.3 92.7Q356.3 93.1 356.0 93.3Q355.7 93.6 355.3 93.6ZM360.3 101.1L360.3 101.1Q359.5 101.1 358.9 100.9Q358.3 100.7 357.9 100.2Q357.5 99.8 357.4 99.2L357.4 99.2L359.0 98.9Q359.1 99.4 359.5 99.6Q359.8 99.8 360.3 99.8L360.3 99.8Q360.8 99.8 361.1 99.6Q361.4 99.5 361.4 99.2L361.4 99.2Q361.4 98.9 361.2 98.7Q361.0 98.6 360.6 98.5L360.6 98.5L359.4 98.3Q358.5 98.1 358.0 97.6Q357.5 97.1 357.5 96.4L357.5 96.4Q357.5 95.8 357.9 95.3Q358.2 94.9 358.8 94.6Q359.5 94.4 360.3 94.4L360.3 94.4Q361.1 94.4 361.6 94.6Q362.2 94.8 362.6 95.2Q362.9 95.6 363.0 96.1L363.0 96.1L361.5 96.4Q361.4 96.1 361.1 95.8Q360.8 95.6 360.3 95.6L360.3 95.6Q359.9 95.6 359.6 95.8Q359.3 96.0 359.3 96.3L359.3 96.3Q359.3 96.5 359.5 96.7Q359.7 96.9 360.1 97.0L360.1 97.0L361.3 97.2Q362.3 97.4 362.7 97.8Q363.2 98.3 363.2 99.0L363.2 99.0Q363.2 99.6 362.8 100.1Q362.4 100.6 361.8 100.9Q361.1 101.1 360.3 101.1Z "/></g></svg>